<?xml version="1.0" encoding="UTF-8" standalone="no"?>
<!DOCTYPE svg PUBLIC "-//W3C//DTD SVG 1.1//EN" "http://www.w3.org/Graphics/SVG/1.1/DTD/svg11.dtd">
<svg xmlns="http://www.w3.org/2000/svg" version="1.1" viewBox="0.00 0.00 700.00 200.00">
<path fill="#3b82f5" d="
  M 183.19 112.35
  C 169.18 144.35 144.96 170.00 118.36 193.23
  Q 115.92 195.35 113.10 196.66
  C 110.46 197.88 106.42 195.17 104.38 193.37
  C 79.53 171.39 55.39 146.66 41.19 116.25
  Q 33.74 100.28 32.85 85.62
  C 30.55 47.57 54.03 14.42 90.49 4.16
  Q 103.66 0.45 115.22 1.23
  C 154.86 3.89 185.99 33.64 189.78 72.81
  Q 191.72 92.86 183.19 112.35
  Z
  M 168.86 81.26
  A 57.58 57.58 0.0 0 0 111.28 23.68
  A 57.58 57.58 0.0 0 0 53.70 81.26
  A 57.58 57.58 0.0 0 0 111.28 138.84
  A 57.58 57.58 0.0 0 0 168.86 81.26
  Z"
/>
<path fill="#3b82f5" d="
  M 131.03 57.53
  Q 131.35 56.98 131.32 56.32
  Q 131.27 54.77 131.55 53.36
  Q 131.65 52.82 132.19 52.83
  L 141.06 52.88
  Q 142.49 52.89 142.48 54.32
  L 142.39 68.01
  A 3.98 3.97 -66.6 0 0 143.48 70.77
  L 157.36 85.41
  A 1.69 1.68 -46.8 0 1 157.42 87.66
  Q 154.37 91.28 150.43 94.59
  A 0.75 0.75 0.0 0 1 149.52 94.63
  Q 148.46 93.86 147.56 92.93
  Q 130.00 74.69 112.15 56.25
  A 1.22 1.22 0.0 0 0 110.40 56.25
  L 73.35 94.70
  A 0.78 0.78 0.0 0 1 72.27 94.74
  Q 68.02 91.02 65.07 87.24
  Q 64.41 86.40 65.15 85.63
  L 110.24 38.73
  Q 111.42 37.51 112.58 38.74
  L 130.46 57.59
  A 0.36 0.36 0.0 0 0 131.03 57.53
  Z"
/>
<path fill="#000000" d="
  M 274.04 105.44
  A 0.92 0.88 34.7 0 0 274.17 106.08
  Q 286.41 125.57 299.77 147.10
  Q 299.92 147.33 299.93 147.59
  A 0.41 0.41 0.0 0 1 299.52 148.02
  L 284.98 148.00
  A 1.91 1.90 -16.1 0 1 283.37 147.12
  L 259.49 109.28
  A 1.09 1.07 -16.0 0 0 258.55 108.77
  L 240.72 108.81
  A 0.97 0.97 0.0 0 0 239.75 109.78
  L 239.76 147.25
  A 0.76 0.75 -0.0 0 1 239.00 148.00
  L 226.45 148.01
  A 0.81 0.80 90.0 0 1 225.65 147.20
  L 225.68 42.03
  Q 225.68 41.38 226.33 41.34
  Q 231.33 40.96 235.93 41.52
  Q 240.65 42.09 244.89 42.19
  Q 251.79 42.36 258.39 42.15
  C 274.34 41.64 288.65 52.96 290.78 68.52
  C 292.74 82.79 287.93 97.65 274.69 104.53
  Q 274.14 104.82 274.04 105.44
  Z
  M 239.87 55.74
  L 239.61 93.90
  A 1.17 1.17 0.0 0 0 240.77 95.08
  L 256.19 95.19
  A 20.45 19.93 0.4 0 0 276.78 75.40
  L 276.78 74.76
  A 20.45 19.93 0.4 0 0 256.47 54.69
  L 241.05 54.58
  A 1.17 1.17 0.0 0 0 239.87 55.74
  Z"
/>
<path fill="#000000" d="
  M 481.10 98.01
  L 471.73 98.06
  A 0.87 0.87 0.0 0 1 470.85 97.19
  L 470.85 88.03
  A 0.87 0.87 0.0 0 1 471.72 87.16
  L 481.10 87.21
  A 0.87 0.87 0.0 0 0 481.97 86.34
  L 481.98 60.87
  A 0.87 0.87 0.0 0 1 482.85 60.00
  L 494.80 60.04
  A 0.87 0.87 0.0 0 1 495.67 60.91
  L 495.64 86.30
  A 0.87 0.87 0.0 0 0 496.51 87.17
  L 511.38 87.16
  A 0.87 0.87 0.0 0 1 512.25 88.03
  L 512.25 97.16
  A 0.87 0.87 0.0 0 1 511.38 98.03
  L 496.52 98.02
  A 0.87 0.87 0.0 0 0 495.65 98.89
  L 495.67 147.11
  A 0.87 0.87 0.0 0 1 494.80 147.98
  L 482.84 148.02
  A 0.87 0.87 0.0 0 1 481.97 147.15
  L 481.98 98.88
  A 0.87 0.87 0.0 0 0 481.10 98.01
  Z"
/>
<path fill="#3b82f5" d="
  M 119.25 95.54
  A 0.84 0.83 80.0 0 0 118.49 95.00
  L 105.19 94.80
  Q 103.16 94.77 103.16 96.81
  L 103.16 113.31
  Q 103.16 116.52 99.94 116.51
  L 84.33 116.43
  A 3.85 3.85 0.0 0 1 80.50 112.58
  L 80.47 93.54
  A 3.27 3.23 67.3 0 1 81.38 91.28
  Q 95.06 77.06 107.99 63.73
  Q 109.23 62.46 110.79 61.64
  Q 111.24 61.40 111.70 61.61
  Q 113.10 62.23 114.10 63.26
  Q 126.80 76.38 139.64 89.53
  C 141.72 91.66 142.60 94.11 142.53 97.08
  Q 142.38 103.85 142.41 111.36
  Q 142.43 116.38 137.45 116.46
  Q 130.26 116.58 122.80 116.39
  Q 119.55 116.31 119.57 113.06
  Q 119.63 104.97 119.51 96.94
  Q 119.50 96.23 119.25 95.54
  Z"
/>
<path fill="#3b82f5" d="
  M 630.82 98.45
  Q 630.55 97.97 630.03 97.98
  Q 620.18 98.07 610.61 97.96
  C 600.50 97.85 598.64 89.65 599.66 81.36
  Q 599.72 80.84 600.25 80.85
  L 609.26 81.00
  Q 609.81 81.00 609.90 81.55
  C 610.30 83.84 609.73 86.80 613.25 86.83
  Q 632.62 86.95 652.63 86.82
  A 0.54 0.54 0.0 0 1 653.08 87.67
  Q 636.65 111.57 620.28 135.02
  Q 619.92 135.53 619.97 135.97
  A 0.70 0.69 87.3 0 0 620.66 136.60
  L 652.26 136.60
  A 0.79 0.78 0.4 0 1 653.05 137.39
  L 653.02 147.23
  A 0.75 0.74 0.0 0 1 652.27 147.97
  L 597.73 147.98
  A 0.35 0.34 -72.7 0 1 597.45 147.44
  L 630.79 99.11
  A 0.63 0.62 47.7 0 0 630.82 98.45
  Z"
/>
<path fill="#000000" d="
  M 408.52 97.37
  Q 408.69 97.39 408.85 97.34
  Q 409.22 97.21 409.40 96.86
  C 418.20 79.72 452.29 78.86 452.34 103.29
  Q 452.39 126.58 452.33 147.42
  A 0.60 0.60 0.0 0 1 451.74 148.01
  L 439.20 148.02
  A 0.50 0.49 90.0 0 1 438.71 147.52
  Q 438.75 127.76 438.68 107.87
  C 438.65 100.86 434.52 96.20 427.39 96.23
  Q 419.31 96.27 414.13 102.51
  C 409.79 107.74 408.58 113.80 408.60 120.62
  Q 408.66 134.74 408.60 147.20
  Q 408.60 148.00 407.80 148.00
  L 395.94 148.02
  A 0.83 0.83 0.0 0 1 395.11 147.19
  L 395.09 87.47
  A 0.45 0.45 0.0 0 1 395.53 87.01
  L 406.59 86.93
  A 0.83 0.83 0.0 0 1 407.43 87.70
  L 408.06 96.90
  Q 408.09 97.32 408.52 97.37
  Z"
/>
<path fill="#000000" d="
  M 330.67 129.62
  C 338.08 139.96 351.55 140.45 361.38 133.33
  A 0.77 0.77 0.0 0 1 362.49 133.55
  L 367.92 142.29
  A 0.84 0.84 0.0 0 1 367.64 143.45
  Q 354.85 151.34 341.55 149.55
  Q 330.87 148.12 323.93 141.74
  C 310.11 129.05 310.13 105.71 324.89 93.43
  Q 336.69 83.62 351.82 85.47
  C 365.72 87.16 374.74 97.91 377.74 110.96
  A 0.74 0.74 0.0 0 1 377.26 111.83
  L 331.19 127.99
  A 1.07 1.07 0.0 0 0 330.67 129.62
  Z
  M 327.95 120.21
  L 361.91 107.48
  A 0.68 0.68 0.0 0 0 362.28 106.53
  Q 356.93 95.80 345.72 96.08
  C 332.90 96.41 326.01 107.50 327.19 119.74
  A 0.56 0.56 0.0 0 0 327.95 120.21
  Z"
/>
<path fill="#3b82f5" d="
  M 540.52 129.75
  C 548.20 140.04 561.08 140.43 571.21 133.34
  A 0.74 0.73 56.0 0 1 572.26 133.55
  L 577.70 142.30
  A 0.87 0.86 58.5 0 1 577.42 143.50
  Q 564.90 151.14 552.03 149.69
  C 536.56 147.95 525.29 136.93 523.70 121.48
  C 521.47 99.92 539.15 83.63 560.07 85.29
  C 574.81 86.47 584.32 96.96 587.62 110.83
  A 0.87 0.87 0.0 0 1 587.06 111.85
  L 541.04 128.02
  Q 539.61 128.53 540.52 129.75
  Z
  M 537.92 120.25
  L 572.29 107.12
  A 0.01 0.01 0.0 0 0 572.30 107.11
  L 572.28 107.04
  A 18.33 17.16 -20.9 0 0 549.03 97.55
  L 548.88 97.61
  A 18.33 17.16 -20.9 0 0 537.88 120.18
  L 537.90 120.24
  A 0.01 0.01 0.0 0 0 537.92 120.25
  Z"
/>
</svg>
