<?xml version="1.0" encoding="UTF-8"?>
<svg version="1.1" viewBox="0 0 1600 456" width="1280" height="1280" xmlns="http://www.w3.org/2000/svg">
<path transform="translate(239 2.94)" d="m0 0c17.6-0.328 34.9-0.0414 52.1 4.06 0.718 0.166 1.44 0.332 2.18 0.503 2.09 0.487 4.18 0.99 6.26 1.5 0.706 0.165 1.41 0.33 2.14 0.5 5.19 1.27 5.19 1.27 7.42 3.5 1.65 0.68 3.32 1.3 5 1.88 3.83 1.35 7.65 2.72 11.4 4.19 0.782 0.3 1.56 0.601 2.37 0.91 2.34 1.1 4.14 2.46 6.19 4.03 1.69 0.942 3.4 1.86 5.12 2.75 5.55 2.99 11 6.18 15.9 10.2v2c0.804 0.0928 0.804 0.0928 1.62 0.188 3.55 1.21 5.63 3.26 8.38 5.81v2c0.835 0.34 0.835 0.34 1.69 0.688 2.97 1.69 5.03 3.78 7.31 6.31v2l4 2v2c0.593 0.258 1.19 0.516 1.8 0.781 2.38 1.32 3.71 2.64 5.45 4.72 0.521 0.608 1.04 1.22 1.58 1.84 1.17 1.66 1.17 1.66 1.17 3.66h2c1.73 2.08 1.73 2.08 3.62 4.81 0.947 1.34 0.947 1.34 1.91 2.71 1.46 2.48 1.46 2.48 1.46 5.48 0.99 0.33 1.98 0.66 3 1 1.07 1.96 2.06 3.97 3 6 0.993 1.67 1.99 3.34 3 5 3.79 6.48 7.04 13.1 10 20 0.413 0.929 0.825 1.86 1.25 2.82 3.97 9.52 6.03 19.4 8.14 29.5 0.479 2.15 1.05 4.28 1.66 6.39 1.23 4.9 1.25 9.69 1.25 14.7 0.00429 0.987 0.00857 1.97 0.013 2.99 0.00572 2.09 0.00626 4.17 0.00191 6.26-0.00313 3.12 0.0202 6.25 0.0457 9.37 0.0476 15-0.988 29.5-5.36 44-0.379 1.25-0.758 2.51-1.15 3.8-4.75 15.4-10.6 29.8-17.9 44.2-0.413 0.835-0.825 1.67-1.25 2.53-7.15 14.5-15.4 28.4-25.2 41.2-1.44 2.02-2.56 3.98-3.59 6.23h-2c-0.342 1.04-0.342 1.04-0.691 2.09-1.6 3.56-3.81 6.4-6.25 9.41-0.481 0.604-0.963 1.21-1.46 1.83-3.91 4.88-7.92 9.66-12 14.4-1.85 2.16-3.65 4.31-5.3 6.63-0.433 0.539-0.866 1.08-1.31 1.63h-2c-0.274 0.596-0.547 1.19-0.829 1.81-1.13 2.12-2.26 3.57-3.9 5.3-0.548 0.582-1.1 1.16-1.66 1.76-0.593 0.62-1.19 1.24-1.8 1.88-1.27 1.34-2.54 2.68-3.8 4.02-0.658 0.693-1.32 1.39-2 2.1-2 2.11-3.98 4.23-5.96 6.35-16.8 18-16.8 18-25.8 25.8-3.4 3.07-6.58 6.34-9.8 9.6-3.4 3.43-6.9 6.65-10.6 9.78-2 1.77-3.82 3.65-5.66 5.57-6.55 6.65-13.7 13.1-23.4 13.4-11.4-0.223-17.5-7.42-25.3-14.9-3.91-3.72-7.98-7.25-12.3-10.6-2.25-1.88-2.25-1.88-4.06-4.19-1.85-2.28-3.56-3.94-5.78-5.82-4.58-3.96-8.84-8.19-13.1-12.5-0.733-0.737-1.47-1.47-2.22-2.23-1.41-1.42-2.82-2.84-4.23-4.26-2.86-2.89-5.73-5.77-8.64-8.62-3.05-3-5.95-6.06-8.73-9.32-2.7-3.15-5.53-5.79-8.82-8.32-2.33-2.25-3.89-4.92-5.68-7.62-1.53-1.76-3.09-3.49-4.69-5.19-8.76-9.52-16.6-19.6-24.1-30.1-1.01-1.4-2.03-2.8-3.05-4.2-11-15.4-20.4-31.8-29.2-48.5-0.609-1.13-0.609-1.13-1.23-2.28-1.88-3.57-2.77-5.61-2.77-9.72h-2c-10.5-25-17.2-50.1-17.2-77.3-0.00217-2.21-0.0203-4.41-0.0393-6.62-0.054-13.3 1.11-26.2 4.54-39.1l0.661-2.54c5.65-21.3 14.5-39.6 26.5-58 1.49-2.29 1.49-2.29 2.49-4.5 1.09-2.06 2.29-3.29 3.99-4.88 3.5-3.82 6.81-7.67 9.75-11.9 3.14-4.26 6.96-7.3 11.1-10.6 2.31-1.82 4.55-3.7 6.76-5.64 0.614-0.537 1.23-1.07 1.86-1.63 1.2-1.05 2.39-2.11 3.58-3.17 3.46-3.02 6.76-5.1 10.9-7.07l2-1.5c3.4-2.55 7.3-4.17 11.1-6 2.81-1.36 2.81-1.36 4.86-3.01 19.5-14.4 50.5-18.1 74-18.5zm-24.9 55.1c-1.6 0.462-3.21 0.921-4.81 1.38-16.7 5.07-33 12.9-46.2 24.6-0.636 0.534-1.27 1.07-1.93 1.62-3.94 3.34-7.42 6.77-10.7 10.8-1.98 2.35-4.2 4.45-6.37 6.62-1.36 1.65-2.69 3.31-4 5-0.629 0.761-1.26 1.52-1.91 2.3-6.01 7.74-10.3 16.7-14.1 25.7-0.422 0.995-0.843 1.99-1.28 3.02-6.39 15.8-8.9 31.1-8.91 48.1-0.0122 1.23-0.0245 2.46-0.0371 3.73-0.0341 21.7 5.36 41 15.2 60.1 0.606 1.21 1.21 2.42 1.81 3.62 0.588 1.18 0.588 1.18 1.19 2.38h2c0.248 0.701 0.495 1.4 0.75 2.12 3.6 8.29 9.97 16.5 17.2 21.9 0.33 0.66 0.66 1.32 1 2 0.99 0.33 1.98 0.66 3 1 2.31 2.19 4.5 4.44 6.62 6.81 1.45 1.51 1.45 1.51 4.38 1.19l0.75 1.88c1.54 2.62 2.52 2.82 5.25 4.12 1.76 1.02 3.52 2.04 5.28 3.07 31.4 18.2 67.6 23.7 103 14.7 25.6-7.01 54.6-22.2 69.9-44.7v-3c0.619-0.206 1.24-0.412 1.88-0.625 2.97-1.92 3.26-4.04 4.12-7.38h2c5.69-9 5.69-9 8-19h2c3.58-8.1 5.93-16.4 8-25 0.218-0.892 0.436-1.78 0.66-2.7 6.62-31.2 0.576-65-15.7-92.3-0.473-0.821-0.946-1.64-1.43-2.49-2.77-4.75-5.7-9.24-9.07-13.6-1-1.3-1.98-2.62-2.92-3.96-3.07-4.33-6.35-7.78-10.4-11.2-3.08-2.57-6.01-5.29-8.97-8-4.12-3.53-4.12-3.53-9.18-4.8v-2c-1.21-0.588-1.21-0.588-2.44-1.19-2.63-1.34-5.19-2.73-7.75-4.19-19.1-10.6-40.8-15.9-62.6-15.8-0.873 0.00411-1.75 0.00822-2.64 0.0125-10.7 0.0919-20.4 0.64-30.6 4.11z" fill="#3873FB"/>
<path transform="translate(520 94.9)" d="m0 0c1.21-0.00638 2.41-0.0128 3.66-0.0193 1.34-0.00153 2.67-0.00264 4.01-0.00337 1.38-0.00322 2.76-0.00658 4.14-0.0101 2.91-0.00601 5.82-0.00784 8.73-0.00725 2.94 8.01e-5 5.88-0.00667 8.82-0.0205 71.1-0.33 71.1-0.33 96.6 23.8 14.7 14.8 20.2 32.8 20.8 53.4-0.464 20.4-6.11 41.7-20.3 57.1-6.04 5.63-12.6 10.4-20.1 13.9 7.42 12.3 14.9 24.5 22.7 36.6 4.36 6.82 8.67 13.7 13 20.5 5.12 8.21 10.3 16.4 15.4 24.6 0.884 1.4 1.77 2.8 2.65 4.19 0.902 1.42 1.82 2.84 2.74 4.24 0.459 0.708 0.918 1.42 1.39 2.14 0.416 0.631 0.831 1.26 1.26 1.91 0.905 1.74 0.905 1.74 0.905 4.74-32.8 2.83-32.8 2.83-40.7-1.44-3.88-3.91-5.55-8.8-7.3-13.9-1.81-4.61-4.68-8.51-7.47-12.6-1.11-1.69-2.22-3.38-3.32-5.08-0.543-0.832-1.09-1.66-1.65-2.52-2.99-4.62-5.92-9.28-8.85-13.9-5.03-7.99-10.1-15.9-15.2-23.9-0.644-1-1.29-2.01-1.95-3.04-0.568-0.885-1.14-1.77-1.72-2.68-2.3-3.62-4.57-7.26-6.85-10.9h-44c-0.33 29.7-0.66 59.4-1 90h-33c-0.0226-31.3-0.0405-62.6-0.0511-94-0.00125-3.69-0.00255-7.39-0.00387-11.1-2.62e-4 -0.735-5.25e-4 -1.47-7.95e-4 -2.23-0.00436-11.9-0.0122-23.8-0.0214-35.8-0.00934-12.2-0.0149-24.5-0.0169-36.7-0.00138-7.55-0.00573-15.1-0.0138-22.6-0.00589-5.78-0.00654-11.6-0.00519-17.3-2.77e-4 -2.38-0.00228-4.76-0.0061-7.13-0.00493-3.23-0.0038-6.46-0.00105-9.69-0.00291-0.954-0.00583-1.91-0.00883-2.89 0.0178-7.69 0.0178-7.69 6.75-7.71zm26.4 32.1v92c39.6 2.96 39.6 2.96 73.7-12.6 9.1-9.57 12.7-22.2 12.7-35.1-0.35-11.5-4.35-22-12.4-30.4-0.607-0.634-1.21-1.27-1.84-1.92-18.7-17.9-49.3-12.1-72.2-12.1z" fill="#000102"/>
<path transform="translate(398,133)" d="m0 0 2 1c0.33-0.33 0.66-0.66 1-1h3c0.818 2.45 1.03 3.87 0.5 6.44-0.559 2.86-0.183 4.75 0.5 7.56v2h4c1.67 0.304 3.34 0.631 5 1v2c0.99 0.33 1.98 0.66 3 1 0.217 1.64 0.217 1.64 0.438 3.31 0.445 3.62 0.445 3.62 1.56 6.69-0.186 0.763-0.371 1.53-0.562 2.31-0.574 3.53 4.67e-4 5.49 1.56 8.69 2.47 1.16 2.47 1.16 5 2 1.81 2.83 2.24 5 2.2 8.33-0.00967 1.2-0.00967 1.2-0.0195 2.42-0.0251 1.24-0.0251 1.24-0.0508 2.5-0.00902 0.84-0.018 1.68-0.0273 2.55-0.0235 2.07-0.0594 4.14-0.0977 6.2-1.99-2.99-2.94-5.6-4-9l-2 1c-1.42 4.91-0.734 9.44-0.0586 14.4 0.064 2.83-0.474 4.21-1.94 6.59 1.65 1.32 3.3 2.64 5 4-0.33 1.05-0.66 2.1-1 3.19-0.84 3.2-1.2 5.55-1 8.81-3.47 0.495-3.47 0.495-7 1-0.0527 1.37-0.0527 1.37 1 4h2c3.67 8.63 0.701 15.5-2.61 23.7-3.48 8.27-7.34 16.3-11.4 24.3-0.413 0.835-0.825 1.67-1.25 2.53-7.15 14.5-15.4 28.4-25.2 41.2-1.44 2.02-2.56 3.98-3.59 6.23h-2c-0.228 0.691-0.456 1.38-0.691 2.09-1.6 3.56-3.81 6.4-6.25 9.41-0.481 0.604-0.963 1.21-1.46 1.83-3.91 4.88-7.92 9.66-12 14.4-1.85 2.16-3.65 4.31-5.3 6.63-0.433 0.539-0.866 1.08-1.31 1.63h-2c-0.274 0.596-0.547 1.19-0.829 1.81-1.13 2.12-2.26 3.57-3.9 5.3-0.548 0.582-1.1 1.16-1.66 1.76-0.593 0.62-1.19 1.24-1.8 1.88-1.27 1.34-2.54 2.68-3.8 4.02-0.658 0.693-1.32 1.39-2 2.1-2 2.11-3.98 4.23-5.96 6.35-16.8 18-16.8 18-25.8 25.8-3.4 3.07-6.58 6.34-9.8 9.6-3.39 3.42-6.89 6.64-10.6 9.76-2.08 1.84-3.99 3.79-5.93 5.77-3.4 3.46-6.91 6.19-10.9 8.88l-4-2 1 3c-7.47-0.612-7.47-0.612-9.73-2.27-1.58-2.16-1.66-3.52-1.77-6.17-0.308-3.72-0.657-5.93-3.5-8.56-1.33-0.683-2.66-1.35-4-2l-2-3c-0.99-0.33-1.98-0.66-3-1-0.289-0.639-0.578-1.28-0.875-1.94-1.52-2.78-3.22-3.02-6.12-4.06l-1-2c-0.639-0.103-1.28-0.206-1.94-0.312l-2.06-0.688c-0.697-1.65-1.36-3.32-2-5l-2-1.5c-2.54-1.91-3.23-3.44-4-6.5l2-3 4 2v2l2.81-0.188c3.73 0.219 3.76 0.662 6.19 3.19 2.31 0.744 4.64 1.42 7 2-0.33-2.31-0.66-4.62-1-7-2.31-0.33-4.62-0.66-7-1v-2h-2l-2-4c-1.98 0.33-3.96 0.66-6 1l1-4h-2l-1-6h4c-0.33-1.65-0.66-3.3-1-5 0.804-0.206 1.61-0.413 2.44-0.625 0.846-0.454 1.69-0.908 2.56-1.38 0.898-3.05 0.898-3.05 1-6 0.33 0.66 0.66 1.32 1 2 1.98-0.99 3.96-1.98 6-3v-4c-0.66-0.66-1.32-1.32-2-2 2.97-0.33 5.94-0.66 9-1v2c0.66-0.33 1.32-0.66 2-1v-3c1.77-0.0271 3.54-0.0464 5.31-0.0625 0.986-0.0116 1.97-0.0232 2.99-0.0352 2.7 0.0977 2.7 0.0977 5.7 1.1v-2c1.07 0.165 2.14 0.33 3.25 0.5 3.78 0.588 3.78 0.588 7.75 0.5 1.34 0.298 2.68 0.622 4 1 0.33-0.66 0.66-1.32 1-2 0.33 0.33 0.66 0.66 1 1 0.99-0.33 1.98-0.66 3-1 3.51 0 6.56 0.375 10 1 0.495-2.97 0.495-2.97 1-6l-2 2v2h-4v-3c-0.66 0.99-1.32 1.98-2 3-1.65-0.33-3.3-0.66-5-1 0.33-0.99 0.66-1.98 1-3-0.99-0.99-0.99-0.99-2-2 1.65-0.33 3.3-0.66 5-1-0.33-1.98-0.66-3.96-1-6 3.47-0.99 3.47-0.99 7-2 1.5 1.38 1.5 1.38 3 3v2c1.32 0.33 2.64 0.66 4 1v2h-2c0.33 0.99 0.66 1.98 1 3-0.33 0.99-0.66 1.98-1 3 5.28 0.66 10.6 1.32 16 2 0.804-1.09 1.61-2.19 2.44-3.31 0.452-0.615 0.905-1.23 1.37-1.86 1.36-1.92 1.36-1.92 2.19-4.82h2c-0.33-1.32-0.66-2.64-1-4 0.66-0.33 1.32-0.66 2-1v-5c4.75-1.12 4.75-1.12 7 0-0.33-1.98-0.66-3.96-1-6 0.99 0.33 1.98 0.66 3 1-0.99-2.48-0.99-2.48-2-5 0.99-0.33 1.98-0.66 3-1 3.19 1.94 3.19 1.94 6 4 0.0606-0.592 0.121-1.18 0.184-1.79 0.437-4.13 1-8.14 1.82-12.2v-4h3c0.33-0.66 0.66-1.32 1-2 0.784 0.0619 1.57 0.124 2.38 0.188 0.866-0.0619 1.73-0.124 2.62-0.188 0.66-0.99 1.32-1.98 2-3v4h3c-0.33-0.598-0.66-1.2-1-1.81-1-2.19-1-2.19-1-5.19 1.98 0.33 3.96 0.66 6 1 0.33-2.31 0.66-4.62 1-7 0.99 0.33 1.98 0.66 3 1 0.206-0.639 0.413-1.28 0.625-1.94 1.38-2.06 1.38-2.06 4.5-2.81 0.949-0.0825 1.9-0.165 2.88-0.25-0.575-3.93-0.575-3.93-3-7h7c0.0735-1.28 0.0735-1.28 0.148-2.59 0.112-1.66 0.112-1.66 0.227-3.35 0.0696-1.1 0.139-2.2 0.211-3.34 0.137-0.898 0.273-1.8 0.414-2.72 0.66-0.33 1.32-0.66 2-1 0.99 0.33 1.98 0.66 3 1-0.33-0.99-0.66-1.98-1-3-0.117-1.68-0.175-3.37-0.188-5.06-0.0142-0.878-0.0284-1.76-0.043-2.66 0.23-2.28 0.23-2.28 2.23-4.28 0.33-0.66 0.66-1.32 1-2 1.32 0.33 2.64 0.66 4 1v-9h2c-0.33-1.32-0.66-2.64-1-4 0.99-0.66 1.98-1.32 3-2v-2h5c0.195-1.46 0.381-2.92 0.562-4.38 0.104-0.812 0.209-1.62 0.316-2.46 0.303-2.21 0.303-2.21-0.879-4.16h2c-0.0232-0.808-0.0464-1.62-0.0703-2.45-0.018-1.07-0.0361-2.14-0.0547-3.24-0.0232-1.06-0.0464-2.11-0.0703-3.2 0.198-3.16 0.951-5.24 2.2-8.11v-3c3-1 3-1 6 0 3 5.22 3 5.22 3 8h2c0.027-1.46 0.0464-2.92 0.0625-4.38 0.0174-1.22 0.0174-1.22 0.0352-2.46 0.047-2.21 0.047-2.21-1.1-4.16-0.66-0.268-1.32-0.536-2-0.812-2-1.19-2-1.19-2.75-3.81-0.0825-0.784-0.165-1.57-0.25-2.38-0.33 0.66-0.66 1.32-1 2-1-3-1-3 0-6h2c0.33-0.99 0.66-1.98 1-3-0.66-0.66-1.32-1.32-2-2-0.625-2.13-0.625-2.13-1-4h-2c0.142-1.9 0.289-3.79 0.438-5.69 0.122-1.58 0.122-1.58 0.246-3.2 0.281-2.76 0.718-5.4 1.32-8.11 0.99 1.98 0.99 1.98 2 4-0.0838-1.04-0.168-2.07-0.254-3.14-0.103-1.37-0.206-2.74-0.309-4.11-0.0561-0.682-0.112-1.36-0.17-2.07-0.382-5.25-0.382-5.25 0.295-7.81 0.654-2.8-0.188-4.9-1-7.62-0.287-0.985-0.575-1.97-0.871-2.98-0.228-0.748-0.456-1.5-0.691-2.27-0.66 0.33-1.32 0.66-2 1-0.33-1.65-0.66-3.3-1-5 0.66-0.33 1.32-0.66 2-1-0.0412-1.11-0.0825-2.23-0.125-3.38 0.125-3.62 0.125-3.62 2.12-5.62h4v-2h-2v-2c0.99-0.33 1.98-0.66 3-1z" fill="#3370FA"/>
<path transform="translate(843 210)" d="m0 0c12.5 11 21 26.6 25.1 42.8v4c-21.4 7.82-42.8 15.4-64.4 22.9-15.3 5.27-30.5 10.6-45.6 16.1 4.43 9.07 11.8 15.1 21.2 18.8 14.2 4.41 28.7 3.32 41.9-3.38 1.9-1.03 3.78-2.08 5.65-3.16 2.28-1.27 2.28-1.27 5.28-2.27 1.99 3.22 3.97 6.45 5.94 9.69 0.564 0.912 1.13 1.82 1.71 2.76 0.538 0.886 1.08 1.77 1.63 2.69 0.497 0.812 0.995 1.62 1.51 2.46 1.26 2.49 1.8 4.66 2.22 7.4-23.5 12.4-47.6 19.1-73.9 12-13.1-4.08-23.4-10.4-33.1-20-0.625-0.59-1.25-1.18-1.89-1.79-12.8-13.1-18.2-33.4-18.1-51.3 0.642-22.2 9.56-40.8 25.3-56.2 27.7-24 70.7-25.8 99.6-3.51zm-82.8 25.6c-9.67 11.8-11.4 25.4-11.2 40.2 6.83-0.544 12.7-3.01 19.1-5.5 2.56-0.988 5.11-1.97 7.67-2.96 0.7-0.269 1.4-0.539 2.12-0.816 10.6-4.08 21.3-7.98 32-11.9 2.1-0.775 4.2-1.55 6.3-2.32 4.96-1.83 9.93-3.66 14.9-5.49 0-6.45-3.77-10.6-8.09-15.2-9.77-9.17-19.5-11.3-32.5-11.1-12 0.522-22.1 6.41-30.2 15.1z" fill="#000102"/>
<path transform="translate(247,140)" d="m0 0 1 2h3c1.65 1.57 1.65 1.57 3.38 3.69 2.08 2.5 4.14 4.89 6.5 7.12 2.12 2.19 2.12 2.19 3.12 5.19 0.577 0.289 1.15 0.577 1.75 0.875 5.65 2.83 10.4 9.13 14.2 14.1v2c0.639 0.103 1.28 0.206 1.94 0.312 0.681 0.227 1.36 0.454 2.06 0.688 0.33 0.99 0.66 1.98 1 3 1.33 1.01 2.66 2.01 4 3v2c0.589 0.251 1.18 0.503 1.79 0.762 2.49 1.39 3.84 2.86 5.65 5.05 3.22 3.8 6.6 7.32 10.2 10.8 1.49 1.44 2.93 2.94 4.36 4.43v2c0.99 0.33 1.98 0.66 3 1 5.32 6.73 5.17 13.4 5.24 21.6 0.00807 0.91 0.0161 1.82 0.0245 2.76 0.0138 1.92 0.0245 3.83 0.0324 5.75 0.0116 1.96 0.0321 3.91 0.0615 5.87 0.0427 2.84 0.0588 5.67 0.0691 8.5 0.0175 0.869 0.035 1.74 0.0531 2.63-0.0192 5.39-0.617 8.83-4.48 12.9-2.54 0.789-2.54 0.789-5.41 0.84-1.06 0.0313-2.13 0.0625-3.22 0.0947-1.7 0.00145-1.7 0.00145-3.43 0.00293-1.74 0.0305-1.74 0.0305-3.51 0.0615-3.48 0.0432-6.95 0.0348-10.4 9.77e-4 -0.995-0.00951-1.99-0.019-3.01-0.0288-2.62-0.0427-5.24-0.119-7.86-0.221-0.771-0.0259-1.54-0.0517-2.34-0.0784-2.84-0.164-5.34-0.481-7.97-1.59-3.03-3.46-2.52-7.47-2.62-11.9-0.0364-0.968-0.0727-1.94-0.11-2.93-0.113-3.09-0.2-6.19-0.284-9.28-0.101-3.1-0.206-6.2-0.316-9.29-0.0668-1.93-0.127-3.86-0.18-5.79-0.0406-1.31-0.0406-1.31-0.082-2.64-0.0212-0.768-0.0425-1.54-0.0644-2.33-0.061-1.98-0.061-1.98-1.17-3.89h-34c0.0116 2.81 0.0232 5.61 0.0352 8.5 0.00781 2.73 0.0139 5.47 0.0198 8.2 0.00501 1.89 0.0118 3.78 0.0205 5.68 0.0122 2.73 0.0178 5.46 0.0222 8.18 0.00516 0.839 0.0103 1.68 0.0156 2.54 4.44e-4 4.71-0.0775 9.28-1.11 13.9-3.09 2.06-3.8 2.26-7.3 2.31-0.865 0.016-1.73 0.032-2.62 0.0484-1.4 0.00804-1.4 0.00804-2.82 0.0163-0.961 0.00903-1.92 0.0181-2.91 0.0274-2.03 0.0145-4.07 0.0234-6.1 0.0271-3.11 0.0119-6.21 0.0611-9.32 0.112-1.98 0.00946-3.95 0.0167-5.93 0.0215-0.927 0.0195-1.85 0.0391-2.81 0.0592-4.59-0.032-6.55-0.106-10.3-3.03-2.56-3.42-3.06-5-3.07-9.19-0.00315-0.954-0.0063-1.91-0.00955-2.89 0.00202-1.03 0.00405-2.07 0.00613-3.13-9.57e-4 -1.06-0.00191-2.12-0.0029-3.21-6.81e-4 -2.24 0.00117-4.48 0.00534-6.72 0.00535-3.44 5.34e-5 -6.87-0.00635-10.3 6.61e-4 -2.17 0.00194-4.34 0.00391-6.52-0.00304-1.55-0.00304-1.55-0.00613-3.13 0.00315-0.954 0.0063-1.91 0.00955-2.89 7.96e-4 -0.842 0.00159-1.68 0.00241-2.55 0.127-2.05 0.127-2.05 1.13-4.05h2c0.165-0.681 0.33-1.36 0.5-2.06 1.87-3.66 4.29-5.51 7.41-8.11 2.47-2.16 4.51-4.51 6.57-7.05 2.05-2.39 4.28-4.56 6.52-6.77 1.27-1.27 2.54-2.54 3.81-3.81l8.38-8.38c0.989-0.99 0.989-0.99 2-2 1.51-1.51 3.02-3.01 4.54-4.51 2.31-2.34 4.52-4.73 6.71-7.18 0.784-0.871 1.57-1.74 2.38-2.64 1.76-2 3.45-4.03 5.12-6.11 4.07-4.81 9.41-9.55 15.1-12.4z" fill="#3773F9"/>
<path transform="translate(1328 207)" d="m0 0c2.48 2.04 2.48 2.04 4.25 3.81v2c0.639 0.268 1.28 0.536 1.94 0.812 2.06 1.19 2.06 1.19 3.06 4.19h2v2h2c4.67 5.67 7.89 12.4 11 19 0.384 0.776 0.768 1.55 1.16 2.35 2.37 4.96 3.44 9.17 3.84 14.6-6.26 3.45-12.5 5.94-19.3 7.91-10.4 3.09-20.5 6.83-30.7 10.6-8.95 3.32-17.9 6.52-27 9.5-4.85 1.61-9.69 3.25-14.5 4.89-1.46 0.495-2.93 0.988-4.39 1.48-2.14 0.716-4.28 1.44-6.41 2.17-0.657 0.218-1.31 0.435-1.99 0.66-3.53 1.03-3.53 1.03-5.68 3.8 0.0911 2.54 0.0911 2.54 1 5 1.85 1.26 1.85 1.26 4 2 0.99 0.66 1.98 1.32 3 2v2c0.726 0.278 1.45 0.557 2.2 0.844 2.64 1.09 5.1 2.32 7.61 3.66 13.1 6.5 27.4 5.89 41.2 1.5 4.83-2.03 9.43-4.46 14-7 3.24 3.73 5.85 7.21 8.12 11.6 1.74 3.36 3.52 6.4 5.88 9.38-1.89 5.18-6 6.32-10.7 8.55-20.1 8.92-43.9 12.2-65.3 5.45-5.56-2.23-10.8-5.08-16-8-1.33-0.676-2.66-1.35-4-2v-2c-1.09-0.356-1.09-0.356-2.2-0.719-10.7-4.88-19.6-18.5-23.8-29.3-6.36-19.7-6.63-42.4 2.31-61.3 0.867-1.58 1.76-3.14 2.69-4.69 0.549-0.926 1.1-1.85 1.66-2.8 10.4-16.8 26.7-29.1 45.9-34.2 21-4.88 45.6-3.36 63.2 10.2zm-56.6 14.1c-0.729 0.204-1.46 0.409-2.21 0.62-4.44 1.35-7.49 2.96-11 6.13-0.913 0.739-0.913 0.739-1.84 1.49-12.2 10.2-16.5 21.1-18.2 36.5-0.178 3.06-0.167 5.94 0 9 4.34 1.45 7.5-0.344 11.6-1.86 0.879-0.316 1.76-0.632 2.66-0.958 2.91-1.05 5.81-2.11 8.72-3.18 2.02-0.735 4.04-1.47 6.06-2.2 6.34-2.31 12.7-4.65 19-6.98 3.25-1.2 6.5-2.39 9.74-3.59 2-0.735 3.99-1.47 5.99-2.21 6.39-2.36 12.8-4.69 19.2-7.02-0.691-3.9-1.65-6.37-3.94-9.62-0.525-0.755-1.05-1.51-1.59-2.29-0.486-0.688-0.972-1.38-1.47-2.09-0.99-1.49-0.99-1.49-2-3h-2v-2c-4.89-4.24-10.6-5.96-16.8-7.42-2.22-0.578-2.22-0.578-3.22-1.58-6.52-1.06-12.6 0.459-18.8 2.25z" fill="#3773FA"/>
<path transform="translate(1029 207)" d="m0 0c9.69 9.32 12.6 20.1 12.9 33.3 0.00568 1.89 7.6e-4 3.79-0.0135 5.68 2.92e-4 1.05 5.84e-4 2.09 8.85e-4 3.17-0.00138 3.41-0.0169 6.82-0.0326 10.2-0.00374 2.38-0.00658 4.76-0.00858 7.15-0.00759 6.23-0.0272 12.5-0.0494 18.7-0.0205 6.38-0.0296 12.8-0.0397 19.1-0.0214 12.5-0.0565 25-0.0977 37.4h-32c-0.00935-2.91-0.0187-5.82-0.0283-8.82-0.0339-9.65-0.0895-19.3-0.156-28.9-0.0394-5.85-0.0716-11.7-0.0871-17.5-0.0152-5.65-0.0497-11.3-0.0973-16.9-0.0148-2.15-0.0227-4.3-0.0236-6.45 0.591-17.1 0.591-17.1-6.22-32.2-5.78-5.75-12.9-7.22-20.8-7.44-11.2 0.339-19.2 3.8-27.6 11.4-12.6 14.4-14.3 30.3-14.4 48.6-0.0187 1.69-0.0383 3.38-0.0587 5.07-0.051 4.42-0.0908 8.83-0.128 13.2-0.0402 4.52-0.0912 9.04-0.141 13.6-0.0964 8.84-0.18 17.7-0.258 26.5h-32v-141c9.24-0.33 18.5-0.66 28-1 3.71 3.71 2.06 15.8 2.06 20.8-0.0158 2.08-0.0348 4.17-0.0625 6.25h2c0.245-0.724 0.49-1.45 0.742-2.2 5.39-12 18.5-20.9 30.3-25.8 20.1-6.88 41.6-5.82 58.4 8.19z" fill="#000102"/>
<path transform="translate(1386,187)" d="m0 0c3.46-0.0579 6.92-0.0936 10.4-0.125 0.985-0.0168 1.97-0.0335 2.98-0.0508 1.41-0.00967 1.41-0.00967 2.85-0.0195 1.3-0.0157 1.3-0.0157 2.63-0.0317 2.15 0.227 2.15 0.227 4.15 2.23 0.57 2.98 0.741 5.98 1 9 6.25 1.64 12 2.28 18.5 2.23 1.35 4.38e-4 1.35 4.38e-4 2.72 8.85e-4 2.94-0.00138 5.88-0.0169 8.81-0.0326 2.05-0.00373 4.1-0.00658 6.15-0.00858 5.37-0.0076 10.7-0.0272 16.1-0.0494 5.49-0.0205 11-0.0296 16.5-0.0397 10.8-0.0214 21.5-0.0555 32.3-0.0977v3h-2c-0.186 0.959-0.186 0.959-0.375 1.94-0.206 0.681-0.412 1.36-0.625 2.06-0.66 0.33-1.32 0.66-2 1-1.04 1.64-2.03 3.31-3 5-0.845 1.44-1.7 2.88-2.56 4.31-0.414 0.697-0.828 1.39-1.25 2.11-0.391 0.519-0.781 1.04-1.18 1.57h-2c-0.0928 0.559-0.186 1.12-0.281 1.7-0.907 2.91-2.37 4.76-4.22 7.18-3.8 5.07-7.23 10.3-10.5 15.7-0.939 1.51-1.95 2.97-2.97 4.42h-2c-0.371 1.05-0.371 1.05-0.75 2.12-1.42 3.27-3.12 6.02-5.25 8.88h-2c-0.66 1.98-1.32 3.96-2 6h-2c-0.264 0.728-0.529 1.46-0.801 2.21-1.21 2.81-2.6 5.01-4.39 7.48-0.616 0.862-1.23 1.72-1.87 2.61-0.642 0.891-1.28 1.78-1.95 2.7-1.27 1.79-2.55 3.58-3.81 5.38-0.845 1.19-0.845 1.19-1.71 2.4-1.35 2.02-2.45 4.03-3.48 6.23h-2c-0.369 1.07-0.369 1.07-0.746 2.15-1.86 4.22-4.68 7.58-7.48 11.2-2.03 2.68-2.03 2.68-2.78 6.62h77c-0.33 0.66-0.66 1.32-1 2v23h-127c0.835-3.34 1.33-4.8 3.14-7.5 0.43-0.641 0.86-1.28 1.3-1.94 0.676-0.989 0.676-0.989 1.37-2 0.439-0.655 0.878-1.31 1.33-1.99 1.95-2.89 3.92-5.65 6.12-8.36 1.92-2.18 1.92-2.18 2.74-5.21h2c0.402-1.09 0.402-1.09 0.812-2.2 1.17-2.77 2.53-5.11 4.19-7.61 0.516-0.79 1.03-1.58 1.56-2.39 0.474-0.592 0.949-1.18 1.44-1.79h2c0.219-0.66 0.438-1.32 0.664-2 1.79-4.01 4.2-7.42 6.71-11 0.482-0.699 0.964-1.4 1.46-2.12 2.07-2.98 4.16-5.88 6.45-8.7 1.89-2.16 1.89-2.16 2.71-5.19h2c0.371-1.07 0.371-1.07 0.75-2.15 1.4-3.18 3.15-5.64 5.25-8.41 2.31-3.06 4.42-5.94 6-9.44h2c0.249-0.712 0.498-1.42 0.754-2.16 1.38-3.16 3.11-5.59 5.18-8.34 4.87-5.71 4.87-5.71 7.06-12.5-0.987-1.21-0.987-1.21-2.88-1.11-0.823 0.00825-1.65 0.0165-2.49 0.025-1.4 0.0098-1.4 0.0098-2.82 0.0198-1.02 0.0114-2.03 0.0229-3.08 0.0347-2.14 0.0127-4.29 0.025-6.43 0.0371-3.39 0.0247-6.77 0.0526-10.2 0.0862-3.26 0.0304-6.53 0.0481-9.79 0.0642-1 0.0135-2 0.0269-3.03 0.0408-9.08 0.032-17.5-0.582-24.3-7.2-5.61-6.49-6.92-12-6.94-20.4-0.029-0.992-0.058-1.98-0.0879-3.01-0.162-7.18-0.162-7.18 1.03-9.56z" fill="#3B75FB"/>
<path transform="translate(214,6)" d="m0 0v2c1.65-0.145 3.29-0.291 4.94-0.438 1.01-0.0889 2.02-0.178 3.05-0.27 2.54-0.247 5.05-0.57 7.57-0.918 4.89-0.576 9.58-0.0341 14.4 0.625-2.65 1.46-3.89 2-7 2-0.33 0.99-0.66 1.98-1 3 0.99 0.495 0.99 0.495 2 1-2.31-0.33-4.62-0.66-7-1v-2c-3.38-0.845-5.67-1.11-9 0v3h-2c-0.33 0.99-0.66 1.98-1 3-1.11-0.0619-2.23-0.124-3.38-0.188-1.79 0.0928-1.79 0.0928-3.62 0.188-0.66 0.99-1.32 1.98-2 3-3.01 1-5.04 1.1-8.19 1.06-0.901-0.00902-1.8-0.018-2.73-0.0273-0.687-0.0116-1.37-0.0232-2.08-0.0352-0.33 0.66-0.66 1.32-1 2h-7v3c-1.32 0.33-2.64 0.66-4 1-0.33 2.31-0.66 4.62-1 7-0.804 0.124-1.61 0.248-2.44 0.375-0.846 0.206-1.69 0.412-2.56 0.625-0.33 0.66-0.66 1.32-1 2-1.91 0.234-3.81 0.462-5.72 0.648-3.66 0.566-6.86 1.95-10.3 3.35v2c0.66 0.66 1.32 1.32 2 2-1.75 5.75-1.75 5.75-4 8v-2h-2v5c-4.09 0.186-6.4-0.199-10-2-2.31 0.339-3.92 0.958-6 2-2.33 0.0402-4.67 0.0432-7 0v2c0.99-0.33 1.98-0.66 3-1 0.33 0.99 0.66 1.98 1 3-0.598 0.248-1.2 0.495-1.81 0.75-2.49 1.42-3.6 2.9-5.19 5.25-0.33 0.33-0.66 0.66-1 1 0.33 0.66 0.66 1.32 1 2-0.495 0.99-0.495 0.99-1 2h-4c-0.99 0.33-1.98 0.66-3 1h-2l-1 5h-3l-1 3c-0.99 0.33-1.98 0.66-3 1l0.625 2.38 0.375 2.62-2 2c-0.643 2.07-0.643 2.07-1 4h-4v5l-1.94 0.375c-1.02 0.309-1.02 0.309-2.06 0.625l-1 2h2v2h-2l-2 2h-3v6h-2l-1-5v12h-2c-0.133 0.675-0.266 1.35-0.402 2.05l-0.535 2.7c-0.174 0.882-0.348 1.76-0.527 2.67-0.459 2.21-0.969 4.39-1.54 6.58l3-1c-0.33 1.98-0.66 3.96-1 6-0.99-0.33-1.98-0.66-3-1-2.36 0.893-2.36 0.893-3.12 4.06l-0.875 2.94-2-1c-0.309 0.639-0.619 1.28-0.938 1.94-1.06 2.06-1.06 2.06-2.06 3.06-0.674 1.66-1.34 3.33-2 5-0.652 1.34-1.31 2.68-2 4h-2l0.555 1.56c0.605 3.31 0.0842 6.12-0.43 9.44l-0.555 3.69c-0.57 3.31-0.57 3.31-1.17 5.64-0.542 1.69-0.542 1.69 0.0352 3.42 0.856 3.42 0.621 6.73 0.562 10.2h-2c0.199 1 0.199 1 0.402 2.02 3.38 17.6 3.38 17.6 1.6 23 0.33 0.99 0.66 1.98 1 3l-1 2c0.99 0.33 1.98 0.66 3 1l-1 2 2 1c-0.33 0.99-0.66 1.98-1 3l2 1c0.633 2.29 0.633 2.29 1.12 5.06l0.508 2.79 0.367 2.15h2c0.667 2.67 1.33 5.33 2 8h2v2h-2v2h3v10c1.24 0.0619 2.48 0.124 3.75 0.188 3.56 0.416 4.1 0.655 6.75 3.38l1.5 2.44 2-1c2.06 0.688 2.06 0.688 4 2 0.362 1.33 0.697 2.66 1 4 0.99 0.33 1.98 0.66 3 1 1.05 3.09 1.85 6.09 2.38 9.31 0.616 2.25 0.616 2.25 4.62 3.69v9c0.99 0.33 1.98 0.66 3 1l1 3c2.02 0.733 2.02 0.733 4 1l0.148 2.08 0.227 2.73 0.211 2.71c0.281 2.72 0.281 2.72 2.41 5.48 2.82 2.23 2.82 2.23 6 2.25 3 0.75 3 0.75 4.88 3.81 0.557 1.45 0.557 1.45 1.12 2.94h-2v2h3v2c2.31 0.33 4.62 0.66 7 1-0.33-0.66-0.66-1.32-1-2h-5c0.33-0.99 0.66-1.98 1-3h5v-2h3c0.103 0.763 0.206 1.53 0.312 2.31 0.744 2.91 1.17 4.07 3.69 5.69 2.52-0.337 2.52-0.337 5-1 0.99 0.33 1.98 0.66 3 1v2c-1.65 0.33-3.3 0.66-5 1 0.33 0.66 0.66 1.32 1 2 1.65-0.33 3.3-0.66 5-1v2h5v1h-5v2c0.804 0.248 1.61 0.495 2.44 0.75 2.56 1.25 2.56 1.25 3.38 3.38 0.0619 0.619 0.124 1.24 0.188 1.88-1.98 0.33-3.96 0.66-6 1 1.65 0.33 3.3 0.66 5 1v3c-6.75 1.13-6.75 1.13-9 0v2h3v2h2c-0.33-0.66-0.66-1.32-1-2 1.98-0.66 3.96-1.32 6-2 0.33-2.64 0.66-5.28 1-8h2v-2c0.784 0.186 1.57 0.371 2.38 0.562 2.6 0.697 2.6 0.697 4.62-0.562 2.29 3.44 3 4.72 3 9h-2v-2h-3v2c0.99 0.33 1.98 0.66 3 1v2h-3c0.227 1.09 0.454 2.19 0.688 3.31 0.312 3.69 0.312 3.69-0.688 5.56-2.9 1.63-5.73 1.82-9 2.12-0.33 0.99-0.66 1.98-1 3 0.66 0.33 1.32 0.66 2 1v3c1.65 0.33 3.3 0.66 5 1-0.33 1.65-0.66 3.3-1 5 1.98 0.33 3.96 0.66 6 1 0.144 0.598 0.289 1.2 0.438 1.81 0.45 1.75 0.991 3.47 1.56 5.19 2.02 0.733 2.02 0.733 4 1 0.495 3.47 0.495 3.47 1 7h2c0.33-0.66 0.66-1.32 1-2v2c0.99 0.33 1.98 0.66 3 1-0.66 0.33-1.32 0.66-2 1v2h2 3c0.99 1.48 0.99 1.48 2 3 0.99-0.33 1.98-0.66 3-1 0.33 2.31 0.66 4.62 1 7 0.722 0.0825 1.44 0.165 2.19 0.25 3.48 0.927 5.27 2.21 7.81 4.75 0.812 2.75 0.812 2.75 1 5 0.928 0.103 1.86 0.206 2.81 0.312 3.22 0.694 4.35 1.03 6.19 3.69v3c0.99 0.33 1.98 0.66 3 1 0.33-0.33 0.66-0.66 1-1 0.33 0.66 0.66 1.32 1 2 0.99 0.33 1.98 0.66 3 1 4 4 4 4 4 7 0.619 0.103 1.24 0.206 1.88 0.312 2.12 0.688 2.12 0.688 4.12 3.69 0.639 0.309 1.28 0.619 1.94 0.938 2.57 1.33 3.63 2.55 5.06 5.06 0.125 2.62 0.125 2.62 0 5 0.33 0.66 0.66 1.32 1 2-0.33 0.66-0.66 1.32-1 2 0.99 0.33 1.98 0.66 3 1v1c2 0.0425 4 0.0408 6 0 0.33-0.33 0.66-0.66 1-1 0.99 0.33 1.98 0.66 3 1-1 3-1 3-3.23 4.16-5.65 1.71-12.1 1.91-17.6-0.414-5.91-3.39-10.7-8.64-15.6-13.3-3.91-3.72-7.98-7.25-12.3-10.6-2.25-1.88-2.25-1.88-4.06-4.19-1.85-2.28-3.56-3.94-5.78-5.82-4.58-3.96-8.84-8.19-13.1-12.5-0.733-0.737-1.47-1.47-2.22-2.23-1.41-1.42-2.82-2.84-4.23-4.26-2.86-2.89-5.73-5.77-8.64-8.62-3.05-3-5.95-6.06-8.73-9.32-2.7-3.15-5.53-5.79-8.82-8.32-2.33-2.25-3.89-4.92-5.68-7.62-1.53-1.76-3.09-3.49-4.69-5.19-8.76-9.52-16.6-19.6-24.1-30.1-1.01-1.4-2.03-2.8-3.05-4.2-11-15.4-20.4-31.8-29.2-48.5-0.609-1.13-0.609-1.13-1.23-2.28-1.88-3.57-2.77-5.61-2.77-9.72h-2c-10.5-25-17.2-50.1-17.2-77.3-0.00217-2.21-0.0203-4.41-0.0393-6.62-0.054-13.3 1.11-26.2 4.54-39.1l0.661-2.54c5.65-21.3 14.5-39.6 26.5-58 1.49-2.29 1.49-2.29 2.49-4.5 1.09-2.06 2.29-3.29 3.99-4.88 3.5-3.82 6.81-7.67 9.75-11.9 3.14-4.26 6.96-7.3 11.1-10.6 2.31-1.82 4.55-3.7 6.76-5.64 0.614-0.537 1.23-1.07 1.86-1.63 1.2-1.05 2.39-2.11 3.58-3.17 3.46-3.02 6.76-5.1 10.9-7.07l2-1.5c3.4-2.55 7.3-4.17 11.1-6 2.81-1.36 2.81-1.36 4.86-3.01 12-8.84 34.5-15.9 49-15.5z" fill="#3B75FB"/>
<path transform="translate(246,88)" d="m0 0c3.78 1.3 6.11 2.75 8.88 5.62 1.02 1.06 1.02 1.06 2.07 2.14 2.56 2.78 5.06 5.6 7.52 8.47 1.52 1.79 1.52 1.79 3.24 3.37 1.3 1.39 1.3 1.39 1.3 3.39 0.592 0.0889 1.18 0.178 1.79 0.27 2.78 0.922 3.7 2.14 5.52 4.42 2.82 3.4 5.73 6.18 9.21 8.89 1.71 1.64 2.43 3.32 3.48 5.42 2.05 0.805 2.05 0.805 4 1-0.33-0.99-0.66-1.98-1-3 0.66-2.31 1.32-4.62 2-7h24c0.049 2.61 0.098 5.23 0.148 7.92 0.0541 2.54 0.111 5.08 0.169 7.62 0.0382 1.76 0.0731 3.52 0.104 5.28 0.0458 2.53 0.104 5.07 0.164 7.6 0.0173 1.18 0.0173 1.18 0.035 2.37 0.193 7.21 1.57 10.8 6.73 15.8 0.851 0.832 1.7 1.66 2.58 2.52 0.889 0.855 1.78 1.71 2.7 2.59 1.77 1.71 3.53 3.42 5.29 5.14 0.783 0.754 1.57 1.51 2.37 2.28 1.71 1.89 1.71 1.89 1.71 3.89 0.99 0.33 1.98 0.66 3 1 2.52 2.5 4.72 5.28 7 8 0.825 0.887 1.65 1.77 2.5 2.69 1.5 2.31 1.5 2.31 1.45 4.5-1.38 4.07-3.85 6.84-6.64 10.1-0.518 0.637-1.04 1.27-1.57 1.93-2.56 2.99-4.15 4.61-7.93 5.93-2.82-0.109-2.82-0.109-4.65-1.3-0.508-0.598-1.02-1.2-1.54-1.81-2.48-2.76-4.97-5.23-7.81-7.62-2.99-2.58-5.41-5.23-7.81-8.38-1.65-1.68-3.32-3.35-5-5-11.4-11.3-11.4-11.3-16.4-17.1-2.11-2.39-4.36-4.61-6.63-6.85-10.9-10.8-10.9-10.8-14.2-14.8-2.42-2.93-5.11-5.25-8.04-7.66-1.74-1.55-3.18-3.17-4.65-4.96-4.05-4.9-8.78-9.04-14.1-12.6h-3c-0.262 0.601-0.523 1.2-0.793 1.82-1.28 2.31-2.46 3.43-4.52 5.05-3.34 2.75-5.98 5.73-8.69 9.12-5.43 6.51-11.1 13-18 18h-2c-0.103 0.639-0.206 1.28-0.312 1.94-0.227 0.681-0.454 1.36-0.688 2.06-1.49 0.495-1.49 0.495-3 1-0.33 0.66-0.66 1.32-1 2-0.33 0.66-0.66 1.32-1 2-0.99 0.33-1.98 0.66-3 1-0.704 1.31-1.37 2.65-2 4-1.4 1.61-1.4 1.61-3.01 3.17-0.59 0.578-1.18 1.16-1.79 1.75-0.623 0.603-1.25 1.21-1.89 1.83-5.95 5.84-11.6 11.8-16.8 18.3-2.68 3.07-5.53 5.63-8.64 8.25-1.69 1.48-3.13 3-4.61 4.68-2.31 2-2.31 2-4.81 2.12-3.28-1.48-5.09-3.47-7.5-6.12l-5-5c-1.39-1.24-1.39-1.24-2.81-2.5-2.19-2.5-2.19-2.5-2.81-4.94 0.938-3.85 2.86-5.74 5.62-8.56h2c0.165-0.681 0.33-1.36 0.5-2.06 1.79-3.51 3.89-5.15 6.88-7.65 3.4-2.97 6.61-6.11 9.81-9.29 0.594-0.581 1.19-1.16 1.8-1.76 3.37-3.36 6.2-6.78 8.89-10.7 1.48-2.03 3.18-3.58 5.12-5.17 3.19-2.63 6.1-5.43 9-8.38 0.802-0.79 1.6-1.58 2.43-2.39 0.807-0.798 1.61-1.6 2.45-2.42 0.802-0.79 1.6-1.58 2.43-2.39 2.06-2.14 4.01-4.29 5.94-6.54 4.83-5.58 10.2-10.7 15.4-15.8 0.771-0.76 1.54-1.52 2.34-2.3 0.694-0.677 1.39-1.35 2.1-2.05 2-2.22 3.39-4.52 4.88-7.09 1.87-1.84 1.87-1.84 3.88-3.5 2.35-1.98 4.57-3.94 6.75-6.12 2.66-2.66 5.46-5 8.38-7.38z" fill="#3B74F9"/>
<path transform="translate(1111,139)" d="m0 0h32v62h38c0.0206 4.1 0.0412 8.21 0.0625 12.4 0.0091 1.3 0.0182 2.59 0.0276 3.93 0.0025 1.01 5e-3 2.03 0.00757 3.07 0.00524 1.04 0.0105 2.08 0.0159 3.16-0.114 2.41-0.114 2.41-1.11 3.41h-37v115h-32v-115h-25c-1-1-1-1-1.11-3.41 0.00524-1.04 0.0105-2.08 0.0159-3.16 0.0025-1.01 5e-3 -2.03 0.00757-3.07 0.0091-1.3 0.0182-2.59 0.0276-3.93 0.0206-4.1 0.0412-8.21 0.0625-12.4h26v-62z" fill="#000102"/>
<path transform="translate(240,93)" d="m0 0c6.52 2.34 6.52 2.34 8.94 5.69 0.351 0.763 0.701 1.53 1.06 2.31-0.66 0.33-1.32 0.66-2 1 1.65 0.33 3.3 0.66 5 1 0.0619 0.722 0.124 1.44 0.188 2.19 1.11 3.83 2.69 5.37 5.81 7.81 3.68 0.885 3.68 0.885 7 1v6c-1.49 0.495-1.49 0.495-3 1l-1 1c-0.66 0.33-1.32 0.66-2 1 0.495 2.97 0.495 2.97 1 6-1.65-0.66-3.3-1.32-5-2-0.495 0.99-0.495 0.99-1 2-0.66-0.33-1.32-0.66-2-1v-2h-2c-0.66 1.32-1.32 2.64-2 4h-5c-0.262 0.601-0.523 1.2-0.793 1.82-1.28 2.31-2.46 3.43-4.52 5.05-3.34 2.75-5.98 5.73-8.69 9.12-5.43 6.51-11.1 13-18 18h-2c-0.103 0.639-0.206 1.28-0.312 1.94-0.227 0.681-0.454 1.36-0.688 2.06-1.49 0.495-1.49 0.495-3 1-0.33 0.66-0.66 1.32-1 2-0.33 0.66-0.66 1.32-1 2-0.99 0.33-1.98 0.66-3 1-0.704 1.31-1.37 2.65-2 4-1.4 1.61-1.4 1.61-3.01 3.17-0.59 0.578-1.18 1.16-1.79 1.75-0.623 0.603-1.25 1.21-1.89 1.83-5.95 5.84-11.6 11.8-16.8 18.3-2.68 3.07-5.53 5.63-8.64 8.25-1.69 1.48-3.13 3-4.61 4.68-2.31 2-2.31 2-4.81 2.12-3.28-1.48-5.09-3.47-7.5-6.12l-5-5c-1.39-1.24-1.39-1.24-2.81-2.5-2.19-2.5-2.19-2.5-2.81-4.94 0.938-3.85 2.86-5.74 5.62-8.56h2c0.165-0.681 0.33-1.36 0.5-2.06 1.79-3.51 3.89-5.15 6.88-7.65 3.4-2.97 6.61-6.11 9.81-9.29 0.594-0.581 1.19-1.16 1.8-1.76 3.37-3.36 6.2-6.78 8.89-10.7 1.48-2.03 3.18-3.58 5.12-5.17 3.19-2.63 6.1-5.43 9-8.38 0.802-0.79 1.6-1.58 2.43-2.39 0.807-0.798 1.61-1.6 2.45-2.42 0.802-0.79 1.6-1.58 2.43-2.39 2.06-2.14 4.01-4.29 5.94-6.54 4.83-5.58 10.2-10.7 15.4-15.8 0.771-0.76 1.54-1.52 2.34-2.3 0.694-0.677 1.39-1.35 2.1-2.05 2-2.22 3.39-4.52 4.88-7.09 1.87-1.84 1.87-1.84 3.88-3.5 3.21-2.71 6.2-5.49 9.12-8.5z" fill="#3773FA"/>
<path transform="translate(127,247)" d="m0 0c2.91 3.29 4.5 5.6 5 10h2c1.26 1.91 1.26 1.91 2.69 4.5 2.58 4.48 5.45 8.16 8.99 11.9 1.32 1.59 1.32 1.59 1.32 3.59 0.619 0.248 1.24 0.495 1.88 0.75 2.12 1.25 2.12 1.25 3.12 3.31 0.33 0.639 0.66 1.28 1 1.94 0.598 0.144 1.2 0.289 1.81 0.438 3.28 0.844 4.85 3.17 7.19 5.56 1.65 1.02 3.32 2.03 5 3 0.437 0.458 0.874 0.915 1.32 1.39 3.87 3.73 8.99 6.03 13.7 8.61 0.595 0.332 1.19 0.665 1.8 1.01 30.5 16.9 66.4 20.2 99.9 11 17.9-5.24 34.5-13.4 48.6-25.8 2.39-1.89 3.29-2.26 6.39-2.16 2.51 0.484 4.88 1.09 7.3 1.91 1.16 4.69 1.16 4.69-0.312 7.5-0.557 0.825-1.11 1.65-1.69 2.5-0.698 1.65-1.37 3.32-2 5h-5c0.33 0.99 0.66 1.98 1 3l-5 5c-0.99-0.33-1.98-0.66-3-1-0.33 1.32-0.66 2.64-1 4-5.75 0.125-5.75 0.125-8-1v2c0.99 0.33 1.98 0.66 3 1l-2 1v3h-4v4c-11.4 2.15-11.4 2.15-17.1 1.94-3.79-0.348-3.79-0.348-5.62 1.44-1.4 1.6-1.4 1.6-2.32 3.62 0.66 0.33 1.32 0.66 2 1-0.33 1.32-0.66 2.64-1 4 0.99 0.66 1.98 1.32 3 2-0.165 0.598-0.33 1.2-0.5 1.81-0.611 2.3-0.611 2.3-0.5 5.19h-5v3c-1.65-0.66-3.3-1.32-5-2v-2h-2v-2h-5l2-2c-0.99-0.99-1.98-1.98-3-3 0.33-0.99 0.66-1.98 1-3-2.31-0.33-4.62-0.66-7-1v-4c-1.81 0.114-3.63 0.241-5.44 0.375-1.51 0.104-1.51 0.104-3.06 0.211-1.24 0.205-1.24 0.205-2.5 0.414-0.33 0.66-0.66 1.32-1 2-4.08 2.42-7.35 1.93-11.8 1.29-2.4-0.326-4.74-0.371-7.16-0.293-0.33-1.32-0.66-2.64-1-4-1.49 0.495-1.49 0.495-3 1-3.19-0.938-3.19-0.938-6-2-1.9 1.9-2.94 3.33-3.2 6.05 0.0106 1.99 0.1 3.97 0.199 5.95-3 1-3 1-7 1-1.06-2.38-1.06-2.38-2-5 0.33-0.66 0.66-1.32 1-2h-14v-2h-2v-2c-1.49 0.495-1.49 0.495-3 1-2.62-0.312-2.62-0.312-5-1-0.33-0.66-0.66-1.32-1-2h-10v-2c-0.603-0.17-1.21-0.34-1.83-0.516-4.89-1.48-7.59-2.78-11.2-6.48-3.14-0.803-3.14-0.803-6-1 0.33 0.99 0.66 1.98 1 3-0.66 0.99-1.32 1.98-2 3-1.51-1.96-2.89-3.78-4-6h-3c0.495-1.49 0.495-1.49 1-3 0.804 0.0206 1.61 0.0412 2.44 0.0625 2.5 0.234 2.5 0.234 3.56-1.06-0.33-0.99-0.66-1.98-1-3-2.31-0.33-4.62-0.66-7-1 0.33-0.99 0.66-1.98 1-3-0.33-0.66-0.66-1.32-1-2 0.33-0.99 0.66-1.98 1-3-0.99 0.33-1.98 0.66-3 1-0.268-0.639-0.536-1.28-0.812-1.94-1.07-2.39-1.07-2.39-4.19-3.06-0.33-0.99-0.66-1.98-1-3-1.26-0.0412-2.52-0.0825-3.81-0.125-1.06-0.0348-1.06-0.0348-2.14-0.0703-2.36 0.0628-2.36 0.0628-5.04 2.2h-4c-1.3-6.32-1.78-12.8 0-19h-5c-0.33-0.99-0.66-1.98-1-3h2c-0.33-1.32-0.66-2.64-1-4 0.99-0.66 1.98-1.32 3-2-0.33-0.99-0.66-1.98-1-3-1.11-0.124-2.23-0.248-3.38-0.375-3.62-0.625-3.62-0.625-5.62-2.62 0.363-2.83 1.1-5.29 2-8-0.66-0.33-1.32-0.66-2-1v-5c1.65-0.66 3.3-1.32 5-2z" fill="#3A73F6"/>
<path transform="translate(248,163)" d="m0 0h9v4c3.3 0.33 6.6 0.66 10 1-1.32 0.33-2.64 0.66-4 1v2c0.99-0.33 1.98-0.66 3-1 0.34 1.18 0.34 1.18 0.688 2.38 1.09 2.84 1.09 2.84 3.94 3.94 0.784 0.227 1.57 0.454 2.38 0.688 0.526-0.773 0.526-0.773 1.06-1.56 1.94-1.44 1.94-1.44 5.5-1.38 3.44 0.938 3.44 0.938 4.62 2.81 0.268 0.701 0.536 1.4 0.812 2.12 1.32 1.01 2.66 2.01 4 3v2c0.589 0.251 1.18 0.503 1.79 0.762 2.49 1.39 3.84 2.86 5.65 5.05 3.22 3.8 6.6 7.32 10.2 10.8 1.49 1.44 2.93 2.94 4.36 4.43v2c1.49 0.495 1.49 0.495 3 1 5.32 6.73 5.17 13.4 5.24 21.6 0.00807 0.91 0.0161 1.82 0.0245 2.76 0.0138 1.92 0.0245 3.83 0.0324 5.75 0.0116 1.96 0.0321 3.91 0.0615 5.87 0.0427 2.84 0.0588 5.67 0.0691 8.5 0.0175 0.869 0.035 1.74 0.0531 2.63-0.0192 5.38-0.582 8.87-4.48 12.9-2.84 0.773-2.84 0.773-6.08 0.805-1.16 0.0258-2.32 0.0516-3.52 0.0781-1.81-0.00387-1.81-0.00387-3.66-0.00781-1.83 0.0309-1.83 0.0309-3.7 0.0625-3.02 0.0471-6.03 0.0669-9.05 0.0625-0.33-0.66-0.66-1.32-1-2 2.97-0.495 2.97-0.495 6-1-1.11-0.103-2.23-0.206-3.38-0.312-1.2-0.227-2.39-0.454-3.62-0.688-0.66-0.99-1.32-1.98-2-3-3.05-1.21-3.05-1.21-6-2 0.33-0.66 0.66-1.32 1-2v-3c0.99-0.33 1.98-0.66 3-1 0.99 0.495 0.99 0.495 2 1v-2h-4c-1.62-2-1.62-2-3-4h-2c-0.33-1.98-0.66-3.96-1-6 2.48-0.495 2.48-0.495 5-1-0.33-0.99-0.66-1.98-1-3-2.5-1.22-2.5-1.22-5-2 0.0116-0.615 0.0232-1.23 0.0352-1.86 0.00902-0.808 0.018-1.62 0.0273-2.45 0.0116-0.801 0.0232-1.6 0.0352-2.43-0.00108-2.43-0.00108-2.43-1.1-5.26-0.66-0.33-1.32-0.66-2-1 0.33-1.32 0.66-2.64 1-4h2v-10h-10v-5h-9v-2h-5c-0.121-0.566-0.242-1.13-0.367-1.71-0.251-1.1-0.251-1.1-0.508-2.22-0.162-0.731-0.325-1.46-0.492-2.21-0.462-2.05-0.462-2.05-2.63-2.85h5c1.39-3.17 0.914-4.22-0.375-7.56-0.536-1.13-1.07-2.27-1.62-3.44-0.33-0.99-0.66-1.98-1-3-0.66-0.66-1.32-1.32-2-2 0.33-0.66 0.66-1.32 1-2-0.99-0.33-1.98-0.66-3-1 0.33-1.98 0.66-3.96 1-6h2c0.33-1.98 0.66-3.96 1-6z" fill="#3370F9"/>
<path transform="translate(1243,207)" d="m0 0c0.99 0.33 1.98 0.66 3 1v2c2.64-0.33 5.28-0.66 8-1-0.66 2.97-1.32 5.94-2 9-1.98 0.33-3.96 0.66-6 1v5h-4c-0.33 1.32-0.66 2.64-1 4-3-1-3-1-4-2v5c-1.98 0.99-1.98 0.99-4 2v-3h-5c-0.33 1.65-0.66 3.3-1 5h-3c-0.33-1.32-0.66-2.64-1-4 0.156 0.927 0.312 1.85 0.473 2.81 0.195 1.2 0.389 2.4 0.59 3.63 0.296 1.79 0.296 1.79 0.598 3.62 0.112 0.971 0.224 1.94 0.34 2.94-0.33 0.33-0.66 0.66-1 1 0.33 0.66 0.66 1.32 1 2h-4v3h-2v6c-1.98 0.66-3.96 1.32-6 2-1.29 4.47-0.641 8.24 0.312 12.7 0.196 1.01 0.196 1.01 0.396 2.05 0.812 4.05 0.812 4.05 3.29 7.26-0.395 2.45-1.21 4.64-2 7 0.66 0.33 1.32 0.66 2 1 0.374 2.33 0.708 4.66 1 7 0.33 0.33 0.66 0.66 1 1v-3c1.48-0.495 1.48-0.495 3-1 0.392 0.598 0.784 1.2 1.19 1.81 1.72 2.32 1.72 2.32 4.31 3.69 2.62 1.57 3.72 3.07 5.5 5.5 1.48 0.495 1.48 0.495 3 1v6h5c-1.98 0.99-1.98 0.99-4 2 1.65 0.33 3.3 0.66 5 1 0.0619-0.536 0.124-1.07 0.188-1.62 1.19-3.49 3.37-5.62 5.81-8.38 2.96 0.613 4.38 1.25 7 3v2c0.726 0.278 1.45 0.557 2.2 0.844 2.64 1.09 5.1 2.32 7.61 3.66 13.1 6.5 27.4 5.89 41.2 1.5 4.83-2.03 9.43-4.46 14-7 3.24 3.73 5.85 7.21 8.12 11.6 1.74 3.36 3.52 6.4 5.88 9.38-1.89 5.18-6 6.32-10.7 8.55-20.1 8.92-43.9 12.2-65.3 5.45-5.56-2.23-10.8-5.08-16-8-1.33-0.676-2.66-1.35-4-2v-2c-0.724-0.237-1.45-0.474-2.2-0.719-10.7-4.88-19.6-18.5-23.8-29.3-6.36-19.7-6.63-42.4 2.31-61.3 0.867-1.58 1.76-3.14 2.69-4.69 0.549-0.926 1.1-1.85 1.66-2.8 6.3-10.2 13.3-18.7 24.3-24.2z" fill="#3B75FB"/>
<path transform="translate(81,239)" d="m0 0c1.5 1.38 1.5 1.38 3 3v2h2v2h-2v2h3v10c1.24 0.0619 2.47 0.124 3.75 0.188 3.56 0.416 4.1 0.655 6.75 3.38 0.495 0.804 0.99 1.61 1.5 2.44 0.66-0.33 1.32-0.66 2-1 2.06 0.688 2.06 0.688 4 2 0.362 1.33 0.697 2.66 1 4 0.99 0.33 1.98 0.66 3 1 1.05 3.09 1.85 6.09 2.38 9.31 0.616 2.25 0.616 2.25 4.62 3.69v9c0.99 0.33 1.98 0.66 3 1 0.33 0.99 0.66 1.98 1 3 2.02 0.733 2.02 0.733 4 1 0.049 0.687 0.098 1.37 0.148 2.08 0.0748 0.901 0.15 1.8 0.227 2.73 0.104 1.34 0.104 1.34 0.211 2.71 0.281 2.72 0.281 2.72 2.41 5.48 2.82 2.23 2.82 2.23 6 2.25 3 0.75 3 0.75 4.88 3.81 0.371 0.969 0.743 1.94 1.12 2.94h-2v2h3v2c2.31 0.33 4.62 0.66 7 1-0.33-0.66-0.66-1.32-1-2h-5c0.495-1.49 0.495-1.49 1-3h5v-2h3c0.103 0.763 0.206 1.53 0.312 2.31 0.744 2.91 1.17 4.07 3.69 5.69 2.52-0.337 2.52-0.337 5-1 1.49 0.495 1.49 0.495 3 1v2c-1.65 0.33-3.3 0.66-5 1 0.33 0.66 0.66 1.32 1 2 1.65-0.33 3.3-0.66 5-1v2h5v1h-5v2c0.804 0.248 1.61 0.495 2.44 0.75 2.56 1.25 2.56 1.25 3.38 3.38 0.0928 0.928 0.0928 0.928 0.188 1.88-1.98 0.33-3.96 0.66-6 1 1.65 0.33 3.3 0.66 5 1v3c-6.75 1.12-6.75 1.12-9 0v2h3v2h2c-0.33-0.66-0.66-1.32-1-2 1.98-0.66 3.96-1.32 6-2 0.33-2.64 0.66-5.28 1-8h2v-2l2.38 0.562c2.6 0.697 2.6 0.697 4.62-0.562 2.29 3.44 3 4.72 3 9h-2v-2h-3v2c1.49 0.495 1.49 0.495 3 1v2h-3c0.227 1.09 0.454 2.19 0.688 3.31 0.312 3.69 0.312 3.69-0.688 5.56-2.9 1.63-5.73 1.82-9 2.12-0.495 1.49-0.495 1.49-1 3 0.66 0.33 1.32 0.66 2 1v3c1.65 0.33 3.3 0.66 5 1-0.33 1.65-0.66 3.3-1 5 1.98 0.33 3.96 0.66 6 1 0.144 0.598 0.289 1.2 0.438 1.81 0.45 1.75 0.991 3.47 1.56 5.19 2.02 0.733 2.02 0.733 4 1 0.495 3.47 0.495 3.47 1 7h2c0.33-0.66 0.66-1.32 1-2v2c0.99 0.33 1.98 0.66 3 1-0.66 0.33-1.32 0.66-2 1v2h2 3c0.66 0.99 1.32 1.98 2 3 0.99-0.33 1.98-0.66 3-1 0.495 3.47 0.495 3.47 1 7 0.722 0.0825 1.44 0.165 2.19 0.25 3.48 0.927 5.27 2.21 7.81 4.75 0.812 2.75 0.812 2.75 1 5 1.39 0.155 1.39 0.155 2.81 0.312 3.22 0.694 4.35 1.03 6.19 3.69v3c0.99 0.33 1.98 0.66 3 1 0.33-0.33 0.66-0.66 1-1 0.33 0.66 0.66 1.32 1 2 0.99 0.33 1.98 0.66 3 1 4 4 4 4 4 7 0.928 0.155 0.928 0.155 1.88 0.312 2.12 0.688 2.12 0.688 4.12 3.69 0.639 0.309 1.28 0.619 1.94 0.938 2.57 1.33 3.63 2.55 5.06 5.06 0.125 2.63 0.125 2.63 0 5 0.33 0.66 0.66 1.32 1 2-0.33 0.66-0.66 1.32-1 2 0.99 0.33 1.98 0.66 3 1v1c2 0.0425 4 0.0408 6 0 0.33-0.33 0.66-0.66 1-1 0.99 0.33 1.98 0.66 3 1-0.33 0.99-0.66 1.98-1 3-5.33 0.999-9.66 1.09-15 0-2-3-2-3-2-7h-4c-0.33-0.66-0.66-1.32-1-2-2.02-0.652-2.02-0.652-4-1v-2c-0.99-0.33-1.98-0.66-3-1-2-0.667-4-1.33-6-2v-2c-0.866-0.433-0.866-0.433-1.75-0.875-0.742-0.371-1.48-0.742-2.25-1.12-0.722-0.309-1.44-0.619-2.19-0.938-1.81-1.06-1.81-1.06-2.81-4.06v-3c-0.66 0.33-1.32 0.66-2 1v-5c-0.99 0.33-1.98 0.66-3 1-0.412-0.454-0.825-0.908-1.25-1.38-1.81-1.68-3.5-2.62-5.75-3.62 0.33-0.66 0.66-1.32 1-2-0.598-0.0619-1.2-0.124-1.81-0.188-3.08-1.14-3.61-2.99-5.19-5.81-1.31-1.35-2.65-2.69-4-4-3.75-4.5-3.75-4.5-5-7-0.742-0.371-1.49-0.742-2.25-1.12-2.79-1.9-3.56-2.98-5.19-5.81-2.25-3.88-4.64-5.8-8.56-8.06-2-2-2-2-2.38-4-0.446-2.2-0.446-2.2-2.69-3.25-0.959-0.371-0.959-0.371-1.94-0.75 0.33-0.99 0.66-1.98 1-3-0.742-0.0825-1.49-0.165-2.25-0.25-3.26-0.89-4.56-2.24-6.75-4.75 0.495-1.49 0.495-1.49 1-3-1.49-0.495-1.49-0.495-3-1-0.66-0.66-1.32-1.32-2-2v-3h-2c-0.66-1.98-1.32-3.96-2-6-0.804-0.124-1.61-0.248-2.44-0.375-0.846-0.206-1.69-0.413-2.56-0.625l-6-12h-3v-8c-1.24-0.371-2.47-0.742-3.75-1.12-4.53-1.66-6.01-3.68-8.25-7.88h3v-2c-1.98 0.495-1.98 0.495-4 1-0.66-1.32-1.32-2.64-2-4h-2c-4.43-7.29-4.43-7.29-5-12h-3v-5h-4c-0.168-1.62-0.334-3.25-0.5-4.88-0.0928-0.905-0.186-1.81-0.281-2.74-0.219-2.38-0.219-2.38-0.219-4.38-1.48 0.495-1.48 0.495-3 1v-4c-1.32-0.66-2.64-1.32-4-2v-4h-2c-0.103-0.598-0.206-1.2-0.312-1.81-0.792-2.52-1.81-3.38-3.69-5.19-0.685-1.32-1.35-2.66-2-4-0.639-0.949-1.28-1.9-1.94-2.88-5.06-7.67-5.06-7.67-5.06-13.1h-2c-1.51-3.02-1.18-5.67-1-9 0.66-0.99 1.32-1.98 2-3z" fill="#3B75FB"/>
<path transform="translate(1386,187)" d="m0 0c3.46-0.0579 6.92-0.0936 10.4-0.125 0.985-0.0168 1.97-0.0335 2.98-0.0508 1.41-0.00967 1.41-0.00967 2.85-0.0195 1.3-0.0157 1.3-0.0157 2.63-0.0317 2.15 0.227 2.15 0.227 4.15 2.23 0.57 2.98 0.741 5.98 1 9 6.25 1.64 12 2.28 18.5 2.23 1.35 4.38e-4 1.35 4.38e-4 2.72 8.85e-4 2.94-0.00138 5.88-0.0169 8.81-0.0326 2.05-0.00373 4.1-0.00658 6.15-0.00858 5.37-0.0076 10.7-0.0272 16.1-0.0494 5.49-0.0205 11-0.0296 16.5-0.0397 10.8-0.0214 21.5-0.0555 32.3-0.0977v3h-2c-0.186 0.959-0.186 0.959-0.375 1.94-0.206 0.681-0.412 1.36-0.625 2.06-0.66 0.33-1.32 0.66-2 1-1.04 1.64-2.03 3.31-3 5-0.845 1.44-1.7 2.88-2.56 4.31-0.414 0.697-0.828 1.39-1.25 2.11-0.391 0.519-0.781 1.04-1.18 1.57h-2c-0.13 0.814-0.13 0.814-0.262 1.64-0.984 3.14-2.63 5.38-4.55 8.04-0.687 0.973-1.37 1.95-2.08 2.95-2.12 2.38-2.99 3.06-6.11 3.36v-5h-7c-1.33-2.67-0.671-4.17 0-7h-4c-0.33 0.99-0.66 1.98-1 3-2.79 1.4-4.88 2.31-7.97 1.45-1.03-0.432-1.03-0.432-2.09-0.873-5.4-1.93-10.3-1.93-16-1.8-1.03 0.00899-2.06 0.018-3.13 0.0272-3.27 0.0298-6.54 0.0796-9.81 0.133-3.27 0.048-6.54 0.0914-9.81 0.122-2.03 0.0195-4.05 0.0489-6.08 0.0899-9.02 0.0952-17.4-0.584-24.1-7.15-5.61-6.49-6.92-12-6.94-20.4-0.029-0.992-0.058-1.98-0.0879-3.01-0.162-7.18-0.162-7.18 1.03-9.56z" fill="#326FF9"/>
<path transform="translate(137 89.9)" d="m0 0c0.802 0.00451 1.6 0.00902 2.43 0.0137 1.98 0.0118 3.96 0.0297 5.95 0.0488 0.124 0.639 0.248 1.28 0.375 1.94 0.309 1.02 0.309 1.02 0.625 2.06l2 1v2l2 1c-0.743 0.722-1.49 1.44-2.25 2.19-3.32 3.39-6.12 6.87-8.75 10.8h-2c-0.227 0.825-0.454 1.65-0.688 2.5-1.94 5.17-4.07 10.2-8.94 13.1-2.38 0.438-2.38 0.438-5.38-0.562 0.309 0.619 0.619 1.24 0.938 1.88l2.06 4.12c-1.37 3.95-2.92 6.27-6.44 8.44-3.56 1.56-3.56 1.56-6 1.31-0.516-0.248-1.03-0.495-1.56-0.75v2h6v1h-6c-0.124 1.13-0.248 2.27-0.375 3.44-0.309 1.76-0.309 1.76-0.625 3.56l-2 1c0.33-1.65 0.66-3.3 1-5h-2c-0.0715 4.07-0.0335 7.77 0.562 11.8 0.438 3.19 0.438 3.19-0.562 6.19-0.417 3.5-0.417 3.5 0 7 0.652 0.403 1.3 0.807 1.98 1.22 2.02 1.78 2.02 1.78 2.6 5.43 0.057 1.43 0.0941 2.86 0.113 4.29 0.0838 6.11 0.0838 6.11 1.31 12.1h-1c-0.33 2.97-0.66 5.94-1 9-1.32-0.33-2.64-0.66-4-1-0.33 0.99-0.66 1.98-1 3-2.06 1.19-2.06 1.19-4 2 0.267 1.98 0.267 1.98 1 4l3 1v7h4v7h-4c-0.33-1.65-0.66-3.3-1-5-2.49-0.687-4.38-1-7-1v2c-0.99 0.99-0.99 0.99-2 2l1 3-1 2h-8c-0.872-2.99-1.11-5.64-1.06-8.75 0.00902-0.799 0.018-1.6 0.0273-2.42 0.0116-0.603 0.0232-1.21 0.0352-1.83h-3l1 4c-0.99 0.33-1.98 0.66-3 1-0.0269-2.12-0.0464-4.25-0.0625-6.38-0.0116-1.18-0.0232-2.37-0.0352-3.59 0.0977-3.04 0.0977-3.04 1.1-5.04-0.99-0.33-1.98-0.66-3-1-0.222-1.62-0.427-3.25-0.625-4.88-0.116-0.905-0.232-1.81-0.352-2.74-0.00773-0.786-0.0155-1.57-0.0234-2.38 0.99-0.99 0.99-0.99 2-2-0.66-1.65-1.32-3.3-2-5h2v-6h2v-2c-1.32-0.66-2.64-1.32-4-2v-10c1.98-0.495 1.98-0.495 4-1 0.33-3.3 0.66-6.6 1-10h2v-5h9c0.66-1.32 1.32-2.64 2-4-0.33-0.66-0.66-1.32-1-2 2.64-0.66 5.28-1.32 8-2-0.33-2.64-0.66-5.28-1-8v2c-2.76 0.597-5.16 1-8 1v-10c3.46-0.495 3.46-0.495 7-1 0.33 1.32 0.66 2.64 1 4h7c0.33-1.32 0.66-2.64 1-4-1.48-0.495-1.48-0.495-3-1 0.453-3.3 0.902-6.56 1.62-9.81 0.603-2.22 0.603-2.22-0.625-4.19h3c0.155-0.928 0.155-0.928 0.312-1.88 0.688-2.12 0.688-2.12 3.69-4.12 0.495-1.48 0.495-1.48 1-3l-2-2c0.99-0.33 1.98-0.66 3-1 0.495 1.48 0.495 1.48 1 3h3c0.33-0.99 0.66-1.98 1-3 2.47 0.99 2.47 0.99 5 2v-6c-1.32-0.33-2.64-0.66-4-1 0.602-2.02 1.27-4.02 2-6 3.31-1.65 6.99-1.1 10.6-1.06z" fill="#3370FA"/>
<path transform="translate(287 50.7)" d="m0 0c3.06 0.475 6.02 0.394 9.12 0.328 0.33 0.99 0.66 1.98 1 3 1.42-0.0619 1.42-0.0619 2.88-0.125 3.12 0.125 3.12 0.125 5.12 2.12v-4h7c0.495 1.48 0.495 1.48 1 3 1.89 0.248 1.89 0.248 3.81 0.5 1.06 0.139 1.06 0.139 2.14 0.281 2.2 0.272 2.2 0.272 5.04 0.219v2c1.32 0.33 2.64 0.66 4 1-0.33 0.66-0.66 1.32-1 2h4c0.495 1.48 0.495 1.48 1 3 1.11 0.0928 1.11 0.0928 2.25 0.188 3.66 1.08 4.68 2.66 6.75 5.81 1.25 2.81 1.25 2.81 2 5v-2c0.557 0.144 1.11 0.289 1.69 0.438 2.43 0.59 4.86 1.09 7.31 1.56v2c-1.49 0.495-1.49 0.495-3 1v4c1.49 0.99 1.49 0.99 3 2 2.69 2.5 2.69 2.5 5 5v2h7c0.309 1.09 0.619 2.19 0.938 3.31 0.646 2.24 1.32 4.47 2.06 6.69l-2 1v5h2c0.33-1.32 0.66-2.64 1-4v4h2l1 6h2v4c0.66 0.66 1.32 1.32 2 2 0.78 2.58 1.4 5.17 2.02 7.79l0.977 2.21c2.02 0.885 2.02 0.885 4 1 1.24 3.6 0.706 6.31 0 10-0.158 3.05-0.158 3.05 1 6 0.0429 1.35 0.0405 2.71 0 4.06-0.293 3.72-0.293 3.72 1 5.94-0.0206 1.07-0.0412 2.14-0.0625 3.25-0.0949 7.38 0.254 16.3 4.06 22.8h-2v2.48 13.5c0.186 0.619 0.371 1.24 0.562 1.88 0.593 2.88 0.0212 5.27-0.562 8.12-0.33-0.99-0.66-1.98-1-3h-2v13c0.66 0.33 1.32 0.66 2 1-0.506 2.17-1 4-2 6-0.227 0.681-0.454 1.36-0.688 2.06-1.31 1.94-1.31 1.94-4.44 2.69-0.949 0.0825-1.9 0.165-2.88 0.25-0.33 0.99-0.66 1.98-1 3-1.11-3.34-0.865-5.54-0.0391-8.94 0.224-0.967 0.448-1.93 0.679-2.93 0.243-1.03 0.485-2.07 0.735-3.13 2.44-11.1 3.64-21.7 3.62-33 0.0116-1.29 0.0232-2.59 0.0352-3.92-0.546-21.1-7.31-42.1-18-60.1-0.473-0.821-0.946-1.64-1.43-2.49-3.95-6.76-8.35-12.9-13.4-18.9-2.12-2.62-2.12-2.62-2.12-4.62-0.878-0.381-0.878-0.381-1.77-0.77-2.46-1.36-3.95-2.85-5.85-4.92-4.76-4.91-10.2-9.24-16.4-12.3v-2c-0.804-0.227-1.61-0.454-2.44-0.688-2.85-1.05-5.14-2.13-7.75-3.62-13.5-7.66-27.7-11.4-42.8-14.7 0.99-0.33 1.98-0.66 3-1v-2c5.92-2.19 10.6-3.35 16.9-2.33z" fill="#3B76FB"/>
<path transform="translate(240,15)" d="m0 0h23c-0.33 1.32-0.66 2.64-1 4 2.64-0.33 5.28-0.66 8-1 0.495 0.99 0.495 0.99 1 2 6.44-0.495 6.44-0.495 13-1v3c0.99 0.495 0.99 0.495 2 1v5c3.3 0.889 6.62 1.46 10 2v3c2.64-0.66 5.28-1.32 8-2 1 3 1 3 1 6 1.65 0.33 3.3 0.66 5 1v2c0.33-0.66 0.66-1.32 1-2 2.97 0.33 5.94 0.66 9 1 0.124 1.11 0.248 2.23 0.375 3.38 0.272 3.66 0.272 3.66 2.62 5.62-0.375 3.13-0.375 3.13-1 6h-5c-0.33-0.99-0.66-1.98-1-3-2.97-0.33-5.94-0.66-9-1v-2c-3.09-1.03-4.53-0.975-7.69-0.562-1.21 0.153-1.21 0.153-2.45 0.309-0.615 0.0838-1.23 0.168-1.86 0.254v-2h-3v-2h-4c0.495 1.48 0.495 1.48 1 3-0.784 0.309-1.57 0.619-2.38 0.938-2.55 0.991-2.55 0.991-4.62 2.06-2.12-0.438-2.12-0.438-4-1v-3h-9c-0.33 0.99-0.66 1.98-1 3-2.97-0.495-2.97-0.495-6-1v-2c-0.599 0.0105-1.2 0.0209-1.82 0.0317-2.75 0.0419-5.5 0.0677-8.25 0.0933-0.943 0.0168-1.89 0.0335-2.86 0.0508-6.84 0.0477-12.2-0.285-18.1-4.18-2.74-0.458-2.74-0.458-5.69-0.625-1.49-0.112-1.49-0.112-3.01-0.227-0.759-0.049-1.52-0.098-2.3-0.148v-2h-7v-4h8c-0.33-1.32-0.66-2.64-1-4h-2c1-2 1-2 2-3h-4v-2h5c-0.99-0.33-1.98-0.66-3-1 0.33-1.65 0.66-3.3 1-5h8c-1.98 0.99-1.98 0.99-4 2 1.65-0.33 3.3-0.66 5-1-0.99-0.99-1.98-1.98-3-3h15v-3z" fill="#3370FA"/>
<path transform="translate(1301,216)" d="m0 0v3c3.63-0.33 7.26-0.66 11-1 0.495 1.49 0.495 1.49 1 3l1.56 1.56c0.474 0.474 0.949 0.949 1.44 1.44v2c0.99 0.495 0.99 0.495 2 1 0.722 1.64 1.39 3.31 2 5 1.67 0.124 1.67 0.124 3.38 0.25 3.62 0.75 3.62 0.75 5 2.69 0.309 1.02 0.309 1.02 0.625 2.06 0.495 0.99 0.495 0.99 1 2-1.32-0.33-2.64-0.66-4-1 0.0722 0.592 0.144 1.18 0.219 1.79 0.48 4.09 0.914 8.08 0.781 12.2h3v3c-1.32 0.33-2.64 0.66-4 1 0.506 2.17 1 4 2 6-5.75 3-5.75 3-8 3l2 4c-4.05 1.5-8.1 2.99-12.2 4.48-1.37 0.506-2.75 1.01-4.12 1.52-7.54 2.78-15.1 5.51-22.7 8.01-3.29 1.09-6.58 2.22-9.86 3.35-2.34 0.797-4.67 1.59-7.01 2.39-1.18 0.411-2.37 0.822-3.59 1.25-1.14 0.388-2.29 0.776-3.47 1.18-1.54 0.527-1.54 0.527-3.1 1.07-3.11 0.798-5.77 0.902-8.97 0.763v-3h3c-0.33-1.65-0.66-3.3-1-5-3.63-0.151-3.63-0.151-7 1-0.33-1.32-0.66-2.64-1-4-2.64 0.33-5.28 0.66-8 1-0.33-1.32-0.66-2.64-1-4 0.908 0.206 1.82 0.413 2.75 0.625 3.37 0.389 4.53 0.288 7.25-1.62 0.33-0.66 0.66-1.32 1-2-0.66-0.33-1.32-0.66-2-1 1.15-0.398 2.3-0.796 3.49-1.21 14-4.85 27.9-9.93 41.8-15 2.2-0.81 4.4-1.62 6.61-2.43 4.02-1.48 8.04-2.96 12.1-4.44 1.3-0.477 1.3-0.477 2.62-0.963 1.61-0.599 3.21-1.21 4.81-1.83 3.03-1.18 5.37-2.09 8.66-2.09-1.93-5.14-4.34-9.03-7.79-13.3-1.21-1.7-1.21-1.7-1.21-3.7h-2v-2c-0.949-0.289-1.9-0.577-2.88-0.875-3.12-1.12-3.12-1.12-5.12-3.12-2.32-0.719-4.65-1.39-7-2v-2h-2v-3c5.75-2.12 5.75-2.12 8-1z" fill="#3B74F9"/>
<path transform="translate(1434,316)" d="m0 0h76c-0.33 0.66-0.66 1.32-1 2v23h-82v-1c0.892-0.0606 1.78-0.121 2.7-0.184 1.76-0.126 1.76-0.126 3.55-0.254 1.16-0.0812 2.32-0.162 3.52-0.246 3.39-0.252 3.39-0.252 7.23-1.32v-9l3 3c0.33-0.99 0.66-1.98 1-3-2.97-0.495-2.97-0.495-6-1v-1h9c-0.33-1.98-0.66-3.96-1-6-2.02 0.0977-4.04 0.195-6.05 0.293-0.642-0.0967-1.28-0.193-1.95-0.293-0.66-0.99-1.32-1.98-2-3-3.07-0.733-3.07-0.733-6-1v-1z" fill="#3773FA"/>
<path transform="translate(1251,304)" d="m0 0c1.32 0.66 2.64 1.32 4 2v2c0.726 0.278 1.45 0.557 2.2 0.844 2.64 1.09 5.1 2.32 7.61 3.66 13.1 6.5 27.4 5.89 41.2 1.5 4.83-2.03 9.43-4.46 14-7 3.24 3.73 5.85 7.21 8.12 11.6 1.74 3.36 3.52 6.4 5.88 9.38-1.89 5.18-5.99 6.32-10.7 8.55-8.68 3.84-16.9 6.2-26.3 7.45-0.66-1.32-1.32-2.64-2-4-2.97 0.495-2.97 0.495-6 1-0.33-0.66-0.66-1.32-1-2-2.38-0.395-2.38-0.395-5.19-0.5-4.24-0.304-7.84-0.889-11.8-2.5 0.33-0.99 0.66-1.98 1-3l-4-1v-3c-1.65-0.33-3.3-0.66-5-1 0.33-0.66 0.66-1.32 1-2h4c-0.186-0.619-0.371-1.24-0.562-1.88-0.438-2.12-0.438-2.12 0.562-4.12-1.07-0.124-2.14-0.248-3.25-0.375-5.99-0.998-8.68-3.09-12.4-7.69-1.31-1.94-1.31-1.94-1.31-3.94-0.99-0.33-1.98-0.66-3-1l3-3z" fill="#3772F7"/>
<path transform="translate(72,225)" d="m0 0c0.66 0.33 1.32 0.66 2 1v6h2c0.33 1.65 0.66 3.3 1 5l2-2c0.33 5.28 0.66 10.6 1 16h2c0.242 0.652 0.485 1.3 0.734 1.98 2.33 6.09 4.6 11.4 9.27 16v4c1.48 0.495 1.48 0.495 3 1v4h2c0.268 0.804 0.536 1.61 0.812 2.44 0.392 0.846 0.784 1.69 1.19 2.56 1.48 0.495 1.48 0.495 3 1v3h2c0.634 4.04 1.12 7.91 1 12h4v2c0.99 0.495 0.99 0.495 2 1 3.42 3.42 4.98 9.39 6 14h2c0.99 1.49 0.99 1.49 2 3 0.66-0.33 1.32-0.66 2-1 0.99 0.495 0.99 0.495 2 1v2c-0.99 0.495-0.99 0.495-2 1 3.49 4 5.65 5.63 11 6 0.544 3.06 1 5.89 1 9 0.598 0.165 1.2 0.33 1.81 0.5 3.37 2.31 4.02 5.7 5.19 9.5h2v2c0.619 0.268 1.24 0.536 1.88 0.812 2.12 1.19 2.12 1.19 4.12 4.19v3h2c0.33 0.99 0.66 1.98 1 3 0.681 0.454 1.36 0.908 2.06 1.38 1.94 1.62 1.94 1.62 2.19 4.31-0.0825 0.763-0.165 1.53-0.25 2.31 0.949 0.309 1.9 0.619 2.88 0.938 3.12 1.06 3.12 1.06 5.12 2.06 0.333 1.33 0.667 2.67 1 4 0.66 0.33 1.32 0.66 2 1 0.66 0.99 1.32 1.98 2 3 2.24 2.36 4.35 4.56 7.06 6.38 1.99 1.67 2.69 2.86 3.88 5.12 1.8 3.4 3.71 4.6 7.06 6.5 0.362 1.33 0.697 2.66 1 4 1.88 1.11 1.88 1.11 4 2 2.39 2.03 2.98 2.93 4 6 0.66 0.33 1.32 0.66 2 1v2c1.65 0.66 3.3 1.32 5 2-0.33 0.66-0.66 1.32-1 2 1.32 0.66 2.64 1.32 4 2v2c1.98-0.33 3.96-0.66 6-1 0.124 0.578 0.248 1.15 0.375 1.75 0.543 2.29 0.543 2.29 1.75 4.31 0.875 1.94 0.875 1.94-0.125 4.94 0.578 0.103 1.16 0.206 1.75 0.312 2.61 0.796 4.22 1.88 6.25 3.69v2c1.11 0.0825 2.23 0.165 3.38 0.25l3.62 0.75c1.12 2 1.12 2 2 4 2.56 0.812 2.56 0.812 5 1v2h4c0.99 3.47 0.99 3.47 2 7h9c0.33 0.66 0.66 1.32 1 2-8.27 0.547-14 0.217-20.5-5.25-3.42-3.02-6.72-6.16-10-9.32-3.91-3.72-7.98-7.25-12.3-10.6-2.25-1.88-2.25-1.88-4.06-4.19-1.85-2.28-3.56-3.94-5.78-5.82-4.58-3.96-8.84-8.19-13.1-12.5-0.733-0.737-1.47-1.47-2.22-2.23-1.41-1.42-2.82-2.84-4.23-4.26-2.86-2.89-5.73-5.77-8.64-8.62-3.05-3-5.95-6.06-8.73-9.32-2.7-3.15-5.53-5.79-8.82-8.32-2.33-2.25-3.89-4.92-5.68-7.62-1.53-1.76-3.09-3.49-4.69-5.19-8.76-9.52-16.6-19.6-24.1-30.1-1.01-1.4-2.03-2.8-3.05-4.2-11-15.4-20.4-31.8-29.2-48.5-0.406-0.752-0.812-1.5-1.23-2.28-1.88-3.57-2.77-5.61-2.77-9.72h-2c-2.06-4.98-4.05-9.98-6-15-0.261-0.667-0.522-1.33-0.791-2.02-3.02-7.83-5.21-14.6-3.21-23z" fill="#3979FA"/>
<path transform="translate(220,215)" d="m0 0c1.65 0.281 3.29 0.575 4.94 0.875 1.37 0.244 1.37 0.244 2.78 0.492 0.754 0.209 1.51 0.418 2.29 0.633 0.495 0.99 0.495 0.99 1 2h-2v19h-2c0.0232 0.82 0.0464 1.64 0.0703 2.48 0.018 1.08 0.0361 2.16 0.0547 3.27 0.0232 1.07 0.0464 2.13 0.0703 3.23-0.193 2.97-0.521 4.58-2.2 7.02-1.66 0.688-3.32 1.36-5 2-0.33 0.99-0.66 1.98-1 3-0.33-0.66-0.66-1.32-1-2h-2v2c-7.26 0.33-14.5 0.66-22 1 1.49-0.495 1.49-0.495 3-1l1-6c-2.31-0.66-4.62-1.32-7-2v-2c-0.66 0.66-1.32 1.32-2 2v-3h-2c-0.33 0.99-0.66 1.98-1 3-1.22-2.45-1.17-4.14-1.19-6.88-0.0142-0.864-0.0284-1.73-0.043-2.62 0.245-2.67 0.794-4.26 2.23-6.51 0.66-0.33 1.32-0.66 2-1 0.561-2.28 0.892-4.55 1.24-6.87 0.758-2.13 0.758-2.13 2.58-3.41 2.18-0.715 2.18-0.715 6.18-0.715v-3h2c0.33-0.99 0.66-1.98 1-3h17c0.33-0.66 0.66-1.32 1-2z" fill="#3370FA"/>
<path transform="translate(1476,225)" d="m0 0v6c2.31 0.33 4.62 0.66 7 1 0.124 0.639 0.247 1.28 0.375 1.94 0.206 0.681 0.412 1.36 0.625 2.06 0.66 0.33 1.32 0.66 2 1-1.28 2.17-2.58 4.34-3.88 6.5-0.365 0.62-0.73 1.24-1.11 1.88-0.952 1.57-1.98 3.1-3.02 4.62h-2c-0.247 0.701-0.495 1.4-0.75 2.12-1.42 3.27-3.12 6.02-5.25 8.88h-2c-0.66 1.98-1.32 3.96-2 6h-2c-0.264 0.728-0.529 1.46-0.801 2.21-1.21 2.81-2.6 5.01-4.39 7.48-0.616 0.862-1.23 1.72-1.87 2.61-0.642 0.891-1.28 1.78-1.95 2.7-1.27 1.79-2.55 3.58-3.81 5.38-0.563 0.791-1.13 1.58-1.71 2.4-1.35 2.02-2.45 4.03-3.48 6.23h-2c-0.247 0.742-0.495 1.49-0.75 2.25-1.34 2.95-2.86 4.6-5.25 6.75-0.99-0.33-1.98-0.66-3-1-2.12 0.238-2.12 0.238-4 1-0.495 0.99-0.495 0.99-1 2h-2v-2h-3c0.33-1.32 0.66-2.64 1-4h3c-0.33-0.66-0.66-1.32-1-2-0.99 0.495-0.99 0.495-2 1 0.66-4.29 1.32-8.58 2-13h3c-0.33 2.64-0.66 5.28-1 8 0.66-2.97 1.32-5.94 2-9h5c0.495-2.97 0.495-2.97 1-6-1.32-0.33-2.64-0.66-4-1h4v-2c-1.48 0.495-1.48 0.495-3 1-0.33-0.66-0.66-1.32-1-2 0.619-0.577 1.24-1.15 1.88-1.75 1.94-2.05 3.03-3.68 4.12-6.25v3h2c-0.495-2.48-0.495-2.48-1-5 3.69-1.23 6.21-0.644 10 0-0.33-0.99-0.66-1.98-1-3 1.47-2.39 2.48-3.74 5-5 0.247-0.99 0.247-0.99 0.5-2 0.165-0.66 0.33-1.32 0.5-2 0.66-0.33 1.32-0.66 2-1 0.652-2.02 0.652-2.02 1-4h2c0.495-1.49 0.495-1.49 1-3v3c0.495-1.49 0.495-1.49 1-3h2v-9h-1v-5c0.99 0.33 1.98 0.66 3 1-0.495-1.49-0.495-1.49-1-3 0.66-0.33 1.32-0.66 2-1 0.33-0.66 0.66-1.32 1-2 3-2 3-2 7-2z" fill="#3773FA"/>
<path transform="translate(325 19.1)" d="m0 0c2.98 0.818 4.89 1.85 7.37 3.65 2.27 1.53 4.64 2.76 7.07 4.04 5.5 2.97 11 6.15 15.8 10.2v2c0.536 0.0619 1.07 0.124 1.62 0.188 3.55 1.21 5.63 3.26 8.38 5.81v2c0.557 0.227 1.11 0.454 1.69 0.688 2.97 1.69 5.03 3.78 7.31 6.31v2c1.32 0.66 2.64 1.32 4 2v2c0.889 0.387 0.889 0.387 1.8 0.781 2.38 1.32 3.71 2.64 5.45 4.72 0.781 0.913 0.781 0.913 1.58 1.84 1.17 1.66 1.17 1.66 1.17 3.66h2c1.29 1.46 1.29 1.46 2.62 3.38 0.446 0.626 0.892 1.25 1.35 1.9 1.02 1.73 1.02 1.73 1.02 3.73-0.99 0.66-1.98 1.32-3 2v2c-3.83 0.219-6.58-0.197-10-2-0.33-0.99-0.66-1.98-1-3-2.83-1.63-2.83-1.63-6-3-1.33-0.667-2.67-1.33-4-2v-3h3v-3l-2-1h2v-2c-0.908 0.0825-1.82 0.165-2.75 0.25-3.25-0.25-3.25-0.25-5.62-2.12-1.62-2.12-1.62-2.12-1.62-4.12-1.65-0.33-3.3-0.66-5-1v-3c-0.784 0.206-1.57 0.412-2.38 0.625-0.866 0.124-1.73 0.248-2.62 0.375-2-2-2-2-3-5-2.1-1.02-2.1-1.02-4.56-1.69-0.826-0.251-1.65-0.503-2.5-0.762-0.638-0.182-1.28-0.364-1.93-0.551 0.33-1.32 0.66-2.64 1-4-0.804-0.289-1.61-0.578-2.44-0.875-2.56-1.12-2.56-1.12-3.56-3.12-1.98-0.731-3.98-1.39-6-2-0.99-0.33-1.98-0.66-3-1h2v-2c-2.97-0.495-2.97-0.495-6-1v-1c-3.63-0.33-7.26-0.66-11-1 0.33-1.32 0.66-2.64 1-4 2.31 0.66 4.62 1.32 7 2 0.778-2.3 0.778-2.3 1-5-1.33-2.31-1.33-2.31-3-4 3-2 3-2 5.81-1.88z" fill="#3B76FB"/>
<path transform="translate(178,212)" d="m0 0h2c1.45 4.54 2.24 8.18 2 13h2c-0.33 1.26-0.66 2.52-1 3.81-1.22 5.42-1.19 10.7-1 16.2 0.33-1.65 0.66-3.3 1-5 0.66 0.33 1.32 0.66 2 1 0.414 2.07 0.414 2.07 0.625 4.56 0.0748 0.826 0.15 1.65 0.227 2.5 0.0735 0.957 0.0735 0.957 0.148 1.93 0.33-0.66 0.66-1.32 1-2 2.44 0.375 2.44 0.375 5 1 0.33 0.66 0.66 1.32 1 2 1.98 0.727 3.98 1.4 6 2-0.66 1.98-1.32 3.96-2 6h19v-2c-0.99-0.33-1.98-0.66-3-1h6v2c0.454-0.495 0.908-0.99 1.38-1.5 1.62-1.5 1.62-1.5 3.62-1.5 0.33-0.99 0.66-1.98 1-3l1-2c0.229-2.04 0.41-4.08 0.562-6.12 0.0838-1.1 0.168-2.19 0.254-3.32 0.0909-1.26 0.0909-1.26 0.184-2.55 2 2 2 2 2.24 3.86-0.00411 0.741-0.00822 1.48-0.0125 2.25-0.00193 0.819-0.00387 1.64-0.00586 2.48l-0.0371 2.6c-6.45e-4 0.839-0.00129 1.68-0.00195 2.54-0.034 4.84-0.125 9.54-1.19 14.3-3.09 2.06-3.8 2.26-7.3 2.31-0.865 0.016-1.73 0.032-2.62 0.0484-0.931 0.00536-1.86 0.0107-2.82 0.0163-1.44 0.0135-1.44 0.0135-2.91 0.0274-2.03 0.0145-4.07 0.0234-6.1 0.0271-3.11 0.0119-6.21 0.0611-9.32 0.112-1.98 0.00946-3.95 0.0167-5.93 0.0215-0.927 0.0195-1.85 0.0391-2.81 0.0592-4.59-0.032-6.55-0.106-10.3-3.03-3.19-4.27-3.03-7.29-2.89-12.5 0.0189-0.79 0.0377-1.58 0.0572-2.39 0.0419-1.68 0.0867-3.36 0.134-5.04 0.0693-2.53 0.124-5.06 0.178-7.59 0.219-8.86 0.738-17.4 2.58-26.1z" fill="#3773FA"/>
<path transform="translate(296,56)" d="m0 0h5c0.33 1.32 0.66 2.64 1 4 3.3 0.33 6.6 0.66 10 1 0.33 0.99 0.66 1.98 1 3 3 1.71 3 1.71 6 3v2c2.31 0.66 4.62 1.32 7 2v3h3c0.99 0.66 1.98 1.32 3 2v3c0.619 0.103 1.24 0.206 1.88 0.312 2.12 0.688 2.12 0.688 4.12 3.69v2c1.29 0.697 2.58 1.38 3.88 2.06 0.719 0.383 1.44 0.766 2.18 1.16 0.642 0.257 1.28 0.513 1.95 0.777 0.66-0.33 1.32-0.66 2-1 2.91 3.29 4.5 5.6 5 10 1.49 0.495 1.49 0.495 3 1 2.22 3.7 3 5.63 3 10 1.49 0.495 1.49 0.495 3 1v2h2c0.99 2.97 0.99 2.97 2 6 0.66-0.33 1.32-0.66 2-1v7c0.619 0.103 1.24 0.206 1.88 0.312 2.12 0.688 2.12 0.688 4.12 3.69-0.99 0.495-0.99 0.495-2 1 0.619 1.13 1.24 2.27 1.88 3.44 3.69 7.44 4.42 15.4 5.62 23.6 0.574 3.43 1.54 6.67 2.5 10 1.21 6.96 1.11 14 1 21-3.19-4.78-4.34-7.79-4.81-13.4-1.93-18.8-7.49-36.3-17.2-52.6-0.473-0.821-0.946-1.64-1.43-2.49-3.95-6.76-8.35-12.9-13.4-18.9-2.12-2.62-2.12-2.62-2.12-4.62-0.878-0.381-0.878-0.381-1.77-0.77-2.46-1.36-3.95-2.85-5.85-4.92-4.76-4.91-10.2-9.24-16.4-12.3v-2c-0.804-0.227-1.61-0.454-2.44-0.688-2.85-1.05-5.14-2.13-7.75-3.62-7.66-4.35-15.4-7.82-23.9-10-1.9-0.676-1.9-0.676-2.9-2.68h13v-2z" fill="#3979FA"/>
<path transform="translate(251,209)" d="m0 0h4c0.33 0.66 0.66 1.32 1 2 1.42-0.0619 1.42-0.0619 2.88-0.125 3.12 0.125 3.12 0.125 5.12 2.12h-5v3c1.98-0.66 3.96-1.32 6-2v-4c3.3-0.33 6.6-0.66 10-1 0.125 7.63 0.125 7.63-1 11h-2c0.495 2.47 0.495 2.47 1 5 0.33-1.32 0.66-2.64 1-4 0.682 5.37 1.12 10.6 1 16 0.66-0.33 1.32-0.66 2-1v2c0.99 0.33 1.98 0.66 3 1v3c-1.32 0.66-2.64 1.32-4 2v5c0.99-0.33 1.98-0.66 3-1 0.66 1.65 1.32 3.3 2 5h4v2l-4 1v3l-2 1c2.31 0.33 4.62 0.66 7 1 0.33 0.99 0.66 1.98 1 3 3.3 0.33 6.6 0.66 10 1-5.46 3.64-11.8 3.21-18.1 3.25-0.798 0.0206-1.6 0.0412-2.42 0.0625-0.772 0.00516-1.54 0.0103-2.34 0.0156-1.04 0.014-1.04 0.014-2.11 0.0283-2.96-0.524-4.03-1.04-6.01-3.36-0.686-3.26-0.722-6.52-0.793-9.85-0.0364-0.968-0.0727-1.94-0.11-2.93-0.113-3.09-0.2-6.19-0.284-9.28-0.101-3.1-0.206-6.2-0.316-9.29-0.0668-1.93-0.127-3.86-0.18-5.79-0.0271-0.871-0.0541-1.74-0.082-2.64-0.0212-0.768-0.0425-1.54-0.0644-2.33-0.061-1.98-0.061-1.98-1.17-3.89-2.58-0.691-2.58-0.691-5.56-1.12-1.01-0.168-2.02-0.335-3.07-0.508-0.782-0.121-1.56-0.242-2.37-0.367-0.33-0.99-0.66-1.98-1-3-5.94-0.33-11.9-0.66-18-1v-1c5.7-0.642 11.3-1.12 17-1 0.33-0.66 0.66-1.32 1-2z" fill="#3874FB"/>
<path transform="translate(348,362)" d="m0 0c-1.38 2-1.38 2-3 4h-2c-0.274 0.596-0.547 1.19-0.829 1.81-1.13 2.12-2.26 3.57-3.9 5.3-0.548 0.582-1.1 1.16-1.66 1.76-0.889 0.929-0.889 0.929-1.8 1.88-1.27 1.34-2.54 2.68-3.8 4.02-0.658 0.693-1.32 1.39-2 2.1-2 2.11-3.98 4.23-5.96 6.35-17.3 18.6-17.3 18.6-26.3 26.3-1.65 1.44-3.2 2.94-4.73 4.51-0.66-0.33-1.32-0.66-2-1 1.32-2.64 2.64-5.28 4-8 1.32 0.33 2.64 0.66 4 1-0.33-1.32-0.66-2.64-1-4-1.65-0.33-3.3-0.66-5-1 0-4 0-4 1.56-5.69 2.44-1.31 2.44-1.31 6-1.75 3.41-0.249 3.41-0.249 5.31-2.19 3.02-6.38 2.18-13.6 2.06-20.5 0.0625-2.91 0.0625-2.91 1.06-3.91 2-0.0408 4-0.0425 6 0v-2c7.24-3.27 7.24-3.27 10.1-2.25 0.928 0.619 0.928 0.619 1.88 1.25 1.99 0.383 3.99 0.726 6 1-0.495-1.49-0.495-1.49-1-3 0.99-0.99 1.98-1.98 3-3 0.66 0.33 1.32 0.66 2 1-0.495-1.49-0.495-1.49-1-3 1.41-0.366 2.83-0.717 4.25-1.06 0.789-0.197 1.58-0.394 2.39-0.598 2.46-0.355 4.02-0.109 6.36 0.66z" fill="#3773FA"/>
<path transform="translate(262 134)" d="m0 0c1.88 1.25 1.88 1.25 2.62 3.88 0.124 1.18 0.124 1.18 0.25 2.38h2c0.33-0.66 0.66-1.32 1-2 0.66 0.33 1.32 0.66 2 1 0.103 0.639 0.206 1.28 0.312 1.94 0.227 0.681 0.454 1.36 0.688 2.06 1.66 0.681 3.33 1.35 5 2 1.31 2.12 1.31 2.12 2 4h3c0.248 0.763 0.495 1.53 0.75 2.31 1.39 2.99 2.63 3.8 5.25 5.69 0.697 1.32 1.37 2.65 2 4 0.66 0.33 1.32 0.66 2 1v3h3v5c1.58 0.278 1.58 0.278 3.19 0.562 4.11 1.13 5.61 3.34 7.77 6.88 0.971 1.73 0.971 1.73 3.04 2.56 0.33-0.99 0.66-1.98 1-3 1.32 0.99 2.64 1.98 4 3-0.99 0.33-1.98 0.66-3 1 0.474 0.701 0.949 1.4 1.44 2.12 1.65 3.04 2.17 5.47 2.56 8.88 0.99-0.33 1.98-0.66 3-1 2 2 2 2 4 5h3c3 3.33 3 3.33 3 6h8c-0.66 1.98-1.32 3.96-2 6h4c0.33 0.66 0.66 1.32 1 2h8c-3.62 5.75-3.62 5.75-7 8-6.94-0.438-11.5-6.29-16-11.1-1.13-1.29-2.24-2.59-3.34-3.91-2.12-2.44-4.4-4.69-6.7-6.96-13.6-13.4-13.6-13.4-18.4-19.2-2.08-2.37-4.32-4.56-6.56-6.78-10.9-10.8-10.9-10.8-14.2-14.8-2.42-2.92-5.11-5.24-8.02-7.65-2.35-2.09-4.3-4.43-6.3-6.86-2.01-2.37-4.19-4.52-6.42-6.68 3.76-2.21 5.07-1.68 9.12-0.25z" fill="#3979FA"/>
<path transform="translate(247,140)" d="m0 0c0.33 0.66 0.66 1.32 1 2h3c1.65 1.57 1.65 1.57 3.38 3.69 2.08 2.5 4.14 4.89 6.5 7.12 2.12 2.19 2.12 2.19 3.12 5.19 0.577 0.289 1.15 0.577 1.75 0.875 5.84 2.92 10 9.23 14.2 14.1l-1 2h-5c-0.33 0.99-0.66 1.98-1 3-5.66-2.46-5.66-2.46-7.38-5.19-0.206-0.598-0.413-1.2-0.625-1.81h-2v-2c-1.98-0.66-3.96-1.32-6-2v-4h-2.15-8.85v1c-3.96-0.33-7.92-0.66-12-1v-4c-2.87 0.573-3.86 0.861-6 3-0.66-0.33-1.32-0.66-2-1 1.57-3.84 4.02-6.16 7-9 0.784-0.804 1.57-1.61 2.38-2.44 7.88-7.69 7.88-7.69 11.6-9.56z" fill="#3A74F8"/>
<path transform="translate(317,131)" d="m0 0c0.0198 0.579 0.0396 1.16 0.0601 1.75 0.453 15.2 0.453 15.2 2.94 30.2-2.89 0.826-4.89 1-8 1-0.66 0.99-1.32 1.98-2 3-0.66-1.32-1.32-2.64-2-4-0.99 0.66-1.98 1.32-3 2-1.32-2.64-2.64-5.28-4-8h-4v-2h-3c-0.124-0.639-0.248-1.28-0.375-1.94-0.206-0.681-0.413-1.36-0.625-2.06-0.66-0.33-1.32-0.66-2-1 1-3 1-3 2.75-4.19 2.55-0.921 4.56-0.962 7.25-0.812 0.66-1.98 1.32-3.96 2-6h3c-0.33-1.32-0.66-2.64-1-4 3.46-0.495 3.46-0.495 7-1v4c0.289-0.969 0.577-1.94 0.875-2.94 1.49-4.06 1.49-4.06 4.12-4.06z" fill="#3874FB"/>
<path transform="translate(224 172)" d="m0 0c2.56 0.188 2.56 0.188 4.56 2.19v4c-0.33 0.33-0.66 0.66-1 1 1.32 0.33 2.64 0.66 4 1-2.65 1.46-3.89 2-7 2 0.0619 1.09 0.124 2.19 0.188 3.31-0.188 3.69-0.188 3.69-1.5 5.56-1.69 1.12-1.69 1.12-4.69 2.12-0.66 0.99-1.32 1.98-2 3-3.12 0.688-3.12 0.688-6 1-1 3.58-1 3.58 0 7-3.47 0.495-3.47 0.495-7 1-0.33 0.99-0.66 1.98-1 3h-5c-0.33 0.66-0.66 1.32-1 2h-2c-0.44-6.01 1.36-9.71 4-15-1.32-0.66-2.64-1.32-4-2 1-2 1-2 4.06-3.12 1.45-0.433 1.45-0.433 2.94-0.875-0.33 1.98-0.66 3.96-1 6h2v-2c1.64-1.37 3.31-2.7 5-4 1.02-0.982 2.03-1.97 3-3 0.99 0.33 1.98 0.66 3 1 0.33-1.65 0.66-3.3 1-5h2v-2h3c0.144-1.13 0.289-2.27 0.438-3.44 0.71-4.5 0.71-4.5 4-4.75z" fill="#3B75FB"/>
<path transform="translate(129,125)" d="m0 0c-0.747 3.66-2.22 6.85-3.75 10.2-8.71 19.9-10.6 39.2-11.2 60.8-2.75-3.42-3.46-5.52-3.75-9.94-0.0773-1.02-0.155-2.04-0.234-3.09-0.0149-2.83 0.319-5.24 0.984-7.97-0.639-0.309-1.28-0.619-1.94-0.938-2.06-1.06-2.06-1.06-3.06-2.06-0.125-3.24-0.187-6.21 0.562-9.38 0.55-3.3 0.0952-6.15-0.406-9.44-0.165-2.3 0.168-3.99 0.844-6.18h2v4c0.66-3.3 1.32-6.6 2-10h5c3.92-2 5.64-3.16 7.38-7.25 0.309-1.36 0.309-1.36 0.625-2.75-0.99-0.99-1.98-1.98-3-3 0.33-0.66 0.66-1.32 1-2 2.39-0.612 4.54-1 7-1z" fill="#3874FB"/>
<path transform="translate(385,98)" d="m0 0h2c0.474 0.495 0.949 0.99 1.44 1.5 1.56 1.85 1.56 1.85 4.56 1.5 0.99 1.48 0.99 1.48 2 3h4c0.248 0.969 0.495 1.94 0.75 2.94 0.413 1.01 0.825 2.02 1.25 3.06 2.03 0.969 2.03 0.969 4 1v5c-0.99-0.66-1.98-1.32-3-2h-4v15h-2c-0.33 1.32-0.66 2.64-1 4h-4c0.99 0.33 1.98 0.66 3 1v3h-6c0.0206-0.887 0.0412-1.77 0.0625-2.69 0.0538-3.19 0.0538-3.19-0.625-5.75-0.573-3.35 0.00594-6.22 0.562-9.56v-3c-0.99 0.66-1.98 1.32-3 2-2-1-2-1-3.12-3.56-1.05-4.12-1.23-7.19-0.875-11.4 0.99-0.66 1.98-1.32 3-2 0.33-0.99 0.66-1.98 1-3z" fill="#3370FA"/>
<path transform="translate(149,186)" d="m0 0h4v4c0.66 0.33 1.32 0.66 2 1l-2 2c0.99 0.33 1.98 0.66 3 1v3h5c0 3.13-0.401 5.94-1 9l-1 1h6c0.474 4.08 0.31 5.58-2.19 8.94-2.81 2.06-2.81 2.06-5.31 2.19-3.28-1.48-5.09-3.47-7.5-6.12-1.24-1.24-1.24-1.24-2.5-2.5-0.825-0.825-1.65-1.65-2.5-2.5-1.39-1.24-1.39-1.24-2.81-2.5-2.19-2.5-2.19-2.5-2.81-4.94 0.938-3.85 2.86-5.74 5.62-8.56h2c0.66-1.65 1.32-3.3 2-5z" fill="#3B75FB"/>
<path transform="translate(178,212)" d="m0 0h2c1.45 4.54 2.24 8.18 2 13h2c-0.33 1.26-0.66 2.52-1 3.81-1.22 5.42-1.19 10.7-1 16.2 0.33-1.65 0.66-3.3 1-5h1c0.0606 1.02 0.121 2.05 0.184 3.11 0.0845 1.36 0.169 2.72 0.254 4.08 0.0393 0.674 0.0786 1.35 0.119 2.04 0.233 3.67 0.615 7.19 1.44 10.8h6v6c0.897-0.34 0.897-0.34 1.81-0.688 1.08-0.155 1.08-0.155 2.19-0.312 1.64 1.48 1.64 1.48 3 3-2.9 0.135-5.79 0.234-8.69 0.312-0.817 0.0419-1.63 0.0838-2.47 0.127-4.47 0.0904-6.24 0.0368-9.86-2.83-3.25-4.27-3.07-7.28-2.93-12.5 0.0189-0.79 0.0377-1.58 0.0572-2.39 0.0419-1.68 0.0867-3.36 0.134-5.04 0.0693-2.53 0.124-5.06 0.178-7.59 0.219-8.86 0.738-17.4 2.58-26.1z" fill="#3B75FB"/>
<path transform="translate(204,130)" d="m0 0h3c-0.33 2.97-0.66 5.94-1 9h-5c-0.66 3.3-1.32 6.6-2 10h-4c-0.465 4.79-0.465 4.79 1.5 8.94 0.743 0.526 0.743 0.526 1.5 1.06-0.99 2.47-0.99 2.47-2 5-1.65 0.0269-3.29 0.0463-4.94 0.0625-0.917 0.0116-1.83 0.0232-2.78 0.0352-2.29-0.0977-2.29-0.0977-3.29-1.1-0.66 0.99-1.32 1.98-2 3-3.12 0.188-3.12 0.188-6 0-0.33-0.66-0.66-1.32-1-2-0.99-0.66-1.98-1.32-3-2l10-10c0.763-0.764 1.53-1.53 2.31-2.32 1.8-1.79 3.6-3.58 5.41-5.37 0.918-0.909 1.84-1.82 2.78-2.75 0.483-0.479 0.967-0.957 1.46-1.45 2.5-2.5 4.86-5.02 7.04-7.8 0.66-0.763 1.32-1.53 2-2.31z" fill="#3A73F7"/>
<path transform="translate(908,202)" d="m0 0h6c-0.99 0.33-1.98 0.66-3 1 0.00138 0.983 0.00138 0.983 0.00279 1.99 0.0221 16 0.0387 32 0.049 48 0.00515 7.73 0.0122 15.5 0.0236 23.2 0.01 6.74 0.0164 13.5 0.0186 20.2 0.0013 3.57 0.00433 7.13 0.0116 10.7 0.00811 3.99 0.00826 7.98 0.0078 12 0.0036 1.17 0.00719 2.34 0.0109 3.55-0.00818 6.54-0.319 12.9-1.12 19.4h-2v-140z" fill="#05070C"/>
<path transform="translate(311,383)" d="m0 0c5.44-0.218 9.87-0.104 15 2-4.28 6.09-9.07 11.3-14.4 16.6-0.717 0.716-1.43 1.43-2.17 2.17-4.11 4.07-8.32 7.98-12.7 11.7-1.65 1.45-3.21 2.96-4.74 4.53-0.66-0.33-1.32-0.66-2-1 1.32-2.64 2.64-5.28 4-8 1.32 0.33 2.64 0.66 4 1-0.33-1.32-0.66-2.64-1-4-1.65-0.33-3.3-0.66-5-1 0-4 0-4 1.56-5.69 2.44-1.31 2.44-1.31 6-1.75 3.43-0.235 3.43-0.235 5.31-2.31 1.21-2.43 1.75-4.57 2.12-7.25 2.48 0.495 2.48 0.495 5 1 0-3.11-0.174-5.11-1-8z" fill="#3874FB"/>
<path transform="translate(1388,191)" d="m0 0c2.04 1.69 2.92 2.64 3.51 5.26 0.058 0.801 0.116 1.6 0.176 2.43 0.0657 0.808 0.131 1.62 0.199 2.45 0.0374 0.615 0.0748 1.23 0.113 1.86h2c1.33 2.67 2.67 5.33 4 8 0.969-0.186 1.94-0.371 2.94-0.562 1.52-0.217 1.52-0.217 3.06-0.438 1.78 1.78 1 4.6 1 7 0.217 2.21 0.217 2.21 1 4 0.99 0.66 1.98 1.32 3 2-0.33 0.99-0.66 1.98-1 3-6.69-0.167-11.2-1.27-16-6-0.583-0.549-1.17-1.1-1.77-1.66-6.35-7.44-4.74-17.2-4.23-26.3 0.66-0.33 1.32-0.66 2-1z" fill="#3773FA"/>
<path transform="translate(1301,216)" d="m0 0v3c5.44-0.495 5.44-0.495 11-1 0.33 0.99 0.66 1.98 1 3l1.56 1.56c0.474 0.474 0.949 0.949 1.44 1.44v2c0.66 0.33 1.32 0.66 2 1 0.722 1.64 1.39 3.31 2 5 1.11 0.0825 2.23 0.165 3.38 0.25 3.62 0.75 3.62 0.75 5 2.69 0.206 0.681 0.412 1.36 0.625 2.06 0.495 0.99 0.495 0.99 1 2-1.32-0.33-2.64-0.66-4-1 0.0722 0.592 0.144 1.18 0.219 1.79 0.48 4.09 0.914 8.08 0.781 12.2h3v3h-2v-2c-1.98 0.495-1.98 0.495-4 1 0.186-0.763 0.371-1.53 0.562-2.31 0.666-2.78 0.666-2.78-0.562-5.69h-2c-1.41-1.86-2.73-3.79-4-5.75-0.701-1.07-1.4-2.13-2.12-3.23-1.44-2.31-2.73-4.56-3.88-7.02h-2v-2c-0.949-0.289-1.9-0.577-2.88-0.875-3.12-1.12-3.12-1.12-5.12-3.12-2.32-0.719-4.65-1.39-7-2v-2h-2v-3c5.75-2.12 5.75-2.12 8-1z" fill="#3B75FB"/>
<path transform="translate(1208,277)" d="m0 0c0.99 0.33 1.98 0.66 3 1 1.25 3.48 1.97 6.77 2.44 10.4 0.787 4.98 1.93 9.93 5.56 13.6 0.852 1.88 0.852 1.88 1.62 4 0.26 0.701 0.521 1.4 0.789 2.12 0.586 1.88 0.586 1.88 0.586 3.88 0.835 0.278 0.835 0.278 1.69 0.562 3.38 2.1 5.16 5.14 7.31 8.44l2-1c1.15 0.93 2.3 1.87 3.44 2.81 0.638 0.522 1.28 1.04 1.93 1.58 1.63 1.61 1.63 1.61 2.63 4.61-0.495 0.99-0.495 0.99-1 2 0.578-0.186 1.15-0.371 1.75-0.562 2.51-0.487 3.87-0.311 6.25 0.562 0.66 0.66 1.32 1.32 2 2 1.96 0.888 1.96 0.888 4.12 1.62 0.724 0.26 1.45 0.521 2.2 0.789 0.831 0.29 0.831 0.29 1.68 0.586v4c-5.44-0.492-9.2-1.88-13.9-4.56-1.14-0.641-2.29-1.28-3.46-1.94-0.857-0.494-1.71-0.987-2.6-1.5v-2c-0.724-0.237-1.45-0.474-2.2-0.719-10.7-4.89-19.5-18.5-23.8-29.3-2.62-7.58-3.6-15-4-23z" fill="#3979FA"/>
<path transform="translate(279,180)" d="m0 0h8c0.248 0.619 0.495 1.24 0.75 1.88 1.05 2.24 1.05 2.24 3.11 3.02 2.53 1.31 3.83 2.8 5.64 4.98 2.4 2.84 4.82 5.55 7.5 8.12-0.66 0.33-1.32 0.66-2 1v-2c-0.66 0.33-1.32 0.66-2 1 0.33 0.33 0.66 0.66 1 1 0.0408 2 0.0425 4 0 6 0.99 0.33 1.98 0.66 3 1v6c-0.99-0.33-1.98-0.66-3-1v-3c-1.32-0.33-2.64-0.66-4-1v-5c-0.681-0.165-1.36-0.33-2.06-0.5-3.05-1.56-4.23-2.84-6.38-5.44-2.88-3.47-5.34-5.33-9.56-7.06-0.99-0.66-1.98-1.32-3-2 0.33-1.32 0.66-2.64 1-4h2v-3z" fill="#3773FA"/>
<path transform="translate(257,152)" d="m0 0c4.73 1.49 4.73 1.49 6.06 4 0.309 0.66 0.619 1.32 0.938 2 1.32 0.685 2.66 1.35 4 2 4.35 4 8.15 8.53 12 13-0.33 0.66-0.66 1.32-1 2h-5c-0.33 0.99-0.66 1.98-1 3-5.66-2.46-5.66-2.46-7.38-5.19-0.206-0.598-0.413-1.2-0.625-1.81h-2v-2c-1.98-0.66-3.96-1.32-6-2v-4h-6c0.66-0.33 1.32-0.66 2-1-0.66-1.32-1.32-2.64-2-4 1.65-0.33 3.3-0.66 5-1 0.33-1.65 0.66-3.3 1-5z" fill="#3773FA"/>
<path transform="translate(274,230)" d="m0 0c0.33 2.31 0.66 4.62 1 7 0.66-0.33 1.32-0.66 2-1v2c0.99 0.33 1.98 0.66 3 1v3l-4 2v5c0.99-0.33 1.98-0.66 3-1 0.66 1.65 1.32 3.3 2 5h4v2c-1.32 0.33-2.64 0.66-4 1v3c-0.66 0.33-1.32 0.66-2 1 2.31 0.33 4.62 0.66 7 1 0.33 0.99 0.66 1.98 1 3 3.3 0.33 6.6 0.66 10 1-5.5 3.67-11.6 3.13-18 3v-3h-3v-5h-2c-2-5.75-2-5.75-2-8-0.324-1.31-0.659-2.63-1-3.94-1.18-5.24-1.85-10.7-1-16.1 3-2 3-2 4-2z" fill="#3773FA"/>
<path transform="translate(216,411)" d="m0 0c1.96 0.871 1.96 0.871 4 2 0.362 1.33 0.697 2.66 1 4 0.99 0.33 1.98 0.66 3 1 0.33-0.33 0.66-0.66 1-1 0.33 0.66 0.66 1.32 1 2 0.99 0.33 1.98 0.66 3 1 4 4 4 4 4 7 0.619 0.103 1.24 0.206 1.88 0.312 2.12 0.688 2.12 0.688 4.12 3.69 0.639 0.309 1.28 0.619 1.94 0.938 2.55 1.31 3.61 2.6 5.06 5.06v4c-8.48 0.326-8.48 0.326-11-2-0.651-2.7-0.82-5.2-1-8-1.67 0.0619-1.67 0.0619-3.38 0.125-3.62-0.125-3.62-0.125-5.62-2.12-0.784-0.248-1.57-0.495-2.38-0.75-3.74-1.78-4.83-3.52-6.62-7.25-0.316-3.36-0.239-6.63 0-10z" fill="#3874FB"/>
<path transform="translate(268,225)" d="m0 0c2.36 2.36 2.25 2.86 2.31 6.07 0.0251 0.815 0.0503 1.63 0.0762 2.47 0.0347 1.7 0.066 3.4 0.0938 5.1 0.185 5.76 1.3 10 3.52 15.4v6h2c0.33-0.66 0.66-1.32 1-2-0.33 2.31-0.66 4.62-1 7h3v3c-1.42 0.0817-2.83 0.139-4.25 0.188-1.18 0.0522-1.18 0.0522-2.39 0.105-3.02-0.375-4.19-1.17-6.36-3.29-0.47-2.59-0.47-2.59-0.426-5.66 0.00838-1.1 0.0168-2.21 0.0254-3.35 0.029-1.15 0.058-2.31 0.0879-3.5 0.00967-1.15 0.0193-2.31 0.0293-3.5 0.114-8.5 0.114-8.5 1.28-12 0.223-2.06 0.407-4.12 0.562-6.19 0.0838-1.09 0.168-2.17 0.254-3.29 0.0606-0.831 0.121-1.66 0.184-2.52z" fill="#3C76FC"/>
<path transform="translate(310,253)" d="m0 0h4c2.48 4.45 2.48 4.45 5 9-1.39 2.98-1.39 2.98-4 6-3.27 0.767-6.41 0.567-9.75 0.375-0.888-0.0271-1.78-0.0541-2.69-0.082-2.19-0.0706-4.37-0.169-6.56-0.293 1.18-0.897 1.18-0.897 2.38-1.81 2.62-2.18 4.11-4.15 5.62-7.19 2.56-0.625 2.56-0.625 5-1 0.33-1.65 0.66-3.3 1-5z" fill="#3874FB"/>
<path transform="translate(311,383)" d="m0 0c5.44-0.218 9.87-0.104 15 2-4.86 7.16-10.8 13-17 19-0.33-0.66-0.66-1.32-1-2 0.495-1.49 0.495-1.49 1-3-0.0941-2.29-0.0941-2.29-0.438-4.69-0.102-0.808-0.204-1.62-0.309-2.45-0.0838-0.615-0.168-1.23-0.254-1.86 1.32 0.33 2.64 0.66 4 1 0-3.11-0.174-5.11-1-8z" fill="#3B75FB"/>
<path transform="translate(227,238)" d="m0 0c2 2 2 2 2.24 3.86-0.00616 1.11-0.00616 1.11-0.0125 2.25-0.00193 0.819-0.00387 1.64-0.00586 2.48-0.0184 1.29-0.0184 1.29-0.0371 2.6-6.45e-4 0.839-0.00129 1.68-0.00195 2.54-0.034 4.84-0.125 9.54-1.19 14.3-3.35 2.23-4.42 2.24-8.32 2.2-1.54-0.00967-1.54-0.00967-3.12-0.0195-1.07-0.0168-2.14-0.0335-3.25-0.0508-1.08-0.00902-2.17-0.018-3.28-0.0273-2.68-0.0236-5.35-0.0565-8.03-0.0977 0.99-1.49 0.99-1.49 2-3 2.9-0.258 2.9-0.258 6.38-0.125 5.39 0.202 5.39 0.202 10.6-0.875-0.495-2.48-0.495-2.48-1-5h6c0.33-6.93 0.66-13.9 1-21z" fill="#3B77FB"/>
<path transform="translate(1274,211)" d="m0 0v1c1.65 0.33 3.3 0.66 5 1v4c-1.13 0.124-2.27 0.248-3.44 0.375-1.76 0.309-1.76 0.309-3.56 0.625-0.33 0.66-0.66 1.32-1 2-1.88 2.12-1.88 2.12-4 4-3 0-3 0-4.62-1.25-1.55-1.98-2.06-3.27-2.38-5.75 1-3 1-3 3.18-4.2 0.889-0.345 1.78-0.691 2.7-1.05 0.884-0.356 1.77-0.712 2.68-1.08 2.45-0.672 2.45-0.672 5.45 0.328z" fill="#3370FA"/>
<path transform="translate(224,124)" d="m0 0 4 1c-0.33 1.32-0.66 2.64-1 4h-3c-0.103 0.619-0.206 1.24-0.312 1.88-0.688 2.12-0.688 2.12-3.69 4.12-0.724 2.06-0.724 2.06-1 4-0.557 0.0619-1.11 0.124-1.69 0.188-2.59 0.724-2.59 0.724-4.88 3.38l-2.44 2.44h-3l-2-2c0.375-2.12 0.375-2.12 1-4 0.639-0.124 1.28-0.248 1.94-0.375 0.681-0.206 1.36-0.412 2.06-0.625 0.33-0.66 0.66-1.32 1-2h2v-2h2v-5c0.619-0.103 1.24-0.206 1.88-0.312 2.49-0.563 2.49-0.563 4.12-3.69 0.33 0.99 0.66 1.98 1 3 0.66-1.32 1.32-2.64 2-4z" fill="#3B75FB"/>
<path transform="translate(1434,316)" d="m0 0h76c-7.01 5.26-7.01 5.26-11 5.2-1.14-0.00967-1.14-0.00967-2.29-0.0195-1.18-0.0251-1.18-0.0251-2.38-0.0508-0.797-0.00902-1.59-0.018-2.42-0.0273-1.97-0.0235-3.93-0.0594-5.9-0.0977 0.99-0.33 1.98-0.66 3-1v-2c-18.2-0.33-36.3-0.66-55-1v-1z" fill="#1C3E8B"/>
<path transform="translate(362,252)" d="m0 0c0.866 0.464 0.866 0.464 1.75 0.938 2.09 0.988 4 1.58 6.25 2.06-0.165 0.763-0.33 1.53-0.5 2.31-0.591 2.72-0.591 2.72-0.5 5.69-1.65 0.33-3.3 0.66-5 1 0.33 0.99 0.66 1.98 1 3-0.66 0.66-1.32 1.32-2 2-3.44-0.812-3.44-0.812-7-2-1-3-1-3-0.0625-5.19 0.526-0.897 0.526-0.897 1.06-1.81h2c0.309-0.949 0.619-1.9 0.938-2.88 1.06-3.12 1.06-3.12 2.06-5.12z" fill="#3B75FB"/>
<path transform="translate(250 440)" d="m0 0c1.27 0.107 2.53 0.214 3.84 0.324 1.27 0.0993 2.54 0.199 3.85 0.301 3.09 0.387 3.09 0.387 4.09 1.39 0.763-0.351 1.53-0.701 2.31-1.06 2.69-0.938 2.69-0.938 5.69 0.0625-3.3 2.64-6.6 5.28-10 8-1.32-0.66-2.64-1.32-4-2 0.33 0.99 0.66 1.98 1 3-7.42-0.608-7.42-0.608-9.94-2.31-1.22-1.94-1.84-3.39-2.06-5.69 2-2 2-2 5.22-2.01z" fill="#3773FA"/>
<path transform="translate(1227,246)" d="m0 0c2 2 2 2 2 4 3.15 0.701 5.73 1 9 1 0.33 4.95 0.66 9.9 1 15-0.66-0.99-1.32-1.98-2-3-0.33 1.65-0.66 3.3-1 5h-1c-0.33-2.64-0.66-5.28-1-8-0.99-0.33-1.98-0.66-3-1-0.33 0.99-0.66 1.98-1 3-0.33-1.32-0.66-2.64-1-4-0.99 0.33-1.98 0.66-3 1-0.33 0.99-0.66 1.98-1 3 0-4 0-4 1-5-0.186-0.536-0.371-1.07-0.562-1.62-0.635-3.45 0.49-6.09 1.56-9.38z" fill="#3370FA"/>
<path transform="translate(1321,244)" d="m0 0c0.33 0.66 0.66 1.32 1 2h2c0.66 1.32 1.32 2.64 2 4-0.66 0.66-1.32 1.32-2 2-1.65-0.66-3.3-1.32-5-2-0.33 0.99-0.66 1.98-1 3 0.66 0.66 1.32 1.32 2 2h-2c-0.33 0.66-0.66 1.32-1 2v-2c-0.557 0.186-1.11 0.371-1.69 0.562-2.31 0.438-2.31 0.438-4.88-0.125-2.69-0.773-2.69-0.773-5.44 1.56-2.96-0.359-3.85-0.847-6-3 0.953-0.338 1.91-0.675 2.89-1.02 1.27-0.45 2.53-0.901 3.8-1.35 1.24-0.441 2.48-0.882 3.76-1.34 2.12-0.771 4.24-1.58 6.32-2.45 2.23-0.836 2.23-0.836 5.23-0.836v-3z" fill="#336BE8"/>
<path transform="translate(95,195)" d="m0 0c2.47 0.99 2.47 0.99 5 2v7c-0.99 0.495-0.99 0.495-2 1v2h2v2c-1.65 0.66-3.3 1.32-5 2 1.32 0.66 2.64 1.32 4 2h-2c-0.33 0.66-0.66 1.32-1 2-2.32 0.407-4.66 0.744-7 1v-6h2v-2h-2v-2h5c-0.206-0.701-0.412-1.4-0.625-2.12-0.454-3.48 0.35-5.65 1.62-8.88z" fill="#3773FA"/>
<path transform="translate(1286 195)" d="m0 0c0.868-0.00387 1.74-0.00773 2.63-0.0117 4.92 0.00743 9.58 0.306 14.4 1.14-1.32 0.33-2.64 0.66-4 1v3h-23c-0.33-0.66-0.66-1.32-1-2-2.53-0.656-2.53-0.656-5-1v-1c5.34-1.11 10.5-1.15 15.9-1.12z" fill="#2C61DA"/>
<path transform="translate(1386,204)" d="m0 0h3c0.33 2.31 0.66 4.62 1 7h3c1.05 1.64 2.04 3.31 3 5 1.95 2.21 3.45 3.74 6.12 5 2.37 1.26 2.9 2.56 3.88 5-5.94-0.364-9.68-1.84-14-6-3.36-3.95-6.36-7.71-6.38-13.1 0.186-1.45 0.186-1.45 0.375-2.94z" fill="#3B76FB"/>
<path transform="translate(1352,242)" d="m0 0c3.47 5.2 4.4 7.87 5 14-5.36 2.68-9.01 3.32-15 3v-4c1.65-0.66 3.3-1.32 5-2v-3h4c0.33-2.64 0.66-5.28 1-8z" fill="#3B76FB"/>
<path transform="translate(65,187)" d="m0 0c3 2 3 2 3.7 4.37 1.38 9.85 1.91 19.7 2.3 29.6-3.99-3.27-4.67-5.75-5.25-10.8-0.0759-0.648-0.152-1.3-0.23-1.96-0.75-7.07-0.701-14.1-0.52-21.2z" fill="#3879FA"/>
<path transform="translate(1498,328)" d="m0 0c1.19 2.43 2 4.28 2 7-3.05 2.03-3.6 2.25-7.01 2.2-0.757-0.00645-1.51-0.0129-2.29-0.0195-0.786-0.0168-1.57-0.0335-2.38-0.0508-0.797-0.00902-1.59-0.018-2.42-0.0273-1.97-0.0235-3.93-0.0594-5.9-0.0977 0.66-0.33 1.32-0.66 2-1 0.33-0.99 0.66-1.98 1-3 0.99 0.33 1.98 0.66 3 1 1.24 0.115 1.24 0.115 2.56-1.5 0.474-0.495 0.949-0.99 1.44-1.5-2.31-0.33-4.62-0.66-7-1 2-2 2-2 5.44-2.06 1.18 0.0206 2.35 0.0412 3.56 0.0625 3-1 3-1 6 0z" fill="#3370FA"/>
<path transform="translate(1303,318)" d="m0 0v3c-4.18 1.39-8.12 1.18-12.5 1.19-1.3 0.0184-1.3 0.0184-2.63 0.0371-0.834 0.00193-1.67 0.00387-2.53 0.00586-0.761 0.00411-1.52 0.00822-2.31 0.0125-2.04-0.243-2.04-0.243-5.04-2.24v-2c3.41-0.394 6.83-0.762 10.2-1.12 0.968-0.112 1.94-0.224 2.93-0.34 0.935-0.0967 1.87-0.193 2.83-0.293 0.859-0.0943 1.72-0.189 2.6-0.286 2.66 0.0485 4.12 0.686 6.38 2.04z" fill="#326EF7"/>
<path transform="translate(251,209)" d="m0 0h4c0.33 0.66 0.66 1.32 1 2 1.42-0.0619 1.42-0.0619 2.88-0.125 3.12 0.125 3.12 0.125 5.12 2.12h-5v3c2.31-0.66 4.62-1.32 7-2-0.66 1.32-1.32 2.64-2 4-9.37 0.156-9.37 0.156-12-1-0.33-0.99-0.66-1.98-1-3-5.94-0.33-11.9-0.66-18-1v-1c5.7-0.642 11.3-1.12 17-1 0.33-0.66 0.66-1.32 1-2z" fill="#3B75FB"/>
<path transform="translate(1234,234)" d="m0 0c3.38 0.312 3.38 0.312 7 1 0.66 0.99 1.32 1.98 2 3h-2c0.33 1.65 0.66 3.3 1 5h-2c-0.33 0.99-0.66 1.98-1 3-3.62 1.21-4.64 0.543-8-1v-6h3v-5z" fill="#3370FA"/>
<path transform="translate(68,149)" d="m0 0h2c0.273 10.5-0.466 20.6-2 31-1.87-1.8-2.93-3.25-3.19-5.87 0.0443-2.28 0.186-4.54 0.374-6.81 0.0553-0.804 0.111-1.61 0.168-2.44 0.415-5.44 1.18-10.6 2.64-15.9z" fill="#3979FA"/>
<path transform="translate(224,142)" d="m0 0c3 0 3 0 5 1 0.33 0.99 0.66 1.98 1 3-1.04 1.65-1.04 1.65-2.62 3.38-0.831 0.911-0.831 0.911-1.68 1.84-0.559 0.589-1.12 1.18-1.7 1.79-0.477 0.517-0.954 1.03-1.45 1.57-1.14 1.19-2.34 2.32-3.55 3.43h-2c0.168-0.603 0.335-1.21 0.508-1.83 0.204-0.799 0.407-1.6 0.617-2.42 0.209-0.789 0.418-1.58 0.633-2.39 0.285-2.78-0.308-4.02-1.76-6.36 1-1 1-1 4.06-1.06 1.45 0.0309 1.45 0.0309 2.94 0.0625v-2z" fill="#3B76FB"/>
<path transform="translate(304,311)" d="m0 0h6c-0.99 0.495-0.99 0.495-2 1v2h6v1h-6l2 2v3c-6.93-0.495-6.93-0.495-14-1-0.33-0.99-0.66-1.98-1-3h-2c0.33-0.99 0.66-1.98 1-3h9c0.33-0.66 0.66-1.32 1-2z" fill="#3979FA"/>
<path transform="translate(266,253)" d="m0 0h3c0.268 0.949 0.536 1.9 0.812 2.88 0.937 3.38 0.937 3.38 4.19 5.12-0.33 2.31-0.66 4.62-1 7-4.75-0.75-4.75-0.75-7-3-0.195-2.82-0.195-2.82-0.125-6.12 0.018-1.1 0.0361-2.19 0.0547-3.32 0.0232-0.843 0.0464-1.69 0.0703-2.55z" fill="#3979FA"/>
<path transform="translate(195,14)" d="m0 0v2c-0.949 0.124-1.9 0.247-2.88 0.375-9.82 1.38-9.82 1.38-19.1 4.62 0.33-0.99 0.66-1.98 1-3h2v-2c2.12-0.863 4.25-1.72 6.38-2.56 1.78-0.713 1.78-0.713 3.59-1.44 3.99-1.31 5.44 0.205 9.04 2z" fill="#3873FB"/>
<path transform="translate(271,331)" d="m0 0c1.27 2.55 0.802 3.43 0.0625 6.12-0.195 0.724-0.389 1.45-0.59 2.2-0.156 0.554-0.312 1.11-0.473 1.68-2.25 0.25-2.25 0.25-5 0-2.31-2-2.31-2-4-4h2v-5c2.71-1.35 5.01-1.07 8-1z" fill="#3B75FB"/>
<path transform="translate(1330,219)" d="m0 0c2.94 0.812 2.94 0.812 6 2 0.33 0.99 0.66 1.98 1 3 0.474 0.454 0.949 0.907 1.44 1.38 1.93 2.01 2.65 4.02 3.56 6.62-2.38-0.312-2.38-0.312-5-1-0.66-0.99-1.32-1.98-2-3-3.07-0.733-3.07-0.733-6-1 0.33-2.64 0.66-5.28 1-8z" fill="#3B75FB"/>
<path transform="translate(413,225)" d="m0 0c0.536 0.351 1.07 0.701 1.62 1.06 3.11 1.23 5.17 0.666 8.38-0.0625-0.142 1.58-0.289 3.17-0.438 4.75-0.0812 0.882-0.162 1.76-0.246 2.67-0.279 2.27-0.704 4.38-1.32 6.58h-2c-0.33-2.64-0.66-5.28-1-8h-2c-0.33-0.66-0.66-1.32-1-2l-2 1v-6z" fill="#3874FB"/>
<path transform="translate(166,293)" d="m0 0c5.66 2.34 5.66 2.34 7.38 5.69 0.206 0.763 0.412 1.53 0.625 2.31-0.784 0.144-1.57 0.289-2.38 0.438-2.59 0.44-2.59 0.44-4.62 1.56-2.06-2.31-2.06-2.31-4-5 0.33-0.99 0.66-1.98 1-3h2v-2z" fill="#3775F1"/>
<path transform="translate(1389,336)" d="m0 0c0.571 0.727 0.571 0.727 1.15 1.47 2.5 2.08 4.16 1.96 7.39 2.04 1.61 0.0532 1.61 0.0532 3.25 0.107 1.12 0.0226 2.24 0.0451 3.39 0.0684 1.7 0.0512 1.7 0.0512 3.43 0.104 2.79 0.0825 5.59 0.152 8.38 0.209v1h-34c0.33-1.32 0.66-2.64 1-4 2.47 0.99 2.47 0.99 5 2 0.33-0.99 0.66-1.98 1-3z" fill="#3572FA"/>
<path transform="translate(242,109)" d="m0 0h2c0.66 1.65 1.32 3.3 2 5h3v6c-2.31-0.33-4.62-0.66-7-1v-2h-2c0.523-2.76 1.11-5.33 2-8z" fill="#3370FA"/>
<path transform="translate(1310,265)" d="m0 0c-0.66 1.65-1.32 3.3-2 5 1.32 0.33 2.64 0.66 4 1-1 2-1 2-3.07 2.85-0.824 0.255-1.65 0.51-2.5 0.773-0.826 0.26-1.65 0.521-2.5 0.789-0.638 0.193-1.28 0.387-1.93 0.586v-4c1.32-0.66 2.64-1.32 4-2v-2c-0.66-0.33-1.32-0.66-2-1 3.75-2 3.75-2 6-2z" fill="#3874FB"/>
<path transform="translate(115,228)" d="m0 0c2 3 2 3 2 5h3c0.33-0.66 0.66-1.32 1-2 1.47 3.81 0.433 6.29-1 10-1.32-0.99-2.64-1.98-4-3-0.66 0.66-1.32 1.32-2 2-0.027-1.62-0.0464-3.25-0.0625-4.88-0.0116-0.905-0.0232-1.81-0.0352-2.74 0.0977-2.38 0.0977-2.38 1.1-4.38z" fill="#3B76FB"/>
<path transform="translate(141,196)" d="m0 0h3c0.702 1.41 1.39 2.83 2.06 4.25 0.383 0.789 0.766 1.58 1.16 2.39 0.863 2.62 0.708 3.81-0.223 6.36-7-7-7-7-7.19-9.56 0.188-2.44 0.188-2.44 1.19-3.44z" fill="#3979FA"/>
<path transform="translate(144 97.9)" d="m0 0c1.21 0.0309 1.21 0.0309 2.44 0.0625 0 3.8-1.2 5.11-3.38 8.19-0.626 0.901-1.25 1.8-1.9 2.73-0.855 1.03-0.855 1.03-1.73 2.08h-2c0-3 0-3 2-5l-2-2h2c0.33-0.99 0.66-1.98 1-3 0.99-0.33 1.98-0.66 3-1-0.99-0.33-1.98-0.66-3-1 1-1 1-1 3.56-1.06z" fill="#3773FA"/>
<path transform="translate(241 2.73)" d="m0 0c0.973-0.00258 1.95-0.00516 2.95-0.00781 1.02 0.00773 2.04 0.0155 3.09 0.0234 1.02-0.00773 2.03-0.0155 3.08-0.0234 0.974 0.00258 1.95 0.00516 2.95 0.00781 0.893 0.00226 1.79 0.00451 2.71 0.00684 2.33 0.259 2.33 0.259 5.33 2.26-5.92 1.1-11.4 0.938-17.4 0.562-1.38-0.0783-1.38-0.0783-2.79-0.158-2.26-0.129-4.51-0.264-6.77-0.404 2.52-2.52 3.41-2.26 6.9-2.27z" fill="#3370FA"/>
<path transform="translate(211,361)" d="m0 0v6c0.99 0.33 1.98 0.66 3 1 0.99 1.49 0.99 1.49 2 3-3.7 0.337-5.4 0.477-8.38-1.88-1.62-2.12-1.62-2.12-1.62-4.12-0.66-0.33-1.32-0.66-2-1 2.5-3 2.74-3 7-3z" fill="#3370FA"/>
<path transform="translate(84,217)" d="m0 0h3c1 6.75 1 6.75 1 9l2 2h-3v2c-0.99-0.33-1.98-0.66-3-1-0.33-2.64-0.66-5.28-1-8h2c-0.33-1.32-0.66-2.64-1-4z" fill="#3672FA"/>
<path transform="translate(204,265)" d="m0 0c2.79-0.221 5.35-0.281 8.12-0.188 0.754 0.0135 1.51 0.0271 2.29 0.041 1.86 0.0354 3.73 0.0892 5.59 0.146-0.33 0.99-0.66 1.98-1 3h-17c0.66-0.99 1.32-1.98 2-3z" fill="#3C76FC"/>
<path transform="translate(1288,258)" d="m0 0c3 1 3 1 3 1zm0 2c-0.688 1.94-0.688 1.94-2 4-3.33 1.08-6.52 1.1-10 1-0.33-0.66-0.66-1.32-1-2 1.6-0.699 3.2-1.38 4.81-2.06 0.893-0.383 1.79-0.766 2.71-1.16 2.48-0.777 2.48-0.777 5.48 0.223z" fill="#2F61D2"/>
<path transform="translate(227,238)" d="m0 0c2 2 2 2 2.23 3.97-0.0105 0.786-0.0209 1.57-0.0317 2.38-0.00645 0.851-0.0129 1.7-0.0195 2.58-0.0168 0.889-0.0335 1.78-0.0508 2.7-0.00902 0.897-0.018 1.79-0.0273 2.72-0.0236 2.22-0.0565 4.44-0.0977 6.66-1.91-1.82-2.94-3.26-3.15-5.92 0.0833-2.29 0.253-4.55 0.466-6.83 0.0612-0.793 0.122-1.59 0.186-2.4 0.153-1.95 0.325-3.9 0.502-5.85z" fill="#3976FA"/>
<path transform="translate(129,125)" d="m0 0c-0.762 3.61-2.12 6.86-3.56 10.2-0.455 1.08-0.91 2.16-1.38 3.27-0.524 1.23-0.524 1.23-1.06 2.48-1.22-3.94-0.483-6.16 1-10-0.99-0.99-1.98-1.98-3-3 0.33-0.66 0.66-1.32 1-2 2.39-0.612 4.54-1 7-1z" fill="#3773FA"/>
<path transform="translate(351,277)" d="m0 0c0.33 0.66 0.66 1.32 1 2h2v2c0.66 0.33 1.32 0.66 2 1 0.33 0.99 0.66 1.98 1 3-3.75 2-3.75 2-6 2-1.6-3.12-2.19-4.39-1.12-7.81 0.371-0.722 0.743-1.44 1.12-2.19z" fill="#3B75FB"/>
<path transform="translate(176,259)" d="m0 0h4c0.33 1.98 0.66 3.96 1 6 2.97 0.495 2.97 0.495 6 1v2c-2.69 0.312-2.69 0.312-6 0-2.57-2.17-4.49-3.98-6-7l1-2z" fill="#3979FA"/>
<path transform="translate(293,9)" d="m0 0c1.44 0.115 2.88 0.242 4.31 0.375 1.2 0.104 1.2 0.104 2.43 0.211 2.26 0.414 2.26 0.414 5.26 2.41v2c-1.46 0.054-2.92 0.0928-4.38 0.125-0.812 0.0232-1.62 0.0464-2.46 0.0703-2.16-0.195-2.16-0.195-4.16-2.2 0.33-0.33 0.66-0.66 1-1-0.66-0.66-1.32-1.32-2-2z" fill="#3C76FC"/>
<path transform="translate(172,323)" d="m0 0 4 4c-1.31 1.5-1.31 1.5-3 3h-3v-3h-5v-3c1.45 0.0309 1.45 0.0309 2.94 0.0625 2.94 0.294 2.94 0.294 4.06-1.06z" fill="#3B75FB"/>
<path transform="translate(1293,256)" d="m0 0c2.12 0.938 2.12 0.938 4 2-1.62 2-1.62 2-4 4-3.25 0.25-3.25 0.25-6 0-0.33-0.66-0.66-1.32-1-2 1.65-0.33 3.3-0.66 5-1v-2c0.66-0.33 1.32-0.66 2-1z" fill="#3670F3"/>
<path transform="translate(179,355)" d="m0 0c1.32 0.33 2.64 0.66 4 1 0.125 2.88 0.125 2.88 0 6-0.66 0.66-1.32 1.32-2 2-0.33-0.99-0.66-1.98-1-3-2.5-1.22-2.5-1.22-5-2 0.99-0.33 1.98-0.66 3-1 0.33-0.99 0.66-1.98 1-3z" fill="#3B75FB"/>
<path transform="translate(1288,206)" d="m0 0h5v3h2c-0.33-0.99-0.66-1.98-1-3 0.99 0.33 1.98 0.66 3 1v5c-6.75-1.75-6.75-1.75-9-4v-2z" fill="#3370FA"/>
<path transform="translate(186,38)" d="m0 0c2.31 0.66 4.62 1.32 7 2-0.66 0.66-1.32 1.32-2 2h4c-0.33 0.99-0.66 1.98-1 3-2.31-0.33-4.62-0.66-7-1 0.33-0.99 0.66-1.98 1-3-0.99-0.33-1.98-0.66-3-1 0.33-0.66 0.66-1.32 1-2z" fill="#3370FA"/>
<path transform="translate(116,151)" d="m0 0h3c-0.907 4.69-1.95 9.34-3 14-2.6-3.89-1.87-5.51-1-10 0.309-1.34 0.629-2.68 1-4z" fill="#3B76FB"/>
<path transform="translate(73,130)" d="m0 0c3 1 3 1 4 2.75 0 2.25 0 2.25-2.44 5-1.27 1.11-1.27 1.11-2.56 2.25-1.16-4.05-0.837-6.22 1-10z" fill="#3979FA"/>
<path transform="translate(176,212)" d="m0 0h2c0.0816 4.16-0.0175 7.95-1 12h-2c-0.0269-1.81-0.0463-3.62-0.0625-5.44-0.0116-1.01-0.0232-2.02-0.0352-3.06 0.0977-2.5 0.0977-2.5 1.1-3.5z" fill="#3874FB"/>
<path transform="translate(288,12)" d="m0 0c0.33 0.99 0.66 1.98 1 3h-2c-0.33 0.99-0.66 1.98-1 3-0.99-0.33-1.98-0.66-3-1-0.33-0.99-0.66-1.98-1-3-0.66-0.66-1.32-1.32-2-2 3.29-0.8 4.71-1.1 8 0z" fill="#3B75FB"/>
<path transform="translate(1329,322)" d="m0 0c4 4.5 4 4.5 4 9h-3c-2.12-6.75-2.12-6.75-1-9z" fill="#3A75FB"/>
<path transform="translate(1275,265)" d="m0 0h-2c-0.33 0.99-0.66 1.98-1 3-2 0.801-2 0.801-4.44 1.31-0.803 0.182-1.61 0.364-2.43 0.551-1.05 0.0677-1.05 0.0677-2.13 0.137-0.66-0.66-1.32-1.32-2-2 1.77-0.699 3.54-1.38 5.31-2.06 1.48-0.574 1.48-0.574 2.99-1.16 2.7-0.777 2.7-0.777 5.7 0.223z" fill="#2A55B7"/>
<path transform="translate(134,79)" d="m0 0c2.64 0.33 5.28 0.66 8 1v4c-4.52 0.366-4.52 0.366-6.81-1.38-1.19-1.62-1.19-1.62-1.19-3.62z" fill="#3370FA"/>
<path transform="translate(1353,251)" d="m0 0h3c0.33 1.65 0.66 3.3 1 5-1.65 0.66-3.3 1.32-5 2-0.0425-2-0.0408-4 0-6 0.33-0.33 0.66-0.66 1-1z" fill="#3974FB"/>
<path transform="translate(1309,252)" d="m0 0c-1 3-1 3-4 5-2.96-0.359-3.85-0.847-6-3 3.51-1.6 6.14-2.22 10-2z" fill="#3167E0"/>
<path transform="translate(375,57)" d="m0 0c0.99 0.33 1.98 0.66 3 1 0.33 1.98 0.66 3.96 1 6h-5c-0.33-1.65-0.66-3.3-1-5 0.66-0.33 1.32-0.66 2-1v-1z" fill="#3979FA"/>
<path transform="translate(194,318)" d="m0 0c-0.33 0.33-0.66 0.66-1 1 0.99 0.99 1.98 1.98 3 3-0.99 0.33-1.98 0.66-3 1-0.99-0.66-1.98-1.32-3-2v-1c-2.97-0.495-2.97-0.495-6-1v-1c3.66-0.749 6.42-1.24 10 0z" fill="#3979FA"/>
<path transform="translate(246,200)" d="m0 0c-1 2-1 2-4 4v3c0.99-0.33 1.98-0.66 3-1v2h-4c-3-4.07-3-4.07-3-7 2.71-1.35 5.01-1.07 8-1z" fill="#3370FA"/>
<path transform="translate(370,240)" d="m0 0c0.619 0.474 1.24 0.949 1.88 1.44 2.03 1.59 2.03 1.59 4.12 2.56-1.69 1.56-1.69 1.56-4 3-2.75-0.312-2.75-0.312-5-1 0.66-0.33 1.32-0.66 2-1 0.656-2.53 0.656-2.53 1-5z" fill="#3C76FC"/>
<path transform="translate(423,141)" d="m0 0h1c0.222 1.79 0.427 3.58 0.625 5.38 0.116 0.998 0.232 2 0.352 3.02 0.00773 0.859 0.0155 1.72 0.0234 2.6-0.66 0.66-1.32 1.32-2 2v-2c-0.99-0.33-1.98-0.66-3-1 0.33-1.32 0.66-2.64 1-4 0.66 0.66 1.32 1.32 2 2v-8z" fill="#3C76FC"/>
<path transform="translate(343,30)" d="m0 0c2.95 1.37 5.44 2.99 8 5-2.55 1.27-3.43 0.802-6.12 0.0625-0.724-0.195-1.45-0.389-2.2-0.59-0.554-0.156-1.11-0.312-1.68-0.473 0.66-1.32 1.32-2.64 2-4z" fill="#3979FA"/>
<path transform="translate(1280,220)" d="m0 0h10v1h-10v-1z" fill="#05070C"/>
<path transform="translate(1408,187)" d="m0 0h2c-0.33 0.66-0.66 1.32-1 2-0.33-0.66-0.66-1.32-1-2z" fill="#010305"/>
<path transform="translate(233,1)" d="m0 0c0.99 0.495 0.99 0.495 2 1-0.99 0.495-0.99 0.495-2 1v-2z" fill="#3370FA"/>
<path transform="translate(1282,345)" d="m0 0 2 1z" fill="#05070C"/>
<path transform="translate(251,1)" d="m0 0 2 1z" fill="#3370FA"/>
<path transform="translate(237,1)" d="m0 0 2 1z" fill="#3370FA"/>
</svg>
