<?xml version="1.0" encoding="UTF-8"?>
<svg version="1.1" viewBox="0 0 1600 456" width="1280" height="1280" xmlns="http://www.w3.org/2000/svg">
<path transform="translate(245 -.206)" d="m0 0c2.04 0.0183 4.08 0.0205 6.12 0.0203 13 0.0337 25.3 0.675 37.9 4.19 2.14 0.525 4.29 1.05 6.44 1.56 3.68 0.886 7.06 2 10.6 3.44 1.37 0.448 2.75 0.885 4.12 1.31 5.49 1.81 10.7 4.21 15.9 6.69 0.779 0.357 1.56 0.714 2.36 1.08 12.1 5.76 23.4 13.2 33.6 21.9 0.639 0.507 1.28 1.01 1.94 1.54 1.39 1.11 2.74 2.28 4.06 3.46v2h2v2l1.69 0.719c15.1 8.38 26 28.8 34.3 43.3 0.615 1.07 1.23 2.13 1.86 3.23 4.11 7.37 7.34 14.8 10.1 22.8l0.665 1.87c2.45 6.91 4.67 13.8 5.94 21 0.409 2.39 0.409 2.39 1.46 5.69 2.02 7.41 2.11 15 2.18 22.7 0.00807 0.961 0.0161 1.92 0.0245 2.91 0.0138 2.03 0.0245 4.06 0.0324 6.08 0.0114 2.03 0.0318 4.07 0.0615 6.1 0.257 17.6-1.81 33.9-7.36 50.7-0.481 1.67-0.96 3.33-1.44 5-2.78 9.19-6.8 17.8-10.9 26.4-1.31 2.79-2.57 5.59-3.79 8.43-2.01 4.55-4.39 8.82-6.88 13.1-0.491 0.87-0.982 1.74-1.49 2.64-6.64 11.6-13.7 23.1-22.1 33.5-1.33 1.73-2.38 3.43-3.41 5.34-3.66 6.75-8.93 12.5-14 18.2-1.93 2.2-3.81 4.45-5.69 6.7-6.23 7.46-12.8 14.6-19.5 21.6-1.83 1.94-3.65 3.9-5.46 5.86-6.65 7.17-13.4 14.2-20.3 21.2-0.686 0.69-1.37 1.38-2.08 2.09-3.92 3.91-7.95 7.61-12.1 11.2-2.57 2.27-4.95 4.67-7.34 7.12-3.72 3.77-7.51 7.39-11.5 10.8-1.41 1.21-2.8 2.45-4.17 3.71-12.7 11.6-12.7 11.6-21.6 12.1-8.81-0.496-15.6-6.48-21.6-12.5-3.45-3.42-7.16-6.45-10.9-9.51-3.36-2.79-6.04-5.64-8.73-9.11-0.66-0.33-1.32-0.66-2-1v-2c-0.593-0.0902-1.19-0.18-1.8-0.273-2.76-0.912-3.65-2.09-5.45-4.35-2.42-2.91-4.86-5.44-7.75-7.88-3.49-2.96-6.45-6.17-9.41-9.65-2.81-3.27-5.75-6.2-9.15-8.85-2.58-2.12-4.5-4.28-6.44-7v-2c-0.835-0.309-0.835-0.309-1.69-0.625-3.28-1.95-5.02-4.32-7.31-7.38v-2h-2c-1.38-1.36-1.38-1.36-3-3.31-2.93-3.45-5.93-6.8-9-10.1-4.26-4.69-8.23-9.46-12-14.6-0.447-0.601-0.894-1.2-1.35-1.82-15.9-21.4-32.4-44.5-42.6-69.2-0.956-2.02-1.91-4.04-2.88-6.06-7.04-15.2-12.1-31.4-15.1-47.9l-0.521-2.71c-1.52-8.62-1.79-17-1.74-25.7 0.0107-2.31 6.99e-5 -4.61-0.0127-6.92-0.0142-13.6 0.822-27.2 4.59-40.3 0.218-0.787 0.436-1.57 0.661-2.39 0.657-2.34 1.34-4.66 2.03-6.99 0.3-1.03 0.3-1.03 0.606-2.07 2.84-9.58 6.75-18.1 11.4-26.9 1-2 2-4 3-6 5.79-11.2 12.9-21.4 21-31 0.548-0.66 1.1-1.32 1.66-2 8.1-9.61 20.2-24 32.3-28l2-3c1.99-1.02 3.99-2.01 6-3 1.7-1.09 3.38-2.2 5.06-3.31 9.27-5.95 19.2-9.95 29.6-13.5 3.06-1.06 6.08-2.19 9.1-3.35 6.84-2.49 13.7-3.73 21-4.53 1.74-0.215 3.47-0.478 5.2-0.762 8.38-1.35 16.6-1.8 25-1.73zm-17 53.2c-3.09 0.549-6.2 0.948-9.31 1.38-7.05 1.03-13.2 2.52-19.7 5.62-0.773 0.304-1.55 0.608-2.34 0.922-10.6 4.3-22.6 9.85-30.7 18.1-2.75 2.24-5.53 4.45-8.31 6.65-2.6 2.28-4.57 4.63-6.69 7.35-1.09 0.972-2.22 1.91-3.38 2.81-6.57 5.52-10.5 12.4-14.3 20-1.3 2.22-1.3 2.22-3.3 3.22-0.994 1.77-0.994 1.77-1.88 3.94l-1.06 2.49-1.07 2.57-0.973 2.29c-13.1 31.7-15.4 66.1-4.03 98.7 0.38 1.09 0.38 1.09 0.769 2.21 3.39 9.73 3.39 9.73 8.23 18.8 0.486 0.816 0.972 1.63 1.47 2.47 4.52 7.36 9.56 14.3 15.5 20.5h2c0.262 0.599 0.523 1.2 0.793 1.82 1.28 2.31 2.47 3.48 4.52 5.12 2.16 1.75 4.12 3.5 6.07 5.49 18.3 18 44.8 27 69.6 30.6 1.13 0.184 2.25 0.369 3.41 0.559 33.4 4.11 68-6.23 94.6-26.6 0.772-0.538 1.54-1.08 2.34-1.63l1.66-1.37v-2c0.727-0.24 1.45-0.48 2.2-0.727 18.4-8.37 31-36.3 37.8-54.3 0.49-1.22 0.98-2.45 1.48-3.71 10.8-28.9 8.3-63.2-3.48-91.3-0.578-1.52-0.578-1.52-1.17-3.07-5.59-14.3-14.5-29.5-25.8-39.9-0.536-0.567-1.07-1.13-1.62-1.72-12-12.6-27.2-22.9-43.4-29.3-0.839-0.379-1.68-0.758-2.54-1.15-9.82-4.19-19.9-5.8-30.4-7.45-2.04-0.401-2.04-0.401-4.04-1.4-4.22-0.245-8.46-0.185-12.7-0.188-1.17-0.0122-2.34-0.0245-3.55-0.0371-6.01-0.0102-11 0.324-16.8 2.22z" fill="#3773FA"/>
<path transform="translate(520 94.9)" d="m0 0c1.21-0.00638 2.41-0.0128 3.66-0.0193 1.34-0.00153 2.67-0.00264 4.01-0.00337 1.38-0.00322 2.76-0.00658 4.14-0.0101 2.91-0.00601 5.82-0.00784 8.73-0.00725 2.94 8.01e-5 5.88-0.00667 8.82-0.0205 71.1-0.33 71.1-0.33 96.6 23.8 14.7 14.8 20.2 32.8 20.8 53.4-0.464 20.4-6.11 41.7-20.3 57.1-6.04 5.63-12.6 10.4-20.1 13.9 7.42 12.3 14.9 24.5 22.7 36.6 4.36 6.82 8.67 13.7 13 20.5 5.12 8.21 10.3 16.4 15.4 24.6 0.884 1.4 1.77 2.8 2.65 4.19 0.902 1.42 1.82 2.84 2.74 4.24 0.459 0.708 0.918 1.42 1.39 2.14 0.416 0.631 0.831 1.26 1.26 1.91 0.905 1.74 0.905 1.74 0.905 4.74-32.8 2.83-32.8 2.83-40.7-1.44-3.88-3.91-5.55-8.8-7.3-13.9-1.81-4.61-4.68-8.51-7.47-12.6-1.11-1.69-2.22-3.38-3.32-5.08-0.543-0.832-1.09-1.66-1.65-2.52-2.99-4.62-5.92-9.28-8.85-13.9-5.03-7.99-10.1-15.9-15.2-23.9-0.644-1-1.29-2.01-1.95-3.04-0.568-0.885-1.14-1.77-1.72-2.68-2.3-3.62-4.57-7.26-6.85-10.9h-44c-0.33 29.7-0.66 59.4-1 90h-33c-0.0226-31.3-0.0405-62.6-0.0511-94-0.00125-3.69-0.00255-7.39-0.00387-11.1-2.62e-4 -0.735-5.25e-4 -1.47-7.95e-4 -2.23-0.00436-11.9-0.0122-23.8-0.0214-35.8-0.00934-12.2-0.0149-24.5-0.0169-36.7-0.00138-7.55-0.00573-15.1-0.0138-22.6-0.00589-5.78-0.00654-11.6-0.00519-17.3-2.77e-4 -2.38-0.00228-4.76-0.0061-7.13-0.00493-3.23-0.0038-6.46-0.00105-9.69-0.00291-0.954-0.00583-1.91-0.00883-2.89 0.0178-7.69 0.0178-7.69 6.75-7.71zm26.4 32.1v92c39.6 2.96 39.6 2.96 73.7-12.6 9.1-9.57 12.7-22.2 12.7-35.1-0.35-11.5-4.35-22-12.4-30.4-0.607-0.634-1.21-1.27-1.84-1.92-18.7-17.9-49.3-12.1-72.2-12.1z" fill="#000102"/>
<path transform="translate(420,131)" d="m0 0c2.83 2.37 3.48 4.14 4.06 7.75 0.529 3.04 1.11 5.84 2 8.81 2.02 7.41 2.11 15 2.18 22.7 0.00807 0.961 0.0161 1.92 0.0245 2.91 0.0138 2.03 0.0245 4.06 0.0324 6.08 0.0114 2.03 0.0318 4.07 0.0615 6.1 0.257 17.6-1.81 33.9-7.36 50.7-0.481 1.67-0.96 3.33-1.44 5-2.78 9.19-6.8 17.8-10.9 26.4-1.31 2.79-2.57 5.59-3.79 8.43-2.01 4.55-4.39 8.82-6.88 13.1-0.491 0.87-0.982 1.74-1.49 2.64-6.64 11.6-13.7 23.1-22.1 33.5-1.33 1.73-2.38 3.43-3.41 5.34-3.66 6.75-8.93 12.5-14 18.2-1.93 2.2-3.81 4.45-5.69 6.7-6.23 7.46-12.8 14.6-19.5 21.6-1.83 1.94-3.65 3.9-5.46 5.86-6.65 7.17-13.4 14.2-20.3 21.2-0.686 0.69-1.37 1.38-2.08 2.09-3.92 3.91-7.95 7.61-12.1 11.2-2.57 2.27-4.95 4.67-7.34 7.12-3.71 3.76-7.49 7.38-11.5 10.8-1.45 1.25-2.86 2.55-4.25 3.87-5.9 5.55-5.9 5.55-10 6.96-2.79-0.13-4.36-0.604-6.69-2.12 0.33-0.66 0.66-1.32 1-2l-7-3v-2h-5v-3l-4 1-2-3c-2.05-1.19-2.05-1.19-4-2v-4h-5v-3l2-1-3-2c-0.366-1.99-0.701-3.99-1-6l-2-1c-0.33-0.66-0.66-1.32-1-2 0.33-0.66 0.66-1.32 1-2h-2v-4h2v-3c-0.99-0.33-1.98-0.66-3-1v-4c-0.962-4.43-0.962-4.43-4.12-7.38l-1.88-0.625v-3l3-2c-3.63-0.99-7.26-1.98-11-3l-1-4 4-2c-2.97-0.33-5.94-0.66-9-1-0.544-3.06-1-5.89-1-9 1.13-0.124 2.27-0.248 3.44-0.375 1.18-0.206 2.35-0.413 3.56-0.625l1-2h2l1-2h-2v-2c2.97 0.33 5.94 0.66 9 1l-1-2c-0.99-0.33-1.98-0.66-3-1v-2h10c-0.66 0.33-1.32 0.66-2 1v5h2v4h6c0.33-1.32 0.66-2.64 1-4h9c0.33 0.99 0.66 1.98 1 3h4v2c-0.33 0.33-0.66 0.66-1 1 2.97 0.99 2.97 0.99 6 2 0.33-0.99 0.66-1.98 1-3 0.784-0.124 1.57-0.248 2.38-0.375 2.77-0.416 2.77-0.416 4.62-2.62-0.99-0.33-1.98-0.66-3-1v-2c3.96-0.99 3.96-0.99 8-2v-4c-1.32-0.66-2.64-1.32-4-2-0.33 1.65-0.66 3.3-1 5-0.99-0.33-1.98-0.66-3-1 0.557-0.742 0.557-0.742 1.12-1.5 1.36-3.87 0.0398-6.62-1.12-10.5 1.48 0.14 2.96 0.288 4.44 0.438 1.24 0.122 1.24 0.122 2.5 0.246 2.07 0.316 2.07 0.316 3.07 1.32 0.33-0.66 0.66-1.32 1-2 4.48-1.26 4.48-1.26 7 0v3c2.64 0.33 5.28 0.66 8 1v1c-1.32 0.33-2.64 0.66-4 1 0.495 2.48 0.495 2.48 1 5h7c0.33 0.66 0.66 1.32 1 2 0.33-1.32 0.66-2.64 1-4h2c-0.99-2.48-0.99-2.48-2-5 2.37-1.06 2.37-1.06 5-2 0.66 0.33 1.32 0.66 2 1v-2c-3.5-0.1-6.58 0.261-10 1h-2c-1.12-6.75-1.12-6.75 0-9h2c0.33-0.99 0.66-1.98 1-3 1.32 0.33 2.64 0.66 4 1v7h6c0.0606-0.748 0.121-1.5 0.184-2.27 0.126-1.48 0.126-1.48 0.254-2.98 0.122-1.46 0.122-1.46 0.246-2.95 0.267-2.36 0.67-4.52 1.32-6.8 4.18-0.0819 7.92 0.0944 12 1h3v2c2.31 0.33 4.62 0.66 7 1 0.33 1.98 0.66 3.96 1 6h4c0.66 0.33 1.32 0.66 2 1 0.33-1.32 0.66-2.64 1-4h4c-0.33-1.32-0.66-2.64-1-4v3h-2v-6h9c0.33-2.97 0.66-5.94 1-9h2c0.33 1.65 0.66 3.3 1 5 0.33-1.65 0.66-3.3 1-5 1.32-0.33 2.64-0.66 4-1 0.33-1.98 0.66-3.96 1-6 1.32-0.33 2.64-0.66 4-1-0.33-0.99-0.66-1.98-1-3-0.33-0.99-0.66-1.98-1-3-0.66-0.33-1.32-0.66-2-1h7c-0.165-0.804-0.33-1.61-0.5-2.44-0.5-2.56-0.5-2.56-0.5-3.56-0.66-0.33-1.32-0.66-2-1 0.495-0.433 0.99-0.866 1.5-1.31 1.83-1.68 1.83-1.68 1.5-4.69h7c0.33-1.65 0.66-3.3 1-5h2c-0.0412-0.949-0.0825-1.9-0.125-2.88 0.125-3.12 0.125-3.12 2.12-5.12v-2c1.98-0.66 3.96-1.32 6-2v-7h4c0.33-0.66 0.66-1.32 1-2h4c-0.33-1.98-0.66-3.96-1-6-0.99 0.495-0.99 0.495-2 1-2.62-0.938-2.62-0.938-5-2 0.33-1.98 0.66-3.96 1-6 1.65 0.33 3.3 0.66 5 1v3c0.66-0.33 1.32-0.66 2-1 0.656-2.53 0.656-2.53 1-5h2c-0.33-1.65-0.66-3.3-1-5-0.99 0.33-1.98 0.66-3 1-1.12-3.37-0.816-5.57 0-9 0.339-2 0.674-4 1-6-0.619-0.144-1.24-0.289-1.88-0.438-2.12-0.562-2.12-0.562-4.12-1.56 0.33-1.65 0.66-3.3 1-5 0.557 0.639 1.11 1.28 1.69 1.94 2.57 2.29 3.99 2.54 7.31 3.06 0.168-1.94 0.335-3.87 0.5-5.81 0.0928-1.08 0.186-2.16 0.281-3.27 0.256-2.93 0.256-2.93 0.219-5.92 0.99-0.33 1.98-0.66 3-1 0.99 1.49 0.99 1.49 2 3 0.66 0.33 1.32 0.66 2 1v-4c-0.66-0.33-1.32-0.66-2-1 0.33-0.99 0.66-1.98 1-3h1c-0.0116-0.713-0.0232-1.43-0.0352-2.16-0.0509-5.4 0.162-10.5 1.04-15.8v-4h-2c0.307-3.44 0.621-6.88 0.938-10.3 0.131-1.46 0.131-1.46 0.264-2.96 0.131-1.41 0.131-1.41 0.264-2.84l0.238-2.62c0.297-2.27 0.297-2.27 1.3-5.27-0.328-1.33-0.662-2.67-1-4-0.0679-2.25-0.085-4.5-0.0625-6.75 0.00902-1.17 0.018-2.34 0.0273-3.55 0.0174-1.34 0.0174-1.34 0.0352-2.7h2v-10c0.99 0.495 0.99 0.495 2 1v6c0.33-1.65 0.66-3.3 1-5 4.95-0.495 4.95-0.495 10-1v3c1.65-0.33 3.3-0.66 5-1 0.33-0.99 0.66-1.98 1-3 3.47-0.495 3.47-0.495 7-1v-2z" fill="#3571FA"/>
<path transform="translate(843 210)" d="m0 0c12.5 11 21 26.6 25.1 42.8v4c-21.4 7.82-42.8 15.4-64.4 22.9-15.3 5.27-30.5 10.6-45.6 16.1 4.43 9.07 11.8 15.1 21.2 18.8 14.2 4.41 28.7 3.32 41.9-3.38 1.9-1.03 3.78-2.08 5.65-3.16 2.28-1.27 2.28-1.27 5.28-2.27 1.99 3.22 3.97 6.45 5.94 9.69 0.564 0.912 1.13 1.82 1.71 2.76 0.538 0.886 1.08 1.77 1.63 2.69 0.497 0.812 0.995 1.62 1.51 2.46 1.26 2.49 1.8 4.66 2.22 7.4-23.5 12.4-47.6 19.1-73.9 12-13.1-4.08-23.4-10.4-33.1-20-0.625-0.59-1.25-1.18-1.89-1.79-12.8-13.1-18.2-33.4-18.1-51.3 0.642-22.2 9.56-40.8 25.3-56.2 27.7-24 70.7-25.8 99.6-3.51zm-82.8 25.6c-9.67 11.8-11.4 25.4-11.2 40.2 6.83-0.544 12.7-3.01 19.1-5.5 2.56-0.988 5.11-1.97 7.67-2.96 0.7-0.269 1.4-0.539 2.12-0.816 10.6-4.08 21.3-7.98 32-11.9 2.1-0.775 4.2-1.55 6.3-2.32 4.96-1.83 9.93-3.66 14.9-5.49 0-6.45-3.77-10.6-8.09-15.2-9.77-9.17-19.5-11.3-32.5-11.1-12 0.522-22.1 6.41-30.2 15.1z" fill="#000101"/>
<path transform="translate(247 138)" d="m0 0c3.56 1.4 5.84 3.75 8.43 6.46 0.753 0.755 0.753 0.755 1.52 1.53 3.67 3.76 3.67 3.76 3.67 6.04 0.841 0.352 0.841 0.352 1.7 0.711 2.86 1.6 4.81 3.58 7.11 5.91 0.811 0.817 1.62 1.63 2.46 2.48 2.06 2.19 4.03 4.4 5.99 6.67 4.03 4.64 8.36 8.92 12.7 13.2 5.02 4.93 9.87 9.9 14.5 15.2 2.7 3.08 5.67 5.86 8.63 8.69 7.83 8.49 5.05 25.9 5.15 36.7 0.0196 2 0.0521 4 0.0848 6.01 0.00435 1.25 0.0087 2.5 0.0132 3.78 0.00935 1.12 0.0187 2.23 0.0283 3.39-0.412 3.66-1.4 6.05-3.36 9.17-2.79 0.929-4.54 1.14-7.42 1.18-1.34 0.0193-1.34 0.0193-2.7 0.0389-0.959 0.00739-1.92 0.0148-2.91 0.0224-0.987 0.00807-1.97 0.0161-2.99 0.0245-2.09 0.0138-4.18 0.0246-6.26 0.0324-3.2 0.0173-6.4 0.0612-9.6 0.105-2.03 0.0101-4.05 0.0186-6.08 0.0254-0.959 0.0175-1.92 0.035-2.91 0.0531-0.891-0.00293-1.78-0.00585-2.7-0.00887-1.18 0.0088-1.18 0.0088-2.37 0.0178-2.05-0.488-2.05-0.488-3.81-2.35-1.61-2.77-1.57-4.61-1.5-7.8 0.0148-1.11 0.0296-2.23 0.0449-3.38 0.029-1.18 0.058-2.36 0.0879-3.58 0.0326-2.44 0.0612-4.87 0.0859-7.31 0.0126-1.2 0.0251-2.39 0.0381-3.63 0.00204-7.17-0.51-14.3-0.999-21.4h-35c-0.049 3.37-0.098 6.74-0.148 10.2-0.054 3.25-0.111 6.51-0.169 9.76-0.0383 2.27-0.0732 4.53-0.104 6.8-0.0455 3.25-0.104 6.5-0.164 9.75-0.0173 1.53-0.0173 1.53-0.035 3.08-0.0199 0.941-0.0397 1.88-0.0602 2.85-0.0133 0.831-0.0266 1.66-0.0404 2.52-0.278 2.02-0.278 2.02-2.28 4.02-1.92 0.274-1.92 0.274-4.28 0.306-0.885 0.016-1.77 0.032-2.68 0.0484-0.958 0.00536-1.92 0.0107-2.9 0.0163-0.984 0.00903-1.97 0.0181-2.98 0.0274-2.09 0.0145-4.17 0.0234-6.26 0.0271-3.19 0.0119-6.37 0.061-9.56 0.112-2.03 0.00947-4.05 0.0167-6.08 0.0215-0.952 0.0195-1.9 0.0391-2.89 0.0592-4.44-0.0302-6.72-0.174-10.5-2.72-2.31-3.52-2.56-5.59-2.61-9.79-0.0155-0.658-0.0311-1.32-0.0471-1.99-0.0441-2.12-0.0529-4.24-0.0584-6.37-0.0173-1.46-0.0361-2.92-0.0564-4.38-0.0282-2.16-0.0529-4.32-0.0657-6.48-0.0234-3.82-0.132-7.62-0.394-11.4-0.419-6.88-0.313-11.6 4.08-17.2 1.4-1.44 2.81-2.85 4.25-4.25l2.02-2.55c1.84-2.28 3.67-4.03 5.92-5.89 3.47-2.96 6.21-6.02 9.06-9.56l5-5c0.598-0.784 1.2-1.57 1.81-2.38 1.89-2.27 3.7-3.98 5.94-5.88 3.86-3.29 7.18-6.89 10.5-10.7 1.53-1.75 3.1-3.39 4.76-5.02 0.722-0.722 1.44-1.44 2.19-2.19l2.81-2.81c0.647-0.659 1.29-1.32 1.96-2 0.694-0.703 1.39-1.41 2.1-2.13 0.651-0.663 1.3-1.33 1.97-2.01 5.11-4.86 5.11-4.86 8.35-4.89z" fill="#3773FA"/>
<path transform="translate(1325,205)" d="m0 0v2c0.87 0.396 0.87 0.396 1.76 0.801 14.7 7.89 22.6 24.3 28.2 39.2 0.433 1.11 0.866 2.23 1.31 3.38 0.739 2.82 0.723 3.95-0.312 6.62-2.7 1.25-5.17 2.14-8 3-1.57 0.48-1.57 0.48-3.18 0.969-2.19 0.667-4.38 1.32-6.58 1.97-2.84 0.931-5.52 2.04-8.26 3.25-4.97 2.04-10.1 3.56-15.3 5.21-3.9 1.28-7.76 2.55-11.5 4.2-3.05 1.33-6.06 2.38-9.22 3.41-1.48 0.513-2.96 1.03-4.43 1.55-0.806 0.284-1.61 0.568-2.44 0.86-0.845 0.298-1.69 0.595-2.56 0.902-6.19 2.18-12.4 4.32-18.6 6.38-4.45 1.48-8.89 2.96-13.3 4.5-1.31 0.454-1.31 0.454-2.65 0.918-2.15 0.725-2.15 0.725-2.98 2.89 1.94 4.09 4.45 6.29 8 9 0.33 0.66 0.66 1.32 1 2 8.28 5.01 16.3 8.26 26 9 0.817 0.0696 1.63 0.139 2.48 0.211 11.7 0.497 22-2.88 31.9-8.79 2.64-1.43 2.64-1.43 5.64-1.43 0.237 0.84 0.474 1.68 0.719 2.55 1.47 3.97 3.45 7.19 5.78 10.7 0.605 0.936 0.605 0.936 1.22 1.89 1.62 2.49 3.17 4.75 5.28 6.86-15.1 13.6-38.4 17-57.9 16.2-13.1-0.97-26.3-4.68-37.1-12.2l-2-1v-2c-0.701-0.214-1.4-0.428-2.12-0.648-3.62-1.7-6.12-4.15-8.88-6.98-0.531-0.54-1.06-1.08-1.61-1.64-3.79-3.93-6.89-7.86-9.39-12.7-0.342-0.574-0.683-1.15-1.04-1.74-7.61-13.5-10.7-33.8-6.7-48.9 0.241-0.777 0.482-1.55 0.73-2.36 0.293-1.06 0.585-2.11 0.887-3.2 1.82-6.31 3.98-12 7.11-17.8 0.668-1.42 1.33-2.83 2-4.25 1.6-3.2 3.34-5.33 6-7.75 1.02-1.36 1.02-1.36 2.06-2.75 5.91-7.18 14.7-12.1 22.9-16.2 0.581-0.314 1.16-0.627 1.76-0.95 20.8-10.9 53.8-11.3 73.2 2.95zm-53.6 16.2c-1.07 0.295-1.07 0.295-2.17 0.596-7.54 2.23-12.9 6.45-18.3 12.2-0.825 0.887-1.65 1.77-2.5 2.69-8.59 10.7-11.2 24.8-10.5 38.3 4.52 1.44 7.75-0.0567 12-1.69 0.802-0.297 1.6-0.594 2.43-0.899 2.64-0.981 5.28-1.98 7.92-2.97 1.83-0.681 3.66-1.36 5.48-2.04 3.8-1.41 7.59-2.83 11.4-4.25 8.25-3.09 16.5-6.12 24.8-9.16 4.03-1.48 8.07-2.97 12.1-4.46 0.701-0.259 1.4-0.517 2.12-0.784 1.58-0.584 3.16-1.17 4.75-1.75-1.24-7.27-4.6-12.1-10-17-1.36-1.27-1.36-1.27-2.75-2.56-5.69-4.64-12.1-6.69-19.2-7.44-0.495-0.495-0.495-0.495-1-1-5.96-0.337-10.9 0.463-16.6 2.19z" fill="#3773FA"/>
<path transform="translate(1029 207)" d="m0 0c9.69 9.32 12.6 20.1 12.9 33.3 0.00568 1.89 7.6e-4 3.79-0.0135 5.68 2.92e-4 1.05 5.84e-4 2.09 8.85e-4 3.17-0.00138 3.41-0.0169 6.82-0.0326 10.2-0.00374 2.38-0.00658 4.76-0.00858 7.15-0.00759 6.23-0.0272 12.5-0.0494 18.7-0.0205 6.38-0.0296 12.8-0.0397 19.1-0.0214 12.5-0.0565 25-0.0977 37.4h-32c-0.00935-2.91-0.0187-5.82-0.0283-8.82-0.0339-9.65-0.0895-19.3-0.156-28.9-0.0394-5.85-0.0716-11.7-0.0871-17.5-0.0152-5.65-0.0497-11.3-0.0973-16.9-0.0148-2.15-0.0227-4.3-0.0236-6.45 0.591-17.1 0.591-17.1-6.22-32.2-5.78-5.75-12.9-7.22-20.8-7.44-11.2 0.339-19.2 3.8-27.6 11.4-12.6 14.4-14.3 30.3-14.4 48.6-0.0187 1.69-0.0383 3.38-0.0587 5.07-0.051 4.42-0.0908 8.83-0.128 13.2-0.0402 4.52-0.0912 9.04-0.141 13.6-0.0964 8.84-0.18 17.7-0.258 26.5h-32v-141c9.24-0.33 18.5-0.66 28-1 3.71 3.71 2.06 15.8 2.06 20.8-0.0158 2.08-0.0348 4.17-0.0625 6.25h2c0.245-0.724 0.49-1.45 0.742-2.2 5.39-12 18.5-20.9 30.3-25.8 20.1-6.88 41.6-5.82 58.4 8.19z" fill="#000102"/>
<path transform="translate(1386,187)" d="m0 0c3.46-0.0579 6.92-0.0936 10.4-0.125 0.985-0.0168 1.97-0.0335 2.98-0.0508 1.41-0.00967 1.41-0.00967 2.85-0.0195 1.3-0.0157 1.3-0.0157 2.63-0.0317 2.15 0.227 2.15 0.227 4.15 2.23 0.57 2.98 0.741 5.98 1 9 6.15 1.61 11.8 2.28 18.2 2.21 0.868-0.00131 1.74-0.00263 2.63-0.00398 2.84-0.00643 5.67-0.0268 8.51-0.047 1.98-0.00628 3.96-0.0115 5.94-0.0158 5.19-0.0132 10.4-0.0377 15.6-0.0654 8.33-0.0433 16.7-0.0728 25-0.096 2.91-0.0103 5.82-0.0273 8.74-0.045 1.77-0.00682 3.54-0.0134 5.31-0.0198 0.814-0.00674 1.63-0.0135 2.47-0.0204 1.89-0.00389 3.78 0.0435 5.67 0.102 1 1 1 1 1.06 3.56-0.0206 0.804-0.0412 1.61-0.0625 2.44-1.48 0.495-1.48 0.495-3 1-0.69 1.66-1.35 3.33-2 5-1.31 1.68-2.65 3.35-4 5-0.709 1.31-1.39 2.64-2 4h-2c-0.371 1.33-0.371 1.33-0.75 2.69-1.33 3.52-2.88 5.42-5.25 8.31-1.74 2.33-3.43 4.7-5.12 7.06-0.442 0.612-0.884 1.22-1.34 1.85-2.1 2.93-4.07 5.78-5.54 9.08h-2c-0.371 1.05-0.371 1.05-0.75 2.12-1.42 3.27-3.12 6.02-5.25 8.88h-2c-0.254 0.882-0.508 1.76-0.77 2.67-1.26 3.4-2.73 5.7-4.92 8.58-3.44 4.56-6.69 9.2-9.87 13.9-0.477 0.594-0.954 1.19-1.45 1.8h-2c-0.251 0.879-0.503 1.76-0.762 2.66-1.28 3.46-2.81 5.79-5.05 8.71-6.01 7.8-6.01 7.8-10.2 16.6h77c-0.33 0.66-0.66 1.32-1 2-0.0845 1.74-0.107 3.48-0.0977 5.23 0.0025 0.929 5e-3 1.86 0.00757 2.81 0.0091 1.18 0.0182 2.37 0.0276 3.58 0.0115 2.03 0.0226 4.06 0.0334 6.09 0.00548 0.998 0.011 2 0.0166 3.02 0.0041 0.747 0.00821 1.49 0.0124 2.26-24.8 1.01-49.6 1.22-74.5 1.24-5.42 0.0056-10.8 0.0299-16.3 0.058-4.21 0.0185-8.42 0.0238-12.6 0.0254-2 0.00302-4 0.011-6.01 0.0242-2.76 0.0169-5.53 0.0152-8.29 0.00869-0.822 0.00921-1.64 0.0184-2.49 0.0279-2.26-0.0169-2.26-0.0169-5.86-0.384-0.66-0.99-1.32-1.98-2-3 0.641-0.895 1.28-1.79 1.94-2.71 9.96-13.6 9.96-13.6 19-27.9 0.516-0.692 0.516-0.692 1.04-1.4h2c0.244-0.697 0.487-1.39 0.738-2.11 1.47-3.36 3.33-6.09 5.45-9.07 0.399-0.568 0.799-1.14 1.21-1.72 1.2-1.7 2.4-3.4 3.6-5.09 1.25-1.77 2.5-3.54 3.75-5.31 0.556-0.788 1.11-1.58 1.68-2.39 1.97-2.89 3.77-5.87 5.52-8.9 0.344-0.461 0.688-0.923 1.04-1.4h2c0.236-0.687 0.472-1.37 0.715-2.08 1.55-3.51 3.62-6.5 5.85-9.61 2.94-4.02 2.94-4.02 5.44-8.31h2c0.249-0.712 0.498-1.42 0.754-2.16 1.38-3.16 3.11-5.59 5.18-8.34 3.02-4.01 5.81-8 8.06-12.5-1.27-0.0251-2.54-0.0501-3.85-0.0759-4.76-0.095-9.53-0.195-14.3-0.296-2.05-0.043-4.1-0.0847-6.16-0.125-33.5-0.66-33.5-0.66-40.7-6.5-4.48-4.94-7.13-8.72-7.1-15.4 0.00322-1.08 0.00645-2.15 0.00977-3.26 0.00838-1.13 0.0168-2.26 0.0254-3.42 0.00451-1.14 0.00902-2.27 0.0137-3.44 0.0118-2.81 0.0283-5.62 0.0488-8.43z" fill="#3873FA"/>
<path transform="translate(249 85.7)" d="m0 0c2.28 1.43 3.98 2.99 5.86 4.91 0.697 0.713 1.39 1.43 2.11 2.16 1.92 2.05 3.75 4.14 5.57 6.28 2.34 2.73 4.76 5.11 7.5 7.44 4.07 3.45 7.83 7.19 11 11.5v2c0.557 0.227 1.11 0.454 1.69 0.688 2.93 1.66 4.94 3.94 7.31 6.31h2c0.217-1.95 0.217-1.95 0.438-3.94 0.438-3.94 0.438-3.94 1.56-5.06 1.78-0.0873 3.56-0.107 5.35-0.0977 1.08 0.00322 2.16 0.00645 3.27 0.00977 1.7 0.0126 1.7 0.0126 3.44 0.0254 1.71 0.00677 1.71 0.00677 3.46 0.0137 2.83 0.0118 5.65 0.0283 8.48 0.0488-0.0174 1.76-0.0174 1.76-0.0352 3.56-0.0327 4.38-0.0126 8.76 0.0229 13.1 0.00808 1.89 0.00209 3.78-0.0186 5.68-0.53 10.6-0.53 10.6 2.78 20.3 2.01 1.73 3.95 2.97 6.25 4.27 1.46 1.53 1.46 1.53 2.69 3.12 2.24 2.89 2.24 2.89 4.75 5.31 1.88 1.88 3.56 3.72 5.25 5.75 3.4 4.09 7.31 7.61 11.2 11.2 2.73 3.45 3.36 5.21 3.07 9.62-1.97 3.1-4.46 5.49-7.12 8-1.02 1.04-1.02 1.04-2.05 2.1-3.83 3.73-3.83 3.73-5.82 4.9-6.93-0.477-11.4-6.3-16-11-0.598-0.557-1.2-1.11-1.81-1.69-1.19-1.31-1.19-1.31-1.19-3.31-0.589-0.251-1.18-0.503-1.79-0.762-2.49-1.39-3.84-2.86-5.65-5.05-2.08-2.47-4.16-4.83-6.5-7.06-2.06-2.12-2.06-2.12-2.06-4.12-0.557-0.227-1.11-0.454-1.69-0.688-2.97-1.69-5.03-3.78-7.31-6.31v-2c-0.557-0.227-1.11-0.454-1.69-0.688-4.76-2.7-8.1-7.2-11.7-11.2-2.75-3.09-5.48-5.9-8.69-8.5-0.969-0.846-1.94-1.69-2.94-2.56v-3c-0.639-0.268-1.28-0.536-1.94-0.812-2.06-1.19-2.06-1.19-3.06-4.19-0.66-0.33-1.32-0.66-2-1-2-1-2-1-3-4-0.66-0.33-1.32-0.66-2-1-2-1-2-1-3-4-1.93-1.09-1.93-1.09-4-2-0.66-0.66-1.32-1.32-2-2-2.93-0.223-2.93-0.223-6 1-1.25 1.64-2.49 3.3-3.59 5.04-1.56 2.17-3.24 3.68-5.28 5.39-3.55 2.98-6.54 6.19-9.54 9.71-2.08 2.41-4.31 4.63-6.59 6.85-0.846 0.887-1.69 1.77-2.56 2.69-2.44 2.31-2.44 2.31-4.62 3.38-2.35 1.22-2.68 2.61-3.81 4.94-1.49 0.495-1.49 0.495-3 1-0.704 1.31-1.36 2.65-2 4-2.53 3.62-3.78 5.01-8 6-1.01 1.77-1.01 1.77-2 4-1.56 2.14-3.21 4.03-5 6h-2c-0.248 0.574-0.497 1.15-0.753 1.74-1.43 2.6-3.09 4.33-5.2 6.41-0.783 0.777-1.57 1.55-2.37 2.35-1.23 1.2-1.23 1.2-2.48 2.43-0.808 0.799-1.62 1.6-2.45 2.42-1.56 1.54-3.12 3.08-4.69 4.61-1.68 1.66-3.28 3.37-4.88 5.1-2.18 1.93-2.18 1.93-6.18 1.93-2.75-1.88-2.75-1.88-5-4v-2c-0.557-0.227-1.11-0.454-1.69-0.688-4.03-2.29-6.76-5.49-9.31-9.31-0.438-2.31-0.438-2.31 0-5 2.97-4.07 6.44-7.44 10-11 0.763-0.949 1.53-1.9 2.31-2.88 2.01-2.47 4.2-4.5 6.62-6.56 3.22-2.73 5.88-5.61 8.55-8.87 2.11-2.37 4.5-4.29 7-6.24 1.62-1.4 1.62-1.4 2.48-3.42 1.25-2.46 2.72-3.72 4.85-5.48 3.22-2.73 6.24-5.54 9.19-8.56 0.846-0.825 1.69-1.65 2.56-2.5 2.45-2.43 2.45-2.43 4.44-5 2.17-2.71 4.52-5.08 7-7.5 1.14-1.14 2.28-2.28 3.42-3.43 1.91-1.91 3.84-3.81 5.76-5.72 1.57-1.56 3.13-3.11 4.7-4.67 0.777-0.769 1.55-1.54 2.36-2.33 4.25-4.23 8.32-8.54 12.2-13.1 2.01-2.32 4.12-4.53 6.29-6.71 0.737-0.752 1.47-1.5 2.23-2.28 2.36-2.09 3.86-3.21 6.96-2.07z" fill="#3C77FA"/>
<path transform="translate(1111,139)" d="m0 0h32v62h38c0.0206 4.1 0.0412 8.21 0.0625 12.4 0.0091 1.3 0.0182 2.59 0.0276 3.93 0.0025 1.01 5e-3 2.03 0.00757 3.07 0.00524 1.04 0.0105 2.08 0.0159 3.16-0.114 2.41-0.114 2.41-1.11 3.41h-37v115h-32v-115h-25c-1-1-1-1-1.11-3.41 0.00524-1.04 0.0105-2.08 0.0159-3.16 0.0025-1.01 5e-3 -2.03 0.00757-3.07 0.0091-1.3 0.0182-2.59 0.0276-3.93 0.0206-4.1 0.0412-8.21 0.0625-12.4h26v-62z" fill="#000102"/>
<path transform="translate(271,16)" d="m0 0c0.33 0.66 0.66 1.32 1 2 2.02 0.652 2.02 0.652 4 1v2c0.33 0.33 0.66 0.66 1 1 1.11-0.0412 2.23-0.0825 3.38-0.125 3.62 0.125 3.62 0.125 5.25 1.5 0.454 0.536 0.908 1.07 1.38 1.62 2.6 1.19 2.6 1.19 5 2v5c0.99 0.33 1.98 0.66 3 1v3c0.66 0.33 1.32 0.66 2 1v2c0.33 0.66 0.66 1.32 1 2-0.66 0.33-1.32 0.66-2 1v2h-2c0.33 1.98 0.66 3.96 1 6-2.77 0.158-4.64 0.163-7.19-1-4.22-1.5-8.37-1.16-12.8-1-0.33-1.98-0.66-3.96-1-6-0.949 0.309-1.9 0.619-2.88 0.938-3.93 1.14-7.82 1.51-11.9 1.82-2.4 0.185-2.4 0.185-5.23 1.25v5c-1.29 0.049-2.58 0.098-3.91 0.148-1.72 0.0751-3.43 0.151-5.15 0.227-0.848 0.0309-1.7 0.0619-2.57 0.0938-5.11 0.237-9.45 1.04-14.4 2.53-3.09 0.543-6.2 0.948-9.31 1.38-7.05 1.03-13.2 2.52-19.7 5.62-0.771 0.303-1.54 0.606-2.34 0.918-8.47 3.44-16.6 7.68-24 13-1.67 1.07-1.67 1.07-3.67 1.07-0.33 0.99-0.66 1.98-1 3-1.37 0.922-2.74 1.84-4.13 2.71-6.33 4.35-11.6 9.88-16.5 15.8-0.465 0.485-0.931 0.969-1.41 1.47h-2l-0.812 2.31c-1.19 2.69-1.19 2.69-2.57 4-2.81 2.93-4.3 6.69-6.11 10.3-1.5 2.4-1.5 2.4-4.5 3.4-0.186 1.42-0.186 1.42-0.375 2.88-0.625 3.12-0.625 3.12-2.62 5.12-0.99-0.66-1.98-1.32-3-2l-0.75 1.88c-1.46 2.48-2.63 3.08-5.25 4.12v8h-2v3h-3c-0.66-0.99-1.32-1.98-2-3l-3-1-1 1c-2.65 0.455-5.32 0.702-8 1 0.33-1.65 0.66-3.3 1-5h2v-4c2.97-0.99 5.94-1.98 9-3l-0.938-2.75c-0.79-2.42-1.49-4.78-2.06-7.25h-5v7h-3v2l-5 2c-1-2-1-2-0.25-5.44 1.15-3.27 1.75-4.4 4.25-6.56 0-1.34-0.0119-2.68-0.0352-4.02-0.00902-0.776-0.018-1.55-0.0273-2.35-0.0116-0.771-0.0232-1.54-0.0352-2.34 0.098-2.3 0.272-4.14 1.1-6.29 3.06-1.25 3.06-1.25 6-2l0.125-2.81 0.875-3.19c1.98-1.03 3.98-2.03 6-3 0.969-2.58 0.969-2.58 1-5 1.98 0.33 3.96 0.66 6 1-0.33-0.99-0.66-1.98-1-3 2.49-0.687 4.38-1 7-1v-2.31-5.69c3.82-1.42 6.91-2.24 11-2v-8c0.99 0.33 1.98 0.66 3 1-0.33 0.99-0.66 1.98-1 3 2.57-1.29 3.01-2.33 4-5-0.298-2.2-0.298-2.2-1-4 3.01-1 5.04-1.1 8.19-1.06 0.901 0.00902 1.8 0.018 2.73 0.0273l2.08 0.0352c-0.495-1.98-0.495-1.98-1-4l2-1v-5c0.99 0.495 0.99 0.495 2 1v5c0.33-1.65 0.66-3.3 1-5h5c0.33 0.66 0.66 1.32 1 2h3c0.495-0.99 0.495-0.99 1-2h-2v-2c-1.65-0.33-3.3-0.66-5-1v-4c3.96-0.495 3.96-0.495 8-1-0.495-1.98-0.495-1.98-1-4h3l-1-3h6v-2c8.2-1.32 15.6-1.03 23 3v-4h-3c0.33-0.66 0.66-1.32 1-2 0.949 0.186 1.9 0.371 2.88 0.562 3.02 0.724 3.02 0.724 5.12-0.562v2c2.64 0.66 5.28 1.32 8 2-0.99-2.97-0.99-2.97-2-6-1.98-0.33-3.96-0.66-6-1v2h-4v-3c-0.99-0.33-1.98-0.66-3-1 0.33-1.65 0.66-3.3 1-5 6.31-0.337 10.4-0.0935 16 3 2.03-0.257 2.03-0.257 4-1 2-0.0385 4-0.0454 6 0v-3c1.77-0.0271 3.54-0.0464 5.31-0.0625 0.986-0.0116 1.97-0.0232 2.99-0.0352 2.7 0.0977 2.7 0.0977 5.7 1.1v-4c0.731 0.183 1.46 0.366 2.21 0.555 2.87 0.459 4.56 0.26 7.35-0.43 3.93-0.861 7.81-1.47 11.8-1.88 0.977-0.098 1.95-0.196 2.96-0.297 2.85 0.0502 4.31 0.476 6.66 2.05z" fill="#3571FA"/>
<path transform="translate(247 138)" d="m0 0c3.71 1.23 5.91 3.58 8.55 6.35 0.753 0.755 0.753 0.755 1.52 1.53 3.67 3.76 3.67 3.76 3.67 6.04 0.561 0.235 1.12 0.469 1.7 0.711 2.86 1.6 4.81 3.58 7.11 5.91 0.811 0.817 1.62 1.63 2.46 2.48 2.06 2.19 4.03 4.4 5.99 6.67 4.03 4.64 8.36 8.92 12.7 13.2 5.02 4.93 9.87 9.9 14.5 15.2 2.7 3.08 5.67 5.86 8.63 8.69 7.83 8.49 5.05 25.9 5.15 36.7 0.0196 2 0.0521 4 0.0848 6.01 0.00435 1.25 0.0087 2.5 0.0132 3.78 0.00935 1.12 0.0187 2.23 0.0283 3.39-0.412 3.66-1.4 6.05-3.36 9.17-3.08 1.03-5.33 1.17-8.56 1.19-1.46 0.0213-1.46 0.0213-2.94 0.043-2.5-0.23-2.5-0.23-4.5-2.23v-2c-1.49 0.495-1.49 0.495-3 1v-2c-1.32 0.33-2.64 0.66-4 1v2c-1.62 0.027-3.25 0.0464-4.88 0.0625-1.36 0.0174-1.36 0.0174-2.74 0.0352-2.38-0.0977-2.38-0.0977-4.38-1.1v-3h-2c0.0116-0.699 0.0232-1.4 0.0352-2.12 0.00902-0.91 0.018-1.82 0.0273-2.76 0.0116-0.905 0.0232-1.81 0.0352-2.74 0.0648-2.4 0.0648-2.4-1.1-4.38h-3c-1.53-3.07-1.1-6.27-1.06-9.62 0.00451-0.706 0.00902-1.41 0.0137-2.14 0.0118-1.74 0.0297-3.49 0.0488-5.23h2c-0.144-0.603-0.289-1.21-0.438-1.83-0.186-0.799-0.371-1.6-0.562-2.42-0.186-0.789-0.371-1.58-0.562-2.39-0.438-2.36-0.438-2.36-0.438-6.36 0.66-0.33 1.32-0.66 2-1h-5c-0.206-0.763-0.413-1.53-0.625-2.31-1.8-3.51-3.81-4.21-7.38-5.69-0.66 0.66-1.32 1.32-2 2-0.33-0.99-0.66-1.98-1-3-2.62-0.0748-4.83-0.0447-7.38 0.625-3.55 0.507-6.22-0.617-9.62-1.62-1.49 0.495-1.49 0.495-3 1v3c-0.495 0.99-0.495 0.99-1 2h-8c0.33-1.98 0.66-3.96 1-6h-4v-2c1.98-0.495 1.98-0.495 4-1-0.165-0.949-0.33-1.9-0.5-2.88-0.5-3.12-0.5-3.12-0.5-5.12 0.66-0.66 1.32-1.32 2-2v-1h10c0.33-1.32 0.66-2.64 1-4h3c-0.33-1.32-0.66-2.64-1-4h3c0.33-0.99 0.66-1.98 1-3-3-1.33-3-1.33-6 0-2.69-0.438-2.69-0.438-5-1 0.156-0.655 0.312-1.31 0.473-1.98 1.55-7.26 1.48-13.7 0.527-21h2c-0.206-0.928-0.412-1.86-0.625-2.81-0.375-3.19-0.375-3.19 1.62-6.19-1.98-0.66-3.96-1.32-6-2 6.11-8.07 6.11-8.07 10.3-7.91z" fill="#3471FA"/>
<path transform="translate(244,88)" d="m0 0v2c0.99 0.66 1.98 1.32 3 2-0.33 0.99-0.66 1.98-1 3-0.99 0.33-1.98 0.66-3 1 1.32 0.33 2.64 0.66 4 1v2c1.32 0.33 2.64 0.66 4 1-0.99 0.33-1.98 0.66-3 1 5.05 0.938 5.05 0.938 10 0 0.99 0.33 1.98 0.66 3 1-0.0232 0.58-0.0464 1.16-0.0703 1.76-0.113 4.91 0.365 8.58 2.07 13.2-0.33 0.66-0.66 1.32-1 2h-5v-2c-1.65 0.33-3.3 0.66-5 1 0.0206 1.24 0.0412 2.47 0.0625 3.75-0.258 2.23-0.258 2.23-1.06 4.25-2.19 1.37-4.37 2.14-6.8 3.02-3.3 1.47-4.36 3.95-6.2 6.98-1.24 1.16-2.51 2.29-3.81 3.38-3.57 3-6.58 6.23-9.6 9.78-2.08 2.41-4.31 4.63-6.59 6.85-0.846 0.887-1.69 1.77-2.56 2.69-2.44 2.31-2.44 2.31-4.62 3.38-2.35 1.22-2.68 2.61-3.81 4.94-1.49 0.495-1.49 0.495-3 1-0.704 1.31-1.36 2.65-2 4-2.53 3.62-3.78 5.01-8 6-1.01 1.77-1.01 1.77-2 4-1.56 2.14-3.21 4.03-5 6h-2c-0.248 0.574-0.497 1.15-0.753 1.74-1.43 2.6-3.09 4.33-5.2 6.41-0.783 0.777-1.57 1.55-2.37 2.35-1.23 1.2-1.23 1.2-2.48 2.43-0.808 0.799-1.62 1.6-2.45 2.42-1.56 1.54-3.12 3.08-4.69 4.61-1.68 1.66-3.28 3.37-4.88 5.1-2.18 1.93-2.18 1.93-6.18 1.93-2.75-1.88-2.75-1.88-5-4v-2c-0.557-0.227-1.11-0.454-1.69-0.688-4.03-2.29-6.76-5.49-9.31-9.31-0.438-2.31-0.438-2.31 0-5 2.97-4.07 6.44-7.44 10-11 0.763-0.949 1.53-1.9 2.31-2.88 2.01-2.47 4.2-4.5 6.62-6.56 3.22-2.73 5.88-5.61 8.55-8.87 2.11-2.37 4.5-4.29 7-6.24 1.62-1.4 1.62-1.4 2.48-3.42 1.25-2.46 2.72-3.72 4.85-5.48 3.22-2.73 6.24-5.54 9.19-8.56 0.846-0.825 1.69-1.65 2.56-2.5 2.45-2.43 2.45-2.43 4.44-5 2.17-2.71 4.52-5.08 7-7.5 1.14-1.14 2.28-2.28 3.42-3.43 1.91-1.91 3.84-3.81 5.76-5.72 1.57-1.56 3.13-3.11 4.7-4.67 0.777-0.769 1.55-1.54 2.36-2.33 4.27-4.25 8.36-8.58 12.3-13.1 1.7-1.97 3.46-3.86 5.29-5.71 0.563-0.578 1.13-1.16 1.71-1.75 1.48-1.25 1.48-1.25 3.48-1.25z" fill="#3773FA"/>
<path transform="translate(69,147)" d="m0 0c1.67 2.93 2.25 5.02 2.23 8.39-0.00137 0.847-0.00274 1.69-0.00415 2.57-0.0128 0.902-0.0256 1.8-0.0388 2.73-0.00572 0.935-0.0114 1.87-0.0173 2.83-0.0597 5.8-0.32 11.6-0.733 17.4-0.747 10.7-0.063 21.1 2.11 31.6 0.431 2.35 0.585 4.59 0.703 6.98 0.468 5 2.83 8.78 5.38 13 1.38 2.48 1.38 2.48 1.88 4.62 0.352 1.97 0.352 1.97 1.98 3.24 2.73 2.91 2.78 6.99 3.48 10.8 1.31 3.54 2.81 4.05 6.04 5.81 1.31 3.69 1.31 3.69 2 7h2c0.66 1.98 1.32 3.96 2 6h6c-0.553 4.03-1.16 8.02-2 12 0.908-0.186 1.82-0.371 2.75-0.562 2.95-0.398 4.55-0.594 7.25 0.562 2 3 2 3 2 6 0.99 0.99 0.99 0.99 2 2v3c0.66 0.33 1.32 0.66 2 1 0.99 0.99 0.99 0.99 2 2 0.99 0.33 1.98 0.66 3 1v2c1.32 0.33 2.64 0.66 4 1l1 4c-0.66 0.33-1.32 0.66-2 1 0.33 0.33 0.66 0.66 1 1 0.235 2.18 0.414 4.37 0.562 6.56 0.0838 1.2 0.168 2.4 0.254 3.63 0.0606 0.927 0.121 1.85 0.184 2.81 1.32-0.33 2.64-0.66 4-1v3c2.12 1.96 3.78 2.94 6.56 3.75 3.6 1.85 4.02 4.57 5.44 8.25 1.58 1.75 1.58 1.75 3 3v2c0.607 0.0645 1.21 0.129 1.84 0.195 2.16 0.805 2.16 0.805 3.54 2.98 0.391 0.889 0.781 1.78 1.18 2.7 1.49 3.36 2.81 5.58 5.44 8.12v2c1.09 0.433 2.19 0.866 3.31 1.31 2.78 1.18 4.75 2.3 6.69 4.69-0.99 0.33-1.98 0.66-3 1h6c0.0825 0.784 0.165 1.57 0.25 2.38l0.75 2.62c1.85 1.05 1.85 1.05 4 2 1.36 1.64 2.7 3.31 4 5 0.66 0.33 1.32 0.66 2 1v3c0.804 0.248 1.61 0.495 2.44 0.75 2.56 1.25 2.56 1.25 3.44 3.31 0.0412 0.639 0.0825 1.28 0.125 1.94-0.33 0.33-0.66 0.66-1 1 0.66 0.33 1.32 0.66 2 1v2c0.66 0.33 1.32 0.66 2 1 1.35 1.31 2.69 2.64 4 4-0.33 0.99-0.66 1.98-1 3 0.897 0.155 0.897 0.155 1.81 0.312 2.61 0.821 3.58 1.47 5.19 3.69 0.519 2.36 1 4.58 1 7 0.472 2.11 0.472 2.11 2 4 3.56 0.819 3.56 0.819 7 1 0.186 1.08 0.186 1.08 0.375 2.19 0.615 2.77 1.51 5.21 2.62 7.81v-2c0.99 0.33 1.98 0.66 3 1v2c0.619 0.0825 1.24 0.165 1.88 0.25 2.12 0.75 2.12 0.75 3.38 2.62 0.75 2.13 0.75 2.13 0.75 5.12l5 1 1 6c5.69 2.1 11 3.45 17 4l-1 6 7 2v1c-6.24 1.23-10.4 1.1-16-2-4.11-2.8-7.86-5.84-11.4-9.38-3.45-3.42-7.16-6.45-10.9-9.51-3.36-2.79-6.04-5.64-8.73-9.11l-2-1v-2c-0.593-0.0902-1.19-0.18-1.8-0.273-2.76-0.912-3.65-2.09-5.45-4.35-2.42-2.91-4.86-5.44-7.75-7.88-3.49-2.96-6.45-6.17-9.41-9.65-2.81-3.27-5.75-6.2-9.15-8.85-2.58-2.12-4.5-4.28-6.44-7v-2c-0.557-0.206-1.11-0.413-1.69-0.625-3.28-1.95-5.02-4.32-7.31-7.38v-2h-2c-1.38-1.36-1.38-1.36-3-3.31-2.93-3.45-5.93-6.8-9-10.1-4.26-4.69-8.23-9.46-12-14.6-0.67-0.902-0.67-0.902-1.35-1.82-15.9-21.4-32.4-44.5-42.6-69.2-0.956-2.02-1.91-4.04-2.88-6.06-7.04-15.2-12.1-31.4-15.1-47.9-0.172-0.891-0.344-1.78-0.521-2.7-1.53-8.67-1.79-17.1-1.74-25.9 0.0107-2.34 4.48e-5 -4.68-0.0127-7.01-0.024-23.9-0.024-23.9 4.27-31.4z" fill="#3C77FA"/>
<path transform="translate(1386,187)" d="m0 0c3.46-0.0579 6.92-0.0936 10.4-0.125 0.985-0.0168 1.97-0.0335 2.98-0.0508 1.41-0.00967 1.41-0.00967 2.85-0.0195 1.3-0.0157 1.3-0.0157 2.63-0.0317 2.15 0.227 2.15 0.227 4.15 2.23 0.57 2.98 0.741 5.98 1 9 6.15 1.61 11.8 2.28 18.2 2.21 0.868-0.00131 1.74-0.00263 2.63-0.00398 2.84-0.00643 5.67-0.0268 8.51-0.047 1.98-0.00628 3.96-0.0115 5.94-0.0158 5.19-0.0132 10.4-0.0377 15.6-0.0654 8.33-0.0433 16.7-0.0728 25-0.096 2.91-0.0103 5.82-0.0273 8.74-0.045 1.77-0.00682 3.54-0.0134 5.31-0.0198 0.814-0.00674 1.63-0.0135 2.47-0.0204 1.89-0.00389 3.78 0.0435 5.67 0.102 1 1 1 1 1.06 3.56-0.0206 0.804-0.0412 1.61-0.0625 2.44-1.48 0.495-1.48 0.495-3 1-0.69 1.66-1.35 3.33-2 5-1.31 1.68-2.65 3.35-4 5-0.709 1.31-1.39 2.64-2 4h-2c-0.371 1.33-0.371 1.33-0.75 2.69-1.31 3.48-2.82 5.52-5.25 8.31-0.959 1.36-0.959 1.36-1.94 2.75-2.36 2.57-3.65 2.97-7.06 3.25v-5h-5c-0.33-1.65-0.66-3.3-1-5-1.08 0.26-1.08 0.26-2.19 0.525-2.81 0.476-4.92 0.397-7.75 0.0684-5.82-0.555-11.6-0.759-17.4-0.875-0.938-0.0189-1.88-0.0379-2.84-0.0574-2.93-0.0566-5.86-0.11-8.78-0.161-35.8-0.632-35.8-0.632-43-6.5-4.48-4.94-7.13-8.72-7.1-15.4 0.00322-1.08 0.00645-2.15 0.00977-3.26 0.00838-1.13 0.0168-2.26 0.0254-3.42 0.00451-1.14 0.00902-2.27 0.0137-3.44 0.0118-2.81 0.0283-5.62 0.0488-8.43z" fill="#2F6EF7"/>
<path transform="translate(1420,313)" d="m0 0c0.66 0.33 1.32 0.66 2 1 0.144 1.13 0.289 2.27 0.438 3.44 0.186 1.18 0.371 2.35 0.562 3.56 0.99 0.66 1.98 1.32 3 2 0.33-1.32 0.66-2.64 1-4l4 1-4 1c0.495 1.49 0.495 1.49 1 3 0.33-0.66 0.66-1.32 1-2h9c-0.495-1.98-0.495-1.98-1-4-0.99-0.33-1.98-0.66-3-1v-1h76c-0.33 0.66-0.66 1.32-1 2-0.0845 1.74-0.107 3.48-0.0977 5.23 0.0025 0.929 5e-3 1.86 0.00757 2.81 0.0091 1.18 0.0182 2.37 0.0276 3.58 0.0115 2.03 0.0226 4.06 0.0334 6.09 0.00548 0.998 0.011 2 0.0166 3.02 0.0041 0.747 0.00821 1.49 0.0124 2.26-24.8 1.01-49.6 1.22-74.5 1.24-5.42 0.0056-10.8 0.0299-16.3 0.058-4.21 0.0185-8.42 0.0238-12.6 0.0254-2 0.00302-4 0.011-6.01 0.0242-2.76 0.0169-5.53 0.0152-8.29 0.00869-0.822 0.00921-1.64 0.0184-2.49 0.0279-2.26-0.0169-2.26-0.0169-5.86-0.384-0.66-0.99-1.32-1.98-2-3 0.652-0.906 1.3-1.81 1.98-2.75 4.79-6.68 9.54-13.4 14-20.3 4.88 1.88 4.88 1.88 6 3 4.02 0.229 4.02 0.229 8 0 0.66-0.66 1.32-1.32 2-2 0.66-0.66 1.32-1.32 2-2 0.66 0.33 1.32 0.66 2 1v-2c0.99-0.33 1.98-0.66 3-1z" fill="#3773FA"/>
<path transform="translate(325 351)" d="m0 0c0.577 0.206 1.15 0.413 1.75 0.625-0.165 0.763-0.33 1.53-0.5 2.31-0.591 2.72-0.591 2.72-0.5 5.69-0.99 0.66-1.98 1.32-3 2v2c-0.99 0.33-1.98 0.66-3 1-0.495-0.495-0.495-0.495-1-1-0.206 1.11-0.413 2.23-0.625 3.38-1.38 3.62-1.38 3.62-4.5 5.06-0.949 0.186-1.9 0.371-2.88 0.562 0.99 0.99 0.99 0.99 2 2h-5l-1-2v6c-1.49-0.495-1.49-0.495-3-1h2v-2c-4.34 0.185-4.34 0.185-8 2-0.368 2.33-0.702 4.66-1 7-2-1-2-1-3-4-0.66-0.33-1.32-0.66-2-1h2l-1-2h-8c-0.289 1.13-0.577 2.27-0.875 3.44-0.371 1.18-0.743 2.35-1.12 3.56l-2 1h3c2.01 0.631 4.01 1.29 6 2 0.33-0.99 0.66-1.98 1-3l2 1h4v2h-5l1 6h-2c0.66 3.3 1.32 6.6 2 10 0.99-0.66 1.98-1.32 3-2 0.124 1.11 0.248 2.23 0.375 3.38 0.272 3.66 0.272 3.66 2.62 5.62-0.606 0.534-1.21 1.07-1.84 1.62-4.56 4.05-9 8.17-13.3 12.5-1.62 1.63-3.25 3.25-4.88 4.88-0.701 0.71-1.4 1.42-2.12 2.15-4.54 4.34-7.51 5.96-13.9 5.85-1.49-0.99-1.49-0.99-3-2 3.62-1.32 6.1-2 10-2v-5h-3v4c-0.99-0.495-0.99-0.495-2-1-3.05-1.02-4.94-0.983-8 0v-2c-0.808 0.156-1.62 0.312-2.45 0.473-1.07 0.195-2.14 0.389-3.24 0.59-1.06 0.197-2.11 0.394-3.2 0.598-3.02 0.33-5.19 0.115-8.11-0.66-0.248-0.969-0.495-1.94-0.75-2.94-0.412-1.01-0.825-2.02-1.25-3.06-2.03-0.969-2.03-0.969-4-1 0.99-0.495 0.99-0.495 2-1 0.309-0.804 0.619-1.61 0.938-2.44 1.06-2.56 1.06-2.56 4.06-4.56 2.62-0.188 2.62-0.188 5 0 0.33 0.33 0.66 0.66 1 1 0.33-1.26 0.66-2.52 1-3.81 0.186-0.708 0.371-1.42 0.562-2.14 0.542-2.18 0.542-2.18 0.438-5.04-0.99-0.33-1.98-0.66-3-1-0.495-1.49-0.495-1.49-1-3-0.99-0.433-0.99-0.433-2-0.875-2-1.12-2-1.12-2.75-3.75-0.0825-0.784-0.165-1.57-0.25-2.38h2v3c3.63-0.66 7.26-1.32 11-2 0.66 2.31 1.32 4.62 2 7h2c0.33-0.66 0.66-1.32 1-2 0.495 0.495 0.495 0.495 1 1 0.33-1.65 0.66-3.3 1-5-1.32-0.66-2.64-1.32-4-2 0.33-0.99 0.66-1.98 1-3 4.95-0.495 4.95-0.495 10-1 0.33-2.64 0.66-5.28 1-8l2 1c-0.102-2.95-0.102-2.95-1-6-2.41-1.25-2.41-1.25-5-2-0.66-0.99-1.32-1.98-2-3 0.461-2.04 0.461-2.04 1.38-4.19 0.296-0.715 0.593-1.43 0.898-2.17 0.24-0.543 0.48-1.09 0.727-1.64 5.94-0.893 11.1-0.97 17 0-0.495-1.49-0.495-1.49-1-3 1.98-0.33 3.96-0.66 6-1v2c1.98 0.33 3.96 0.66 6 1 0.33-0.66 0.66-1.32 1-2 1.05 0.0206 2.1 0.0412 3.19 0.0625 3.14-0.0515 5.78-0.328 8.81-1.06-0.99-0.66-1.98-1.32-3-2 2.48-0.495 2.48-0.495 5-1 0.495 1.49 0.495 1.49 1 3 0.99-0.33 1.98-0.66 3-1-0.495-1.98-0.495-1.98-1-4h2c0.66-1.32 1.32-2.64 2-4 0.577 0.206 1.15 0.413 1.75 0.625 2.28 0.606 2.28 0.606 4.25-0.625 2-1 2-1 4.25-0.625z" fill="#306FF9"/>
<path transform="translate(87,139)" d="m0 0c3.47 1.49 3.47 1.49 7 3-0.33 1.32-0.66 2.64-1 4 1.32 0.33 2.64 0.66 4 1 0.33 1.32 0.66 2.64 1 4h3l2 2c-0.33-1.65-0.66-3.3-1-5h-2c-0.33-2.31-0.66-4.62-1-7 6.34-1.34 6.34-1.34 9.22 0.156 1.78 1.84 1.78 1.84 2.17 4.32-0.0464 0.893-0.0928 1.79-0.141 2.71-0.0361 0.901-0.0722 1.8-0.109 2.73-0.0464 0.687-0.0928 1.37-0.141 2.08-1.32-0.33-2.64-0.66-4-1 0.33 0.99 0.66 1.98 1 3-0.0819 2.03-0.254 4.04-0.453 6.06 0.15 0.639 0.299 1.28 0.453 1.94 0.826 0.46 1.65 0.92 2.5 1.39 0.824 0.53 1.65 1.06 2.5 1.61 0.418 2.64 0.418 2.64 0.188 5.69-0.299 4.35 0.121 7.75 1.27 12 1.39 6.05 1.7 12.4 2.31 18.5 0.674 6.36 1.72 12.3 3.63 18.4 0.634 2.56 0.707 4.8 0.601 7.43-0.99-0.33-1.98-0.66-3-1 0.495-1.98 0.495-1.98 1-4-0.99 0.33-1.98 0.66-3 1-2.69-0.938-2.69-0.938-5-2 0.33 0.99 0.66 1.98 1 3-0.438 2.19-0.438 2.19-1 4-2.33 0.0424-4.67 0.0409-7 0-0.495-0.495-0.495-0.495-1-1-0.33 1.65-0.66 3.3-1 5h-2c-0.33-1.65-0.66-3.3-1-5-2.98 0.724-2.98 0.724-4.44 2.56-1.56 1.44-1.56 1.44-5.56 1.44-0.33-2.64-0.66-5.28-1-8h-2c-0.495 0.99-0.495 0.99-1 2v-2c-0.639-0.248-1.28-0.495-1.94-0.75-2.06-1.25-2.06-1.25-2.81-3.38-0.0825-0.619-0.165-1.24-0.25-1.88h2v3h7c0.66 1.65 1.32 3.3 2 5v-3h3c0.495-1.49 0.495-1.49 1-3-1.98 0.495-1.98 0.495-4 1-1.46-2.65-2-3.89-2-7-0.311-1.67-0.641-3.34-1-5h-8c-0.66 1.32-1.32 2.64-2 4-1.89-3.2-2.25-5.55-2.23-9.25 0.00193-1 0.00387-2 0.00586-3.04 0.0122-1.04 0.0245-2.08 0.0371-3.15 6.45e-4 -1.04 0.00129-2.07 0.00195-3.14 0.0268-4.63 0.161-8.89 1.19-13.4 0.66 0.33 1.32 0.66 2 1 0.128-1.29 0.128-1.29 0.26-2.61 0.32-3.2 0.642-6.41 0.967-9.61 0.14-1.39 0.279-2.77 0.416-4.16 0.198-1.99 0.401-3.99 0.603-5.98 0.12-1.2 0.241-2.4 0.365-3.63 0.389-3 0.389-3 1.39-6h2c0.33-2.97 0.66-5.94 1-9h2v-2z" fill="#3571FA"/>
<path transform="translate(1325,205)" d="m0 0v2c0.58 0.264 1.16 0.529 1.76 0.801 14.7 7.89 22.6 24.3 28.2 39.2 0.433 1.11 0.866 2.23 1.31 3.38 0.739 2.82 0.723 3.95-0.312 6.62-2.7 1.25-5.17 2.14-8 3-1.57 0.48-1.57 0.48-3.18 0.969-2.19 0.667-4.38 1.32-6.58 1.97-2.84 0.931-5.52 2.04-8.26 3.25-4.97 2.04-10.1 3.56-15.3 5.21-3.9 1.28-7.76 2.55-11.5 4.2-3.04 1.33-6.06 2.38-9.22 3.41-2.96 1.03-5.92 2.08-8.88 3.12-0.784 0.277-1.57 0.554-2.38 0.84-1.92 0.678-3.83 1.36-5.75 2.04 0.613-2.96 1.25-4.38 3-7h4v-2h3v-2c-0.66-0.33-1.32-0.66-2-1h2v-3c4.45-0.495 4.45-0.495 9-1 0.495 0.99 0.495 0.99 1 2 0.99-0.495 0.99-0.495 2-1 0.495-1.49 0.495-1.49 1-3-0.66-0.33-1.32-0.66-2-1 0.639-0.248 1.28-0.495 1.94-0.75 2.25-1.07 2.25-1.07 2.81-3.38 0.0825-0.619 0.165-1.24 0.25-1.88 0.66 0.33 1.32 0.66 2 1h2c0.66-0.66 1.32-1.32 2-2 0.66-0.66 1.32-1.32 2-2h2v-2c-4.34 0.185-4.34 0.185-8 2-1.53-0.0894-3.05-0.245-4.56-0.438-1.24-0.153-1.24-0.153-2.5-0.309-0.638-0.0838-1.28-0.168-1.93-0.254 3.93-2.62 8.08-4.01 12.5-5.62 1.3-0.487 1.3-0.487 2.63-0.984 0.834-0.307 1.67-0.614 2.53-0.93 1.14-0.421 1.14-0.421 2.31-0.85 2.04-0.611 2.04-0.611 5.04-0.611-0.736-1.71-1.47-3.41-2.21-5.11-0.654-1.56-1.23-3.16-1.79-4.76-0.495-1.05-0.495-1.05-1-2.12-0.99-0.33-1.98-0.66-3-1-1.32-1.49-1.32-1.49-2.69-3.31-4.83-5.84-11.1-7.89-18.3-9.69v-2c-0.99-0.33-1.98-0.66-3-1h4v-2h4v-7c-0.99 0.33-1.98 0.66-3 1-0.33-0.66-0.66-1.32-1-2 1.62-0.168 3.25-0.334 4.88-0.5 1.36-0.139 1.36-0.139 2.74-0.281 2.38-0.219 2.38-0.219 4.38-0.219 0.66-0.33 1.32-0.66 2-1 0.33-0.99 0.66-1.98 1-3 2.47 0.99 2.47 0.99 5 2v-2c4.75-1.53 7.72-0.292 12 2z" fill="#3773F9"/>
<path transform="translate(271,16)" d="m0 0c0.495 0.99 0.495 0.99 1 2 2.02 0.652 2.02 0.652 4 1v2c0.495 0.495 0.495 0.495 1 1 1.11-0.0412 2.23-0.0825 3.38-0.125 3.62 0.125 3.62 0.125 5.25 1.5 0.454 0.536 0.908 1.07 1.38 1.62 2.6 1.19 2.6 1.19 5 2v5c1.49 0.495 1.49 0.495 3 1v3c0.66 0.33 1.32 0.66 2 1v2c0.495 0.99 0.495 0.99 1 2-0.66 0.33-1.32 0.66-2 1v2h-2c0.495 2.97 0.495 2.97 1 6-2.77 0.158-4.64 0.163-7.19-1-4.22-1.5-8.37-1.16-12.8-1-0.495-2.97-0.495-2.97-1-6-0.949 0.309-1.9 0.619-2.88 0.938-3.93 1.14-7.82 1.51-11.9 1.82-2.4 0.185-2.4 0.185-5.23 1.25v5c-1.26 0.049-2.51 0.098-3.8 0.148-8.58 0.371-16.8 0.793-25.2 2.85-0.66-0.99-1.32-1.98-2-3 1.32 0.33 2.64 0.66 4 1v-3c-2.31-0.33-4.62-0.66-7-1v-5c1.32-0.33 2.64-0.66 4-1-0.99-0.33-1.98-0.66-3-1 0.33-0.99 0.66-1.98 1-3-0.66-0.99-1.32-1.98-2-3 1.88-1.06 1.88-1.06 4-2 0.66 0.33 1.32 0.66 2 1v-2h-5v-2h3c-0.33-1.32-0.66-2.64-1-4l9-3c1.01-0.516 2.02-1.03 3.06-1.56 2.94-1.44 2.94-1.44 4.94-1.44v-4c0.731 0.183 1.46 0.366 2.21 0.555 2.87 0.459 4.56 0.26 7.35-0.43 3.93-0.861 7.81-1.47 11.8-1.88 0.977-0.098 1.95-0.196 2.96-0.297 2.85 0.0502 4.31 0.476 6.66 2.05z" fill="#3571FA"/>
<path transform="translate(298 50.9)" d="m0 0c1.6 0.00677 1.6 0.00677 3.24 0.0137 2.63 0.0117 5.26 0.0281 7.88 0.0488v3h7c0.495 1.98 0.495 1.98 1 4 0.66-0.33 1.32-0.66 2-1v2h2v2h8c0.495 1.48 0.495 1.48 1 3h2c0.34 1.21 0.34 1.21 0.688 2.44 0.433 0.846 0.866 1.69 1.31 2.56 2.52 0.737 2.52 0.737 5 1l1 2c2.53 0.656 2.53 0.656 5 1 0.495 2.47 0.495 2.47 1 5l4 1c-0.66 0.33-1.32 0.66-2 1-0.66-0.33-1.32-0.66-2-1v2h9v2c3.05 1.01 3.05 1.01 6 0 0.495 2.97 0.495 2.97 1 6h-1v5c0.66 0.33 1.32 0.66 2 1v5c2.38 1.41 2.38 1.41 5 2h2c0.625 1.81 0.625 1.81 1 4-0.66 0.99-1.32 1.98-2 3 0.33 0.33 0.66 0.66 1 1 0.686 1.32 1.35 2.66 2 4 0.495 0.887 0.99 1.77 1.5 2.69 1.82 4.02 2.68 7.99 3.5 12.3h1c-0.0412 0.866-0.0825 1.73-0.125 2.62 0.131 3.53 0.764 6.12 2.12 9.38 0.66 0.33 1.32 0.66 2 1 0.379 2.65 0.379 2.65 0.562 5.94 0.133 4.18 0.133 4.18 1.44 8.06 0.26 2.82 0.466 5.61 0.625 8.44 0.0516 0.777 0.103 1.55 0.156 2.35 0.198 3.38 0.3 5.96-0.781 9.21 0.162 0.923 0.325 1.85 0.492 2.8 0.55 3.47 0.252 6.01-0.367 9.45-0.665 3.92-1.28 7.79-1.62 11.8-0.379 4.04-0.874 8.05-1.44 12.1-0.153 1.1-0.307 2.21-0.465 3.35-0.197 0.855-0.394 1.71-0.598 2.59-0.66 0.33-1.32 0.66-2 1-1.01-6.29-0.863-11.8 0-18.1 2.87-22.5-0.246-45-9-65.9-0.385-1.01-0.771-2.03-1.17-3.07-4.44-11.4-10.8-21.9-18.6-31.3-1.21-1.64-1.21-1.64-1.21-3.64-1.49-0.495-1.49-0.495-3-1-1.33-1.43-1.33-1.43-2.81-3.31-7.21-8.49-16.4-16.4-26.2-21.7-0.884-0.5-1.77-1-2.68-1.52-5.01-2.79-9.98-5.37-15.3-7.48-1.01-0.402-2.03-0.804-3.07-1.22-5.59-2.19-11.1-4.29-16.9-5.78 0.66-0.33 1.32-0.66 2-1v-2c5.94-1.3 11.8-1.11 17.9-1.06z" fill="#3C77FA"/>
<path transform="translate(224,207)" d="m0 0h2c0.0606 0.678 0.121 1.36 0.184 2.05 0.0838 0.931 0.168 1.86 0.254 2.82 0.0812 0.905 0.162 1.81 0.246 2.74 0.167 1.79 0.342 3.58 0.568 5.36 0.938 7.86 0.934 15.7 0.934 23.6 0.00222 2.42 0.0205 4.85 0.0393 7.27 0.00293 1.54 0.00492 3.09 0.00586 4.63 0.00719 0.724 0.0144 1.45 0.0218 2.19-0.0234 5.08-0.0234 5.08-2.25 7.31-5.85 0.638-11.9 0.784-17.4-1.5-3.86-1.6-6.5-1.67-10.6-1.5-0.66-0.33-1.32-0.66-2-1v2c-1.98-0.33-3.96-0.66-6-1v-3c1.98-0.495 1.98-0.495 4-1-0.33-0.66-0.66-1.32-1-2h-2c-1.2-2.41-1.1-3.95-1.06-6.62 0.0135-1.23 0.0135-1.23 0.0273-2.48 0.0116-0.626 0.0232-1.25 0.0352-1.9-0.804-0.309-1.61-0.619-2.44-0.938-2.56-1.06-2.56-1.06-3.56-2.06v-7c-0.248-1.2-0.495-2.39-0.75-3.62-0.25-3.38-0.25-3.38 1.44-6.25 2.25-2.06 3.33-2.81 6.31-3.12 0.0825-0.784 0.165-1.57 0.25-2.38 0.75-2.62 0.75-2.62 2.81-3.94 0.639-0.227 1.28-0.454 1.94-0.688v6c0.289-0.639 0.577-1.28 0.875-1.94 1.12-2.06 1.12-2.06 3.12-3.06 2-0.04 4-0.0435 6 0-0.33-0.99-0.66-1.98-1-3 0.99-0.33 1.98-0.66 3-1-0.33-0.99-0.66-1.98-1-3h2v2c1.11 0.124 2.23 0.248 3.38 0.375 3.62 0.625 3.62 0.625 5.62 2.62 3.1-0.322 3.1-0.322 6-1v-6z" fill="#3571FA"/>
<path transform="translate(1320,306)" d="m0 0c2.13 2.13 2.98 3.85 4.25 6.56 2.87 5.88 6.09 11.8 10.8 16.4-12.1 10.9-32 16.3-48 16v-3l-4 1v-2c-1.32-0.33-2.64-0.66-4-1v-1c-0.969-0.289-1.94-0.577-2.94-0.875-3.06-1.12-3.06-1.12-4.06-3.12-0.66 0.33-1.32 0.66-2 1-0.193-0.615-0.387-1.23-0.586-1.86-0.26-0.808-0.521-1.62-0.789-2.45-0.255-0.801-0.51-1.6-0.773-2.43-0.84-2.49-0.84-2.49-2.85-5.26-0.385-1.66-0.728-3.32-1-5h2c-0.66-1.98-1.32-3.96-2-6 0.818 0.307 0.818 0.307 1.65 0.621 5.48 1.96 10.5 3.05 16.3 3.38 0.758 0.0529 1.52 0.106 2.3 0.16 12.9 0.487 23.9-3.43 34.7-10.2 0.33-0.33 0.66-0.66 1-1z" fill="#3772F8"/>
<path transform="translate(231 3.44)" d="m0 0c0.808 0.102 1.62 0.204 2.45 0.309 0.615 0.0838 1.23 0.168 1.86 0.254v3c0.99 0.33 1.98 0.66 3 1v-5c4.34 0.483 6.14 1.75 9 5 0.99 0.99 0.99 0.99 2 2h-24v2h-5v-2c-1.32 0.33-2.64 0.66-4 1h3v3c0.99-0.33 1.98-0.66 3-1 0.99 0.66 1.98 1.32 3 2-14.4 0.495-14.4 0.495-29 1v3c-2.32 1.04-4.65 2.03-7 3-0.71 0.298-1.42 0.596-2.15 0.902-5.05 1.92-8.77 2.27-14.1 1.32-0.577-0.0748-1.16-0.15-1.75-0.227-0.495 0.495-0.495 0.495-1 1 0.66 0.99 1.32 1.98 2 3-0.495 0.495-0.495 0.495-1 1 0.99 0.99 1.98 1.98 3 3-3.89 1.5-6.01 2.1-10 1-0.99 0.66-1.98 1.32-3 2-2.19-0.375-2.19-0.375-4-1 0.495 1.98 0.495 1.98 1 4-0.566 0.11-1.13 0.219-1.71 0.332-0.733 0.159-1.47 0.317-2.22 0.48-0.731 0.151-1.46 0.302-2.21 0.457-0.61 0.241-1.22 0.482-1.85 0.73-0.33 0.99-0.66 1.98-1 3h-7l1.94 0.688c2.06 1.31 2.06 1.31 2.81 3.94l0.25 2.38c-1.49 0.495-1.49 0.495-3 1v4l-6 3c-0.33 0.66-0.66 1.32-1 2h-10c-0.227-0.804-0.454-1.61-0.688-2.44-0.433-0.846-0.866-1.69-1.31-2.56-2.55-0.894-2.55-0.894-5-1l-1-3c17.6-16.2 17.6-16.2 23-18 0.66-0.99 1.32-1.98 2-3 1.99-1.02 3.99-2.01 6-3 1.7-1.09 3.38-2.2 5.06-3.31 9.27-5.95 19.2-9.95 29.6-13.5 3.07-1.07 6.08-2.23 9.1-3.41 5.05-1.86 9.89-2.52 15.2-2.75v1c2.27-0.141 4.54-0.288 6.81-0.438 1.26-0.0812 2.53-0.162 3.83-0.246 10.3-0.973 10.3-0.973 11-0.879z" fill="#3C77FB"/>
<path transform="translate(136,260)" d="m0 0c2.79 2.71 5.4 5.44 7.88 8.44 2.58 3.06 5.37 5.6 8.45 8.15 2.39 2.02 4.56 4.11 6.68 6.41v2c0.545 0.248 1.09 0.495 1.65 0.75 2.84 1.51 5.31 3.35 7.91 5.25 12.6 8.85 26 15.4 40.7 19.8 6.38 1.96 6.38 1.96 8.76 3.16 0.33 0.99 0.66 1.98 1 3 2.31 0.33 4.62 0.66 7 1v2c3.86 1.29 7.56 1.37 11.6 1.62 0.791 0.125 1.58 0.25 2.4 0.379 0.33 0.66 0.66 1.32 1 2h-6c0.33 0.66 0.66 1.32 1 2-1.79 0.027-3.58 0.0464-5.38 0.0625-0.998 0.0116-2 0.0232-3.02 0.0352-2.6-0.0977-2.6-0.0977-4.6-1.1-3.39-0.0258-6.76 0.0282-10.1 0.127-3.85 0.06-5.57 0.0637-8.85-2.13v-2h-13v-2c-1.32-0.33-2.64-0.66-4-1v-3h-4v-3c-1.64-0.186-1.64-0.186-3.31-0.375-3.69-0.625-3.69-0.625-6.69-2.62v-2c-0.99 0.33-1.98 0.66-3 1l-2-1v-2c-0.516-0.248-1.03-0.495-1.56-0.75-3.21-1.65-6.31-3.45-9.44-5.25v-2c-0.638-0.17-1.28-0.34-1.93-0.516-0.826-0.242-1.65-0.485-2.5-0.734-0.824-0.232-1.65-0.464-2.5-0.703-2.07-1.05-2.07-1.05-2.85-3.16-0.0709-0.624-0.142-1.25-0.215-1.89h-3c0.33-1.32 0.66-2.64 1-4-0.99 0.33-1.98 0.66-3 1-4-5.75-4-5.75-4-8h-2c-0.33-1.32-0.66-2.64-1-4h-2c-2.44-4.88-3.47-7.53-2-13 1.49 0.99 1.49 0.99 3 2 0.66-1.32 1.32-2.64 2-4z" fill="#3B75F5"/>
<path transform="translate(284,4)" d="m0 0c7.88 0.349 14.6 2.34 22 5 1.52 0.482 3.04 0.962 4.56 1.44 5.33 1.78 10.4 4.15 15.4 6.56 1.17 0.536 1.17 0.536 2.36 1.08 12.1 5.76 23.4 13.2 33.6 21.9 0.639 0.507 1.28 1.01 1.94 1.54 1.39 1.11 2.74 2.28 4.06 3.46v2h2v2c0.547 0.22 1.09 0.441 1.66 0.668 3.09 1.76 5.39 4.12 7.84 6.64 0.473 0.474 0.946 0.947 1.43 1.44 8.07 8.17 8.07 8.17 8.07 11.3-1.65 0.66-3.3 1.32-5 2 0.66 0.66 1.32 1.32 2 2-1.98-0.33-3.96-0.66-6-1v-2h-2c-0.619-0.784-1.24-1.57-1.88-2.38-2.55-3.15-4.42-4.23-8.31-5.12-0.897-0.248-0.897-0.248-1.81-0.5-0.33-0.66-0.66-1.32-1-2-1.49-0.495-1.49-0.495-3-1l-1-7c-1.45-0.186-1.45-0.186-2.94-0.375-1.01-0.206-2.02-0.412-3.06-0.625-1.33-2.67-0.671-4.17 0-7-3.3-0.33-6.6-0.66-10-1v-3c-1.98-0.495-1.98-0.495-4-1-1-4.88-1-4.88-1-6-1.98-0.33-3.96-0.66-6-1v-2c1.98-0.33 3.96-0.66 6-1v-1c-3.3-0.33-6.6-0.66-10-1v3c-2.97-0.33-5.94-0.66-9-1 0.33-1.32 0.66-2.64 1-4 1.65 0.33 3.3 0.66 5 1-0.495-1.48-0.495-1.48-1-3-0.759 0.0838-1.52 0.168-2.3 0.254-0.994 0.102-1.99 0.204-3.01 0.309-0.986 0.104-1.97 0.209-2.99 0.316-2.7 0.121-2.7 0.121-5.7-0.879-2-0.352-4-0.688-6-1 0.495-1.48 0.495-1.48 1-3-0.598 0.227-1.2 0.454-1.81 0.688-0.722 0.103-1.44 0.206-2.19 0.312-1.69-1.44-1.69-1.44-3-3h-1c-0.33 0.99-0.66 1.98-1 3-2.97-0.495-2.97-0.495-6-1-0.33-1.32-0.66-2.64-1-4h-11c0.33 0.66 0.66 1.32 1 2-2.31-0.66-4.62-1.32-7-2v-6c4.95-1.49 4.95-1.49 10-3v-2z" fill="#3C77FB"/>
<path transform="translate(339,283)" d="m0 0v3h4c1.12 3.75 1.12 3.75 0 6h2v7c-1.98-0.33-3.96-0.66-6-1-0.0825 1.11-0.165 2.23-0.25 3.38-0.75 3.62-0.75 3.62-2.5 5.12-2.72 0.603-4.59 0.239-7.25-0.5v2h2c-0.33 0.66-0.66 1.32-1 2h-10c-0.33 1.98-0.66 3.96-1 6h-3c-1.49 0.495-1.49 0.495-3 1-3.34-0.172-6.64-0.514-9.97-0.844-3.08-0.343-3.08-0.343-6.03 0.844l2 1v2c-4.95 0.495-4.95 0.495-10 1l1 1v2c-6.25 0.833-11.8 1.04-18 0-0.33 1.65-0.66 3.3-1 5-6.73 1.79-11.4 2.22-18 0 0.66-0.66 1.32-1.32 2-2-1.65-0.99-3.3-1.98-5-3 0.33-0.66 0.66-1.32 1-2 0.949 0.0412 1.9 0.0825 2.88 0.125 3.23 0.225 3.23 0.225 5.12-2.12 2.56-0.381 5.1-0.506 7.69-0.656 2.5-0.138 2.5-0.138 4.31-2.34-2.64 0.33-5.28 0.66-8 1 2-3 2-3 3.81-3.61 0.726-0.114 1.45-0.227 2.2-0.344 0.813-0.139 1.63-0.279 2.47-0.422 0.875-0.143 1.75-0.286 2.65-0.433 20.3-3.73 44.7-12.9 58.9-28.4 1.96-1.77 1.96-1.77 5.96-1.77z" fill="#3B74F4"/>
<path transform="translate(1210,258)" d="m0 0h1c0.0501 0.609 0.1 1.22 0.152 1.84 1.09 20.3 1.09 20.3 7.85 39.2h3c0.0412 0.598 0.0825 1.2 0.125 1.81 1.31 3.27 3.79 3.71 6.88 5.19 0.961 2.88 1.11 4.7 1.06 7.69-0.00902 0.808-0.018 1.62-0.0273 2.45-0.0116 0.615-0.0232 1.23-0.0352 1.86 2.47-0.495 2.47-0.495 5-1v-3c4.35-0.373 6.4 0.63 10 3 1.99 1.02 3.99 2.02 6 3l2 1c0.66-0.99 1.32-1.98 2-3h2v3h6c-0.33-0.66-0.66-1.32-1-2 0.99 0.33 1.98 0.66 3 1 1.06 2.81 1.06 2.81 2 6 0.635 1.35 1.3 2.68 2 4 0.309 0.701 0.619 1.4 0.938 2.12 1.06 2.2 1.06 2.2 4.06 3.88v1c1.98 0.33 3.96 0.66 6 1v2c2.65 1.46 3.89 2 7 2v2c-16.3 3.13-33.2-2.51-47-11-0.66-0.33-1.32-0.66-2-1v-2c-0.701-0.214-1.4-0.428-2.12-0.648-3.62-1.7-6.12-4.15-8.88-6.98-0.531-0.54-1.06-1.08-1.61-1.64-3.79-3.93-6.89-7.86-9.39-12.7-0.512-0.86-0.512-0.86-1.04-1.74-6.4-11.4-7.62-23.5-6.96-36.3h1c0.33-3.96 0.66-7.92 1-12z" fill="#3C77FA"/>
<path transform="translate(1311 254)" d="m0 0c0.578 0.206 1.15 0.412 1.75 0.625 0.495 1.98 0.495 1.98 1 4-3.92 1.78-6.69 3-11 3-0.33 0.99-0.66 1.98-1 3-0.66 0.66-1.32 1.32-2 2-0.648 2.57-0.648 2.57-1 5-0.99-0.33-1.98-0.66-3-1v-2c-4.45 0.495-4.45 0.495-9 1v6h-3v2c-0.598 0.0412-1.2 0.0825-1.81 0.125-0.722 0.289-1.44 0.577-2.19 0.875-0.365 0.941-0.73 1.88-1.11 2.85-2.66 4.43-5.59 5.01-10.4 6.4-1.21 0.375-1.21 0.375-2.44 0.759-5.27 1.59-10.5 2.87-16 3.67-2.26 0.296-2.26 0.296-5.07 1.32 1.65-3.58 3.78-6.75 6-10-2.97 0.33-5.94 0.66-9 1v-2c-0.66-0.33-1.32-0.66-2-1 0.495-1.49 0.495-1.49 1-3h2v-2c-0.99-0.33-1.98-0.66-3-1 7.32-2.88 14.6-5.72 22-8.54 2.49-0.961 4.98-1.93 7.47-2.91 3.59-1.41 7.18-2.79 10.8-4.17 1.1-0.437 2.19-0.875 3.33-1.33 6.54-2.47 11.9-3.47 18.9-3.01 3.45-0.0558 5.49-2.22 8.82-1.67z" fill="#3B75F5"/>
<path transform="translate(1386,187)" d="m0 0c3.46-0.0579 6.92-0.0936 10.4-0.125 0.985-0.0168 1.97-0.0335 2.98-0.0508 1.41-0.00967 1.41-0.00967 2.85-0.0195 1.3-0.0157 1.3-0.0157 2.63-0.0317 2.15 0.227 2.15 0.227 4.15 2.23 0.414 2.16 0.414 2.16 0.625 4.62 0.0748 0.817 0.15 1.63 0.227 2.48 0.0735 0.94 0.0735 0.94 0.148 1.9 1.65 0.66 3.3 1.32 5 2-0.33 1.65-0.66 3.3-1 5 1.24-0.248 1.24-0.248 2.5-0.5 3.91-0.559 7.55-0.568 11.5-0.5 1.06 2.38 1.06 2.38 2 5-0.33 0.66-0.66 1.32-1 2-8.29 2.44-15.9 0.223-24-2v2h5c-0.33 0.99-0.66 1.98-1 3h-2c-0.33-0.33-0.66-0.66-1-1v4c0.66-0.33 1.32-0.66 2-1v3h10c0.33 0.66 0.66 1.32 1 2-2.97 0.495-2.97 0.495-6 1 0.33 1.32 0.66 2.64 1 4-8.19 0.623-14.5 0.388-21-5-4.48-4.94-7.13-8.72-7.1-15.4 0.00322-1.08 0.00645-2.15 0.00977-3.26 0.00838-1.13 0.0168-2.26 0.0254-3.42 0.00451-1.14 0.00902-2.27 0.0137-3.44 0.0118-2.81 0.0283-5.62 0.0488-8.43z" fill="#3470FA"/>
<path transform="translate(314,123)" d="m0 0h4c0.00935 1.04 0.0187 2.08 0.0283 3.15 0.0399 3.86 0.106 7.72 0.179 11.6 0.0282 1.67 0.0494 3.34 0.0635 5.01 0.0214 2.4 0.0681 4.81 0.12 7.21 0.00123 0.745 0.00246 1.49 0.00372 2.26 0.102 3.61 0.33 5.45 2.64 8.29 0.647 0.494 1.29 0.988 1.96 1.5-0.66 0.66-1.32 1.32-2 2-1.32-0.66-2.64-1.32-4-2-0.66 1.98-1.32 3.96-2 6-8.63-0.996-8.63-0.996-11-3-0.75-3.62-0.75-3.62-1-7-1.05 0.268-2.1 0.536-3.19 0.812-3.81 0.188-3.81 0.188-6.56-2.06-0.743-0.908-1.49-1.81-2.25-2.75-0.598-0.474-1.2-0.949-1.81-1.44-1.79-2.36-1.19-4.67-1.19-7.56-1.25-1.92-1.25-1.92-3-3h-2v-4c3.48-1.16 5.46-0.708 9 0v-4h3v-2c4.62-2.12 4.62-2.12 8-1v-2c2.48 0.495 2.48 0.495 5 1v-2c0.804-0.268 1.61-0.536 2.44-0.812 0.846-0.392 1.69-0.784 2.56-1.19 0.33-0.99 0.66-1.98 1-3z" fill="#3773FA"/>
<path transform="translate(247 138)" d="m0 0c3.71 1.23 5.91 3.58 8.55 6.35 0.753 0.755 0.753 0.755 1.52 1.53 3.67 3.76 3.67 3.76 3.67 6.04 0.556 0.231 1.11 0.461 1.68 0.699 2.94 1.65 5 3.72 7.38 6.11 0.857 0.852 1.71 1.7 2.6 2.58 2.18 2.42 3.78 4.76 5.34 7.61h-2c-0.33 1.32-0.66 2.64-1 4h-2c-0.33-1.65-0.66-3.3-1-5-1.65-0.33-3.3-0.66-5-1 0.33 1.65 0.66 3.3 1 5 1.49-0.495 1.49-0.495 3-1 0.33 0.99 0.66 1.98 1 3 0.99 0.33 1.98 0.66 3 1 0.66-0.99 1.32-1.98 2-3 1.32 0.33 2.64 0.66 4 1 0.625 2.31 0.625 2.31 1 5-0.66 0.99-1.32 1.98-2 3l-2-1c-0.103 0.619-0.206 1.24-0.312 1.88-0.688 2.12-0.688 2.12-3.69 4.12v3c-6.72 1.37-6.72 1.37-10 0-2.75-1.88-2.75-1.88-5-4v-3c1.49 0.495 1.49 0.495 3 1-0.784-3.92-2.19-7.44-4-11-1.32-0.372-2.66-0.706-4-1-1.07-1.97-2.07-3.97-3-6-0.66-0.33-1.32-0.66-2-1-0.66-0.33-1.32-0.66-2-1-0.625-2.56-0.625-2.56-1-5h3c-2.31-0.66-4.62-1.32-7-2-0.625-2.31-0.625-2.31-1-5 0.66-0.99 1.32-1.98 2-3-1.98-0.66-3.96-1.32-6-2 6.11-8.07 6.11-8.07 10.3-7.91z" fill="#306FF9"/>
<path transform="translate(223,148)" d="m0 0c0 3 0 3-2.19 5.38-0.928 0.866-1.86 1.73-2.81 2.62-0.846 0.887-1.69 1.77-2.56 2.69-2.44 2.31-2.44 2.31-4.62 3.38-2.35 1.22-2.68 2.61-3.81 4.94-1.49 0.495-1.49 0.495-3 1-0.704 1.31-1.36 2.65-2 4-2.53 3.62-3.78 5.01-8 6-1.01 1.77-1.01 1.77-2 4-1.56 2.14-3.21 4.03-5 6h-2c-0.248 0.574-0.497 1.15-0.753 1.74-1.43 2.6-3.09 4.33-5.2 6.41-0.783 0.777-1.57 1.55-2.37 2.35-0.819 0.802-1.64 1.6-2.48 2.43-0.808 0.799-1.62 1.6-2.45 2.42-1.56 1.54-3.12 3.08-4.69 4.61-1.68 1.66-3.28 3.37-4.88 5.1-2.18 1.93-2.18 1.93-6.18 1.93-2.75-1.88-2.75-1.88-5-4v-2c-0.557-0.227-1.11-0.454-1.69-0.688-4.03-2.29-6.76-5.49-9.31-9.31-0.52-2.75-0.464-4.31 1.12-6.66 1.24-1.49 2.56-2.92 3.88-4.34 1.32 0.66 2.64 1.32 4 2v10h5c0.33-0.66 0.66-1.32 1-2 1.32 0.33 2.64 0.66 4 1-0.66 1.32-1.32 2.64-2 4 3.46 0.495 3.46 0.495 7 1 0.103-0.619 0.206-1.24 0.312-1.88 0.688-2.12 0.688-2.12 3.69-4.12 0.66 0.33 1.32 0.66 2 1-0.33-0.99-0.66-1.98-1-3 0.938-2.19 0.938-2.19 2-4h3c0.33-0.99 0.66-1.98 1-3 2.97 0.495 2.97 0.495 6 1 0.113-0.727 0.227-1.45 0.344-2.2 0.68-2.9 1.67-4.98 3.16-7.55 0.443-0.779 0.887-1.56 1.34-2.36 1.16-1.89 1.16-1.89 2.16-2.89l-1-2h4c0.0412-0.598 0.0825-1.2 0.125-1.81 1.31-3.29 3.76-3.76 6.88-5.19 0.33-0.66 0.66-1.32 1-2h3v-3c1.64-1.05 3.3-2.05 5-3 0.33-0.66 0.66-1.32 1-2h3c0.248-0.598 0.495-1.2 0.75-1.81 1.48-2.59 2.67-3.68 5.25-5.19 3.25-0.688 3.25-0.688 6-1z" fill="#3C77FB"/>
<path transform="translate(1318,201)" d="m0 0c-0.33 0.66-0.66 1.32-1 2h-4v2c-2.47-0.495-2.47-0.495-5-1-0.33 0.66-0.66 1.32-1 2 0.66 0.33 1.32 0.66 2 1-1.98 0.66-3.96 1.32-6 2v-2c-2.64 0.66-5.28 1.32-8 2h2v7h-4c-0.495 2.47-0.495 2.47-1 5-0.495-0.165-0.99-0.33-1.5-0.5-7.63-1.53-13.3 0.179-20.5 2.72-3.78 0.995-5.56 0.475-8.95-1.22-0.407-2.32-0.744-4.66-1-7 0.99-0.33 1.98-0.66 3-1-0.186-0.639-0.371-1.28-0.562-1.94-0.144-0.681-0.289-1.36-0.438-2.06 1-1 1-1 4.44-1.19 3.56 0.188 3.56 0.188 5.56 2.19 3.25 1.23 5.69 0.984 9 0 0.33-0.66 0.66-1.32 1-2 0.99 0.33 1.98 0.66 3 1-0.66-1.32-1.32-2.64-2-4h-3v-5c-0.908 0.0619-1.82 0.124-2.75 0.188-3.54-0.204-4.78-0.714-7.25-3.19v-2c16-3.22 33-1.29 48 5z" fill="#346FF6"/>
<path transform="translate(1434,316)" d="m0 0h76c-0.66 0.33-1.32 0.66-2 1v22h-13v-1c-3.63-0.66-7.26-1.32-11-2v-2c-2.97 0.495-2.97 0.495-6 1-0.66-1.32-1.32-2.64-2-4-0.99 0.33-1.98 0.66-3 1-0.495-2.48-0.495-2.48-1-5 5.94-0.495 5.94-0.495 12-1v-5h-8v5c-2.12 0.0539-4.25 0.0927-6.38 0.125-1.78 0.0348-1.78 0.0348-3.59 0.0703-3.04-0.195-3.04-0.195-5.04-2.2h13v-2c-1.25 0.178-1.25 0.178-2.52 0.359-1.09 0.129-2.17 0.258-3.29 0.391-1.08 0.139-2.16 0.278-3.27 0.422-2.92-0.172-2.92-0.172-4.8-2.09-1.11-2.08-1.11-2.08-1.11-3.08-8.25-0.33-16.5-0.66-25-1v-1z" fill="#3067E5"/>
<path transform="translate(295,210)" d="m0 0 2 1c0.33 0.99 0.66 1.98 1 3 0.99 0.33 1.98 0.66 3 1v2c1.32 0.33 2.64 0.66 4 1-0.33 0.33-0.66 0.66-1 1 1.21 0.65 1.21 0.65 2.44 1.31 2.56 1.69 2.56 1.69 3.56 4.69-0.164 0.643-0.327 1.29-0.496 1.95-0.708 2.88 0.234 5.15 1.02 7.95 0.707 3.1 0.612 5.94 0.48 9.11-1.32 0.66-2.64 1.32-4 2 1.32 0.33 2.64 0.66 4 1-0.928 0.144-1.86 0.289-2.81 0.438-3.19 0.484-3.19 0.484-6.19 1.56-0.33 0.66-0.66 1.32-1 2v-2h-5c0.33 0.99 0.66 1.98 1 3h-3c-0.778-2.33-1.42-4.61-2-7-0.66 1.32-1.32 2.64-2 4-0.248-0.639-0.495-1.28-0.75-1.94-1.07-2.25-1.07-2.25-3.38-2.81-0.619-0.0825-1.24-0.165-1.88-0.25v-3c-0.99-0.33-1.98-0.66-3-1h3c0.049-0.915 0.098-1.83 0.148-2.77 0.0748-1.19 0.15-2.38 0.227-3.6 0.0696-1.18 0.139-2.37 0.211-3.59 0.414-3.04 0.414-3.04 2.41-5.04 0.673-1.97 0.673-1.97 1.12-4.12 0.433-1.92 0.433-1.92 0.875-3.88-0.66-0.33-1.32-0.66-2-1 1.32-1.32 2.64-2.64 4-4 0.66 0.33 1.32 0.66 2 1 0.66-0.99 1.32-1.98 2-3z" fill="#306FF9"/>
<path transform="translate(215,216)" d="m0 0c0.99 0.33 1.98 0.66 3 1-0.0206 0.887-0.0412 1.77-0.0625 2.69 0.0554 2.93 0.393 5.47 1.06 8.31h3c1.76 3.33 2.11 4.59 1.12 8.31-0.371 0.887-0.743 1.77-1.12 2.69-0.99-0.33-1.98-0.66-3-1v3c2.94-0.184 2.94-0.184 6-1 0.66-1.32 1.32-2.64 2-4v16l-5-5h-4c-0.976 2.93-1.08 4.96-1 8-2.64-0.66-5.28-1.32-8-2v2c2.47-0.495 2.47-0.495 5-1v2c-7.77 2.2-7.77 2.2-11.7 1.56-3.5-2.37-6.39-4.73-8.31-8.56 0.0448-3.23 1-5.96 2-9 0.155-1.7 0.155-1.7 0.312-3.44 0.688-2.56 0.688-2.56 3.06-3.94 2.62-0.625 2.62-0.625 5.62-0.625-0.186-0.598-0.371-1.2-0.562-1.81-0.438-2.19-0.438-2.19 0.562-5.19 1.32 0.33 2.64 0.66 4 1v-2c2.97 0.495 2.97 0.495 6 1v-3c-0.66-0.66-1.32-1.32-2-2 0.66-1.32 1.32-2.64 2-4z" fill="#306FF9"/>
<path transform="translate(241,21)" d="m0 0v2h12v3c0.639 2.34 1.31 4.67 2 7 0.495 1.98 0.495 1.98 1 4-2.97 0.33-5.94 0.66-9 1 0.66 0.33 1.32 0.66 2 1v2c-2 2-2 2-4.62 2.12-0.784-0.0413-1.57-0.0825-2.38-0.125-0.33 0.99-0.66 1.98-1 3-2.06 0.688-2.06 0.688-4 1v2h3v2c-1.91 0.533-3.83 1.05-5.75 1.56-1.07 0.29-2.13 0.58-3.23 0.879-2.86 0.53-4.37 0.691-7.02-0.441-0.33-0.66-0.66-1.32-1-2 1.32 0.33 2.64 0.66 4 1v-3c-2.31-0.33-4.62-0.66-7-1v-5c1.32-0.33 2.64-0.66 4-1-0.99-0.33-1.98-0.66-3-1 0.33-0.99 0.66-1.98 1-3-0.66-0.99-1.32-1.98-2-3 1.88-1.06 1.88-1.06 4-2 0.66 0.33 1.32 0.66 2 1v-2h-5v-2h3c-0.33-1.32-0.66-2.64-1-4 3-1 6-2 9-3 0.619-0.351 1.24-0.701 1.88-1.06 2.51-1.11 4.41-1.09 7.12-0.938z" fill="#306FF9"/>
<path transform="translate(414,175)" d="m0 0c2.97 0.495 2.97 0.495 6 1v18h-2v-2c-0.99 0.66-1.98 1.32-3 2 0.66 0.33 1.32 0.66 2 1-0.33 0.66-0.66 1.32-1 2v2c-0.33 0.99-0.66 1.98-1 3h5c0.437 5.33 0.437 5.33 0 8-2.41 2.03-3.83 3-7 3-0.33 0.66-0.66 1.32-1 2 0.66 0.33 1.32 0.66 2 1v1c0.66 0.33 1.32 0.66 2 1v3c-5.19 0.212-9.13-0.409-14-2v-2h-6c0.165-0.908 0.33-1.82 0.5-2.75 0.601-3.36 0.601-3.36 0.5-7.25 0.248-1.7 0.248-1.7 0.5-3.44 0.412-2.94 0.674-5.61 0.5-8.56-0.33-0.33-0.66-0.66-1-1v-5c3.63 0.66 7.26 1.32 11 2 0.33-2.97 0.66-5.94 1-9h7c-0.33-0.598-0.66-1.2-1-1.81-1-2.19-1-2.19-1-5.19z" fill="#306FF9"/>
<path transform="translate(908,202)" d="m0 0h11v1h-8c9.22e-4 0.674 0.00184 1.35 0.00279 2.04 0.0221 16.4 0.0386 32.8 0.049 49.2 0.00515 7.94 0.0122 15.9 0.0236 23.8 0.00998 6.92 0.0164 13.8 0.0186 20.8 0.0013 3.66 0.00435 7.32 0.0116 11 0.00808 4.09 0.00826 8.18 0.0078 12.3 0.0036 1.21 0.00719 2.42 0.0109 3.66-0.00678 5.52-0.129 10.8-1.12 16.2h-2v-140z" fill="#020305"/>
<path transform="translate(1422,281)" d="m0 0c0.33 0.99 0.66 1.98 1 3h4v2c-0.639 0.557-1.28 1.11-1.94 1.69-2.68 3.01-2.76 5.37-3.06 9.31-2.47-0.495-2.47-0.495-5-1v2c0.66 0.33 1.32 0.66 2 1-0.66 0.66-1.32 1.32-2 2 0.33 0.66 0.66 1.32 1 2h-2c0.33 1.32 0.66 2.64 1 4 1.32 0.33 2.64 0.66 4 1-0.99 0.99-1.98 1.98-3 3h2c-0.33 1.32-0.66 2.64-1 4-0.66-0.33-1.32-0.66-2-1v2c-1.48 0.495-1.48 0.495-3 1-0.454 0.508-0.908 1.02-1.38 1.54-2.22 2-3.68 1.86-6.62 1.84-1.3 0.0116-1.3 0.0116-2.62 0.0234-2.77-0.465-3.64-1.25-5.38-3.4 1.33-3.59 2.83-6.84 5-10h2c0.242-0.695 0.485-1.39 0.734-2.11 1.48-3.4 3.38-6.18 5.52-9.21 0.398-0.567 0.796-1.13 1.21-1.72 3.09-4.39 6.27-8.71 9.54-13z" fill="#3C77F9"/>
<path transform="translate(232,117)" d="m0 0h9c0.33 2.64 0.66 5.28 1 8 1.32 0.33 2.64 0.66 4 1-1.4 1.64-2.81 3.28-4.23 4.91-1.2 1.42-2.37 2.88-3.48 4.38-1.66 2.14-3.19 4.01-5.29 5.72-3.88 0.0625-3.88 0.0625-7-1-0.33-0.33-0.66-0.66-1-1-2.33-0.368-4.66-0.702-7-1-0.688-2.31-0.688-2.31-1-5 1.44-1.69 1.44-1.69 3-3v-2c1.32-0.33 2.64-0.66 4-1 0.33-1.65 0.66-3.3 1-5 1.98-0.33 3.96-0.66 6-1 0.33-1.32 0.66-2.64 1-4z" fill="#3470FA"/>
<path transform="translate(1235,234)" d="m0 0c1.32 0.33 2.64 0.66 4 1v3c0.66 0.33 1.32 0.66 2 1-2 3-2 3-3 4 0.498 0.399 0.996 0.797 1.51 1.21 1.49 1.79 1.49 1.79 1.65 3.97-0.0995 0.822-0.199 1.64-0.302 2.49-0.0999 0.893-0.2 1.79-0.303 2.71-0.121 0.929-0.241 1.86-0.365 2.81-0.109 0.94-0.218 1.88-0.33 2.85-0.271 2.32-0.558 4.64-0.857 6.96-0.33-0.99-0.66-1.98-1-3h-2c0.33 2.97 0.66 5.94 1 9h-3c-0.33 0.99-0.66 1.98-1 3-1.48 0.495-1.48 0.495-3 1 0.0206-0.743 0.0412-1.49 0.0625-2.25 0.0538-2.65 0.0538-2.65-0.625-4.75-0.58-2.65-0.232-4.42 0.562-7 1.56-1.81 1.56-1.81 3-3-0.619-0.268-1.24-0.536-1.88-0.812-2.12-1.19-2.12-1.19-4.12-4.19v-3c2.97 0.33 5.94 0.66 9 1-0.433-3.65-0.433-3.65-2.56-6.5-1.44-1.5-1.44-1.5-1.62-4.19 0.0619-0.763 0.124-1.53 0.188-2.31h2c0.33-1.65 0.66-3.3 1-5z" fill="#3571FA"/>
<path transform="translate(1476 223)" d="m0 0c0.846 0.309 1.69 0.619 2.56 0.938v1h6c0.33-0.99 0.66-1.98 1-3 1.09 0.206 2.19 0.412 3.31 0.625 3.77 0.778 3.77 0.778 6.69-1.62-1.27 4.55-2.91 7.45-6 11-0.639 0.907-1.28 1.81-1.94 2.75-2.36 2.57-3.65 2.97-7.06 3.25v-5h-5c-0.33-1.65-0.66-3.3-1-5-0.619 0.186-1.24 0.371-1.88 0.562-4.46 0.624-8.68-0.00146-13.1-0.562-0.33-0.99-0.66-1.98-1-3 1.65-0.33 3.3-0.66 5-1v-2c3.92-1.96 8.44-0.174 12.4 1.06z" fill="#3470FA"/>
<path transform="translate(1442,251)" d="m0 0c0.619 0.186 1.24 0.371 1.88 0.562 2.17 0.674 2.17 0.674 4.12-0.562 2.12 0.438 2.12 0.438 4 1-0.33 0.99-0.66 1.98-1 3-0.99 0.33-1.98 0.66-3 1 0.33 0.66 0.66 1.32 1 2-3 2-3 2-6 3-0.0825 0.784-0.165 1.57-0.25 2.38-0.75 2.62-0.75 2.62-2.81 3.94-0.639 0.227-1.28 0.454-1.94 0.688v5h-2c-0.33 0.99-0.66 1.98-1 3-0.763 0.0412-1.53 0.0825-2.31 0.125-3.01 0.653-3.01 0.653-4.5 3.94-0.392 0.969-0.784 1.94-1.19 2.94h-3c-0.944-2.54-1.17-3.61-0.0742-6.14 0.686-1.04 0.686-1.04 1.39-2.11 0.45-0.706 0.9-1.41 1.36-2.14 0.437-0.531 0.874-1.06 1.32-1.61h2c0.236-0.687 0.472-1.37 0.715-2.08 1.55-3.51 3.62-6.5 5.85-9.61 2.94-4.02 2.94-4.02 5.44-8.31z" fill="#3B76F7"/>
<path transform="translate(1388,191)" d="m0 0c0.66 0.33 1.32 0.66 2 1 0.478 2.66 0.842 5.25 1.12 7.94 0.0864 0.742 0.173 1.48 0.262 2.25 0.613 5.37 0.613 5.37 0.613 7.81h2c0.33-0.66 0.66-1.32 1-2 0.289 0.639 0.578 1.28 0.875 1.94 0.953 2.21 0.953 2.21 3.12 3.06v6c0.763-0.103 1.53-0.206 2.31-0.312 0.887 0.103 1.77 0.206 2.69 0.312 1.82 2.38 3 3.96 3 7-7.08-0.443-11.6-2.93-16.8-7.66-6.28-7.42-4.66-17.2-4.16-26.3 0.66-0.33 1.32-0.66 2-1z" fill="#3874FB"/>
<path transform="translate(1241,212)" d="m0 0c2 1 2 1 2.85 3.29 0.255 0.917 0.51 1.83 0.773 2.78 0.391 1.38 0.391 1.38 0.789 2.79 0.193 0.71 0.387 1.42 0.586 2.15-2 2-2 2-5.12 2.12-0.949-0.0412-1.9-0.0825-2.88-0.125v-2h-3v4c-0.887 0.289-1.77 0.577-2.69 0.875-2.82 0.956-5.56 1.99-8.31 3.12-0.99-1.65-1.98-3.3-3-5 0.557-0.536 1.11-1.07 1.69-1.62 2.41-2.41 2.41-2.41 4.75-5.38 4.23-4.95 6.79-7.75 13.6-7z" fill="#3B76F7"/>
<path transform="translate(1396,321)" d="m0 0c0.687 2.49 1 4.38 1 7 3.46-0.495 3.46-0.495 7-1v6c-5.75 3-5.75 3-8 3v2h-2v2c-3.63 0.66-7.26 1.32-11 2-0.66-0.99-1.32-1.98-2-3 0.699-0.976 1.4-1.95 2.12-2.96 0.919-1.29 1.84-2.57 2.76-3.86 0.46-0.643 0.92-1.29 1.39-1.95 0.445-0.622 0.889-1.24 1.35-1.88 0.408-0.571 0.817-1.14 1.24-1.73 1.07-1.52 2.11-3.07 3.15-4.63 0.99-0.33 1.98-0.66 3-1z" fill="#3A75F8"/>
<path transform="translate(229,425)" d="m0 0c0.99 0.33 1.98 0.66 3 1v4c2.85 2.13 5.51 3.35 9 4v3h5v2c2.97 0.99 5.94 1.98 9 3-0.66 0.66-1.32 1.32-2 2 2.31 0.33 4.62 0.66 7 1-2.36 2.53-3.66 3.89-7 5-2.26-0.559-2.26-0.559-4.69-1.44-1.21-0.431-1.21-0.431-2.45-0.871-0.615-0.228-1.23-0.456-1.86-0.691 0.66-0.33 1.32-0.66 2-1v-4c-0.652-0.11-1.3-0.219-1.98-0.332-10.1-1.83-10.1-1.83-14-4.67-0.875-3.19-0.875-3.19-1-6-1.65-0.33-3.3-0.66-5-1 0.33-0.99 0.66-1.98 1-3 0.66 0.33 1.32 0.66 2 1v-2c0.66-0.33 1.32-0.66 2-1z" fill="#3874FB"/>
<path transform="translate(175,55)" d="m0 0h2c0.33 1.65 0.66 3.3 1 5 0.66-0.33 1.32-0.66 2-1-0.66-0.66-1.32-1.32-2-2 3.07-1.53 5.7-0.55 9 0v3c0.66 0.33 1.32 0.66 2 1 0.33-0.99 0.66-1.98 1-3h7v2c0.66 0.33 1.32 0.66 2 1-0.679 0.257-1.36 0.513-2.06 0.777-4.07 1.69-7.95 3.72-11.9 5.74-3.67 1.87-6.94 3.48-11.1 3.48 0-5.46 0.291-10.6 1-16z" fill="#3773FB"/>
<path transform="translate(268,228)" d="m0 0h1c0.083 0.907 0.083 0.907 0.168 1.83 0.254 2.76 0.512 5.53 0.77 8.29 0.087 0.951 0.174 1.9 0.264 2.88 0.441 4.7 0.931 9.35 1.8 14h2c0.103 1.11 0.206 2.23 0.312 3.38 0.227 1.2 0.454 2.39 0.688 3.62 0.99 0.66 1.98 1.32 3 2-1.58 1.58-3.19 1.25-5.38 1.31-0.791 0.0374-1.58 0.0748-2.4 0.113-2.23-0.426-2.23-0.426-3.86-2.06-1.79-3.1-1.62-5.1-1.44-8.66 0.0548-1.21 0.11-2.41 0.166-3.65 0.0728-1.25 0.146-2.51 0.221-3.8 0.0612-1.27 0.122-2.54 0.186-3.85 0.153-3.14 0.321-6.27 0.502-9.4h2v-6z" fill="#3D78FB"/>
<path transform="translate(139,36)" d="m0 0v2c3.47-0.495 3.47-0.495 7-1v2c0.66 0.33 1.32 0.66 2 1-0.699 0.182-1.4 0.364-2.12 0.551-0.91 0.251-1.82 0.503-2.76 0.762-1.36 0.365-1.36 0.365-2.74 0.738-2.7 0.816-2.7 0.816-4.38 3.95-0.33 0.99-0.66 1.98-1 3 0.66 0.33 1.32 0.66 2 1v-5c1.81-0.688 1.81-0.688 4-1 1.75 1.44 1.75 1.44 3 3-0.66 0.66-1.32 1.32-2 2v-2h-3c0.33 1.32 0.66 2.64 1 4-1.89-0.155-1.89-0.155-3.81-0.312-2.18-0.0833-2.18-0.0833-4.19 0.312-2.08 2.35-2.08 2.35-3 5-0.66-0.33-1.32-0.66-2-1 0.33-1.32 0.66-2.64 1-4-0.66-0.33-1.32-0.66-2-1-0.667-1.33-1.33-2.67-2-4 2.12-1.67 4.25-3.34 6.38-5 0.603-0.477 1.21-0.954 1.83-1.45 4.57-3.55 4.57-3.55 6.8-3.55zm-17 13c0.66 0.66 1.32 1.32 2 2h-2v-2z" fill="#3874FB"/>
<path transform="translate(1302,316)" d="m0 0c0.66 1.32 1.32 2.64 2 4-3.37 1.5-5.2 2-9 2-0.33 1.65-0.66 3.3-1 5-1.98 0.33-3.96 0.66-6 1v-2c-1.09-0.124-2.19-0.248-3.31-0.375-3.69-0.625-3.69-0.625-6.69-2.62-0.333-1.33-0.667-2.67-1-4-0.99-0.66-1.98-1.32-3-2 1.22 0.0116 2.44 0.0232 3.69 0.0352 1.62 0.00939 3.25 0.0185 4.87 0.0273 0.8 0.00838 1.6 0.0168 2.42 0.0254 5.74 0.0234 11.3-1.09 17-1.09z" fill="#2F66E4"/>
<path transform="translate(1443,274)" d="m0 0h4v3c0.66 0.33 1.32 0.66 2 1-0.33 1.65-0.66 3.3-1 5h-2v2l4 1c-0.454 0.516-0.908 1.03-1.38 1.56-2.01 3.01-2.75 5.95-3.62 9.44-0.124-0.598-0.247-1.2-0.375-1.81-0.58-2.45-0.58-2.45-2.62-5.19h-2v5h2c-0.33 1.32-0.66 2.64-1 4h-5v-7h2c0.0823-3.04-0.0239-5.07-1-8 0.99-0.33 1.98-0.66 3-1-0.99-0.33-1.98-0.66-3-1h3v-5c0.66-0.33 1.32-0.66 2-1 0.33-0.66 0.66-1.32 1-2z" fill="#3571FA"/>
<path transform="translate(392,109)" d="m0 0c1.65 0.33 3.3 0.66 5 1 0.33 3.96 0.66 7.92 1 12-1.32 0.33-2.64 0.66-4 1 0.33 1.65 0.66 3.3 1 5h-2v3c0.66 0.33 1.32 0.66 2 1-2.31 0.33-4.62 0.66-7 1-0.0606-0.641-0.121-1.28-0.184-1.94-0.391-4.04-0.789-8.05-1.44-12.1-0.375-3-0.375-3 0.625-5h5v-5z" fill="#3571FB"/>
<path transform="translate(178,235)" d="m0 0h1c0.133 0.808 0.266 1.62 0.402 2.45 0.177 1.07 0.353 2.14 0.535 3.24 0.174 1.06 0.348 2.11 0.527 3.2 0.655 3.81 1.31 7.44 2.54 11.1v-4c2 1 2 1 2.85 2.96 0.255 0.797 0.51 1.59 0.773 2.41 0.26 0.791 0.521 1.58 0.789 2.4 0.586 2.23 0.586 2.23 0.586 5.23 0.66 0.33 1.32 0.66 2 1-1.39 0.137-2.79 0.233-4.19 0.312-0.777 0.058-1.55 0.116-2.36 0.176-3.85-0.765-5.17-2.34-7.46-5.49-0.588-3.13-0.475-6.14-0.312-9.31 0.0226-0.836 0.0451-1.67 0.0684-2.53 0.0586-2.05 0.148-4.1 0.244-6.15h1c0.33-2.31 0.66-4.62 1-7z" fill="#3C77FB"/>
<path transform="translate(109,230)" d="m0 0v3c-1.32-0.33-2.64-0.66-4-1v2c2.31 0.33 4.62 0.66 7 1v2c0.66 0.33 1.32 0.66 2 1-1.32 1.65-2.64 3.3-4 5h2v2h-3v3c-2.88 0.625-2.88 0.625-6 1l-2-2h2v-2c-0.99 0.33-1.98 0.66-3 1-0.33-0.99-0.66-1.98-1-3-2.02-0.733-2.02-0.733-4-1v-2h11v-2c-0.99 0.33-1.98 0.66-3 1-2.35-0.598-4.69-1.26-7-2v-1h8v-5c2-1 2-1 5-1z" fill="#3571FB"/>
<path transform="translate(1432,306)" d="m0 0c2 3 2 3 1.94 6.56 0.0206 1.13 0.0412 2.27 0.0625 3.44 0.99 0.66 1.98 1.32 3 2 1.19 2.62 1.19 2.62 2 5-6.62 0.125-6.62 0.125-10-1-0.33 0.99-0.66 1.98-1 3-0.562-1.94-0.562-1.94-1-4 0.33-0.33 0.66-0.66 1-1-0.99 1.49-0.99 1.49-2 3-1.94-0.5-1.94-0.5-4-2-0.688-2.7-0.819-5.2-1-8 2.47 0.495 2.47 0.495 5 1-0.33-1.65-0.66-3.3-1-5 1.45-0.464 1.45-0.464 2.94-0.938 2.9-0.758 2.9-0.758 4.06-2.06z" fill="#3C77FA"/>
<path transform="translate(248 -.125)" d="m0 0c1.48 0.0101 2.96 0.0192 4.43 0.0273 3.56 0.0217 7.13 0.056 10.7 0.0977-3.66 2.44-5.35 2.18-9.69 2.06-5.24-0.0815-10.1 0.11-15.3 0.938v5c-2.47-0.495-2.47-0.495-5-1 0.66-0.33 1.32-0.66 2-1v-2c-4.88-0.157-9.23-0.0622-14 1-4.77 1.06-9.12 1.16-14 1 0.66-0.33 1.32-0.66 2-1v-2l3.12-0.375c2.62-0.317 5.22-0.682 7.82-1.12 9.39-1.53 18.4-1.75 27.9-1.63z" fill="#3A75FB"/>
<path transform="translate(1296,269)" d="m0 0c0.66 1.65 1.32 3.3 2 5-3.34 5.28-7.06 6.53-12.8 8.31-0.793 0.264-1.59 0.527-2.4 0.799-1.94 0.644-3.9 1.27-5.85 1.89 0.613-2.96 1.25-4.38 3-7h4v-2h3v-2c-0.66-0.33-1.32-0.66-2-1h2v-3c3.2-1.07 5.66-1.07 9-1z" fill="#3874FA"/>
<path transform="translate(1457,257)" d="m0 0c2.47 0.99 2.47 0.99 5 2v3c0.66 0.33 1.32 0.66 2 1h-2c-1.16 2.95-1.16 2.95-1 6 0 4.38-0.568 5.3-3 8.75-0.557 0.799-1.11 1.6-1.69 2.42-0.433 0.603-0.866 1.21-1.31 1.83-0.33-0.66-0.66-1.32-1-2 0.33-0.99 0.66-1.98 1-3-0.99-0.33-1.98-0.66-3-1-0.33-3.96-0.66-7.92-1-12h6v-7z" fill="#3571FB"/>
<path transform="translate(196,330)" d="m0 0c3 5.75 3 5.75 3 8 0.99 0.66 1.98 1.32 3 2-1.11 0.289-2.23 0.577-3.38 0.875-3.63 0.817-3.63 0.817-5.62 3.12-0.99 0.66-1.98 1.32-3 2-0.66-1.98-1.32-3.96-2-6h2v-2c-0.99 0.33-1.98 0.66-3 1-2.69-0.438-2.69-0.438-5-1 0.99-0.66 1.98-1.32 3-2v-2h3v-2c-0.66-0.33-1.32-0.66-2-1 3.21-1.61 6.44-1.06 10-1z" fill="#3571FB"/>
<path transform="translate(147,89)" d="m0 0c0.99 0.99 1.98 1.98 3 3-1.2 2.49-2.45 4.68-4 7h-2c-0.268 0.763-0.536 1.53-0.812 2.31-1.19 2.69-1.19 2.69-2.56 4-2.14 2.22-3.37 4.65-4.81 7.38-0.53 0.994-1.06 1.99-1.61 3.01-0.597 1.14-0.597 1.14-1.21 2.3-0.99-0.33-1.98-0.66-3-1-0.66 0.33-1.32 0.66-2 1 0.99-3.47 0.99-3.47 2-7h5c-0.0928-1.3-0.0928-1.3-0.188-2.62 0.278-5 2.46-8.28 5.19-12.4h2c0.268-0.598 0.536-1.2 0.812-1.81 1.17-2.16 2.38-3.55 4.19-5.19z" fill="#3773FA"/>
<path transform="translate(1467,326)" d="m0 0c2.38 0.25 2.38 0.25 5 1 1.31 2.06 1.31 2.06 2 4h2v2c0.99 0.33 1.98 0.66 3 1-1.45 2.02-1.45 2.02-4 4-2.96 0.363-5.8 0.0585-8.75-0.25-0.793-0.0657-1.59-0.131-2.4-0.199-1.95-0.165-3.9-0.355-5.85-0.551v-4c3.19-2.13 5.27-2.5 9-3v-4z" fill="#3571FB"/>
<path transform="translate(324,42)" d="m0 0h6c0.33 0.99 0.66 1.98 1 3h5c0.33-0.66 0.66-1.32 1-2 3.08 4.31 3.08 4.31 2.69 7.81-0.227 0.722-0.454 1.44-0.688 2.19h-2c-0.33 1.32-0.66 2.64-1 4-2.31-0.33-4.62-0.66-7-1 0.66-1.98 1.32-3.96 2-6-2.64-0.33-5.28-0.66-8-1 0.33-2.31 0.66-4.62 1-7z" fill="#3571FB"/>
<path transform="translate(1306,221)" d="m0 0c6 3 6 3 6.69 4.88 1.26 2.51 1.26 2.51 4.88 3.56 1.13 0.516 2.27 1.03 3.44 1.56 0.812 2.62 0.812 2.62 1 5 0.66 0.33 1.32 0.66 2 1 0.812 2.31 0.812 2.31 1 5-1.44 2.31-1.44 2.31-3 4v-3c-0.99-0.33-1.98-0.66-3-1-3-4.33-3-4.33-3-7-0.99-0.33-1.98-0.66-3-1-3.42-3.09-5.73-5.94-6.88-10.4-0.0412-0.846-0.0825-1.69-0.125-2.56z" fill="#3C77FA"/>
<path transform="translate(109,69)" d="m0 0c0.99 0.33 1.98 0.66 3 1 0.688 2.06 0.688 2.06 1 4h3v3c-3.29 0.8-4.71 1.1-8 0 0.248 0.743 0.495 1.48 0.75 2.25 0.25 2.75 0.25 2.75-1.44 5-2.22 1.68-3.59 2.36-6.31 2.75v-2c-0.99-0.33-1.98-0.66-3-1 0.33-1.32 0.66-2.64 1-4h3v-3c-0.66-0.33-1.32-0.66-2-1 0.33-0.99 0.66-1.98 1-3 1.32 0.66 2.64 1.32 4 2 0.33-0.66 0.66-1.32 1-2 0.66 0.66 1.32 1.32 2 2v-4l1-2z" fill="#3C77FB"/>
<path transform="translate(248 138)" d="m0 0c2.89 1.11 3.84 2.33 5.44 4.94l-2 2v-2c-1.98 0.99-1.98 0.99-4 2 0.66 1.98 1.32 3.96 2 6-1.32 0.33-2.64 0.66-4 1-0.33 1.32-0.66 2.64-1 4h-2c-0.625-2.31-0.625-2.31-1-5 0.66-0.99 1.32-1.98 2-3-1.98-0.66-3.96-1.32-6-2 6.09-8.05 6.09-8.05 10.6-7.94z" fill="#336DF2"/>
<path transform="translate(318,245)" d="m0 0h1c0.599 15 0.599 15-3 19-2.77 0.797-5.08 0.904-8 1-1.12-3.75-1.12-3.75 0-6h2c0.33-1.98 0.66-3.96 1-6h2v-2c1.32 0.33 2.64 0.66 4 1 0.33-2.31 0.66-4.62 1-7z" fill="#3874FA"/>
<path transform="translate(181,11)" d="m0 0c2.12 0.938 2.12 0.938 4 2v4c-5.75 1.12-5.75 1.12-8 0 0.33 1.98 0.66 3.96 1 6h-6v-2h-6c0.129-1.83 0.129-1.83 1-4 2.65-1.45 2.65-1.45 5.94-2.69 1.08-0.416 2.16-0.833 3.28-1.26 1.38-0.52 1.38-0.52 2.79-1.05 0.66-0.33 1.32-0.66 2-1z" fill="#3773FA"/>
<path transform="translate(316,126)" d="m0 0h1v28c-0.66-0.99-1.32-1.98-2-3 0.33-0.66 0.66-1.32 1-2h-3v-5h3v-2c-0.66-0.33-1.32-0.66-2-1v-3c-0.66 0.66-1.32 1.32-2 2v3 2c-3.88-0.875-3.88-0.875-5-2-0.0718-1.52-0.0839-3.04-0.0625-4.56 0.00902-0.826 0.018-1.65 0.0273-2.5 0.0116-0.638 0.0232-1.28 0.0352-1.93 2.96 0.613 4.38 1.25 7 3 1.01-3.62 1.5-7.28 2-11z" fill="#3571FB"/>
<path transform="translate(1272,276)" d="m0 0v4h3c-0.33 1.98-0.66 3.96-1 6-2.64 0.66-5.28 1.32-8 2-0.33-0.99-0.66-1.98-1-3-2-1.21-2-1.21-4-2 0.99-0.33 1.98-0.66 3-1-1.32-0.99-2.64-1.98-4-3 1.25-0.508 2.5-1.01 3.75-1.5 0.696-0.278 1.39-0.557 2.11-0.844 2.14-0.656 2.14-0.656 6.14-0.656z" fill="#3874FB"/>
<path transform="translate(1476 205)" d="m0 0c0.947-0.0142 1.89-0.0284 2.87-0.043 2.74 0.234 4.36 0.833 6.69 2.23-0.33 1.32-0.66 2.64-1 4h-19c0-3 0-3 2-5 3.05-1.02 5.24-1.17 8.44-1.19z" fill="#3470FA"/>
<path transform="translate(1386,204)" d="m0 0c0.99 0.33 1.98 0.66 3 1 0.0825 0.949 0.165 1.9 0.25 2.88 0.247 1.03 0.495 2.06 0.75 3.12 1.93 1.09 1.93 1.09 4 2 0.667 1.67 1.33 3.33 2 5 1.88 1.11 1.88 1.11 4 2 2.25 2 2.25 2 4 4v2c-1.68-0.641-3.34-1.31-5-2-1.45-0.557-1.45-0.557-2.94-1.12-4.61-2.82-7.65-7.06-10.1-11.9-0.0402-2.33-0.0432-4.67 0-7z" fill="#3C77FB"/>
<path transform="translate(251 142)" d="m0 0c4.9 0.832 7.16 3.9 10.3 7.56-0.33 0.66-0.66 1.32-1 2v2c-4.72-0.463-8.25-0.997-12-4-1.31-2.69-1.31-2.69-2-5 2-2 2-2 4.69-2.56z" fill="#3773FB"/>
<path transform="translate(75,124)" d="m0 0h1c0.33 1.98 0.66 3.96 1 6 0.66-0.33 1.32-0.66 2-1 0.33-0.99 0.66-1.98 1-3 0.66 0.33 1.32 0.66 2 1 0.66-0.66 1.32-1.32 2-2v6h-4c-0.66 3.3-1.32 6.6-2 10-1.32-0.33-2.64-0.66-4-1 0.33-0.99 0.66-1.98 1-3-0.99-0.33-1.98-0.66-3-1-0.812-1.81-0.812-1.81-1-4 0.938-2.25 0.938-2.25 2-4h2v-4z" fill="#3C77FB"/>
<path transform="translate(1386,187)" d="m0 0c3.46-0.0579 6.92-0.0936 10.4-0.125 0.985-0.0168 1.97-0.0335 2.98-0.0508 1.41-0.00967 1.41-0.00967 2.85-0.0195 1.3-0.0157 1.3-0.0157 2.63-0.0317 2.15 0.227 2.15 0.227 4.15 2.23 0.125 3.62 0.125 3.62 0 7h-1v-6h-2v2c-6.52 0.133-12.6-0.649-19-2-0.33-0.99-0.66-1.98-1-3z" fill="#2F6DF6"/>
<path transform="translate(1307,332)" d="m0 0c5.79 0.368 5.79 0.368 8 1 0.66 0.99 1.32 1.98 2 3v-3c3.46-0.495 3.46-0.495 7-1 0.66 0.99 1.32 1.98 2 3-1.92 0.816-3.83 1.63-5.75 2.44-1.07 0.452-2.13 0.905-3.23 1.37-4.88 1.93-4.88 1.93-7.02 2.19-0.66-0.66-1.32-1.32-2-2 0.375-2.62 0.375-2.62 1-5-0.99-0.33-1.98-0.66-3-1 0.33-0.33 0.66-0.66 1-1z" fill="#3571FB"/>
<path transform="translate(1463,232)" d="m0 0c-0.33 0.66-0.66 1.32-1 2-2.56 0.625-2.56 0.625-5 1 0.206 0.784 0.412 1.57 0.625 2.38 0.124 0.866 0.247 1.73 0.375 2.62-0.66 0.66-1.32 1.32-2 2v4c-2.31 0.33-4.62 0.66-7 1-0.691-1.68-0.691-1.68-1-4 2.42-4.96 5.37-9.17 10.3-11.7 2.69-0.312 2.69-0.312 4.69 0.688z" fill="#3C77FB"/>
<path transform="translate(342,188)" d="m0 0h1c-0.0206 0.969-0.0412 1.94-0.0625 2.94-0.294 2.94-0.294 2.94 1.06 4.06 0.33-1.32 0.66-2.64 1-4h2c0.66 1.65 1.32 3.3 2 5-0.206-0.619-0.413-1.24-0.625-1.88-0.124-0.701-0.248-1.4-0.375-2.12 0.66-0.66 1.32-1.32 2-2 2.8 2.07 3.03 3.14 3.69 6.69 0.103 1.09 0.206 2.19 0.312 3.31-0.99 0.66-1.98 1.32-3 2-0.66-0.33-1.32-0.66-2-1-0.33 0.66-0.66 1.32-1 2-1-3-1-3-1-6h-5c-1.12-1.69-1.12-1.69-2-4 0.875-2.75 0.875-2.75 2-5z" fill="#3874FB"/>
<path transform="translate(364,257)" d="m0 0c-0.33 3.3-0.66 6.6-1 10-0.66-1.32-1.32-2.64-2-4-0.66 1.98-1.32 3.96-2 6-2.31 0.33-4.62 0.66-7 1 0.473-4.97 1.79-8.15 5-12h4c2-1 2-1 3-1z" fill="#3C76F8"/>
<path transform="translate(1466,244)" d="m0 0c3.44 0.812 3.44 0.812 7 2 1.07 3.2 1.07 5.66 1 9-1.98 0.33-3.96 0.66-6 1-0.33-1.65-0.66-3.3-1-5-0.99 0.33-1.98 0.66-3 1-0.66-0.99-1.32-1.98-2-3 0.66-0.33 1.32-0.66 2-1 1.13-2.02 1.13-2.02 2-4z" fill="#3571FB"/>
<path transform="translate(329,179)" d="m0 0c7.72 4.96 7.72 4.96 8.88 9.25 0.0412 0.907 0.0825 1.81 0.125 2.75 0.66 0.66 1.32 1.32 2 2-1.65 0.33-3.3 0.66-5 1-0.33-0.99-0.66-1.98-1-3h-5c0.66-0.33 1.32-0.66 2-1v-2h-2c-1.12-4.75-1.12-4.75 0-7l-2-1 2-1z" fill="#3874FB"/>
<path transform="translate(1269,197)" d="m0 0c-1.1 2.99-1.68 3.85-4.62 5.25-1.18 0.371-1.18 0.371-2.38 0.75v2c-1.28 0.0619-2.56 0.124-3.88 0.188-0.719 0.0348-1.44 0.0696-2.18 0.105-0.642-0.0967-1.28-0.193-1.95-0.293-0.66-0.99-1.32-1.98-2-3 1.58-0.649 3.17-1.29 4.75-1.94 0.882-0.36 1.76-0.719 2.67-1.09 3.36-1.27 5.98-1.97 9.58-1.97z" fill="#2F65E2"/>
<path transform="translate(84,100)" d="m0 0h2c2.43 4.97 3.35 8.35 3 14-1.32 0.33-2.64 0.66-4 1-0.66-2.31-1.32-4.62-2-7h-2c0.628-2.93 1.59-5.36 3-8z" fill="#3C77FB"/>
<path transform="translate(373,90)" d="m0 0h8c1.12 1.75 1.12 1.75 2 4-0.812 2.12-0.812 2.12-2 4-0.33 0.66-0.66 1.32-1 2h2c-0.33 0.99-0.66 1.98-1 3-0.66-0.66-1.32-1.32-2-2v-4c-0.66 0.66-1.32 1.32-2 2 0.33 0.66 0.66 1.32 1 2-0.66 0.66-1.32 1.32-2 2-0.33-0.33-0.66-0.66-1-1 0.0206-1.26 0.0412-2.52 0.0625-3.81 0.0527-3.26-0.206-5.4-2.06-8.19z" fill="#3571FB"/>
<path transform="translate(785,317)" d="m0 0h22c0.33 0.99 0.66 1.98 1 3-7.53 1.67-15.9 2.29-23-1v-2z" fill="#010204"/>
<path transform="translate(314,12)" d="m0 0c5.88 3.75 5.88 3.75 7 6-2.97-0.495-2.97-0.495-6-1 0.33 1.32 0.66 2.64 1 4-2.31-0.33-4.62-0.66-7-1-0.33-1.98-0.66-3.96-1-6 1.32 0.33 2.64 0.66 4 1v-2c0.66-0.33 1.32-0.66 2-1z" fill="#3874FB"/>
<path transform="translate(832,306)" d="m0 0c3.22 5.27 3.22 5.27 4 7-0.33 0.66-0.66 1.32-1 2-0.66-0.66-1.32-1.32-2-2-2.9-0.243-2.9-0.243-6.12-0.125-1.64 0.0271-1.64 0.0271-3.32 0.0547-0.843 0.0232-1.69 0.0464-2.55 0.0703v2h-2c1.26-3.79 2.55-4.22 5.94-6.19 0.896-0.53 1.79-1.06 2.71-1.61 2.35-1.21 2.35-1.21 4.35-1.21z" fill="#010203"/>
<path transform="translate(190,194)" d="m0 0c0.33 0.66 0.66 1.32 1 2 1.64 0.722 3.31 1.39 5 2v2l2 2c-1.32 0.33-2.64 0.66-4 1-0.66-1.32-1.32-2.64-2-4v3c-2.31 0.33-4.62 0.66-7 1 1.62-6.75 1.62-6.75 5-9z" fill="#3B75F6"/>
<path transform="translate(294,118)" d="m0 0h24c-0.33 0.99-0.66 1.98-1 3-4.04 0.634-7.91 1.12-12 1-0.33-0.99-0.66-1.98-1-3h-10v-1z" fill="#2854B7"/>
<path transform="translate(225,192)" d="m0 0c0.124 0.598 0.248 1.2 0.375 1.81 0.58 2.45 0.58 2.45 2.62 5.19h-2v2c1.32 0.33 2.64 0.66 4 1-2.49 0.687-4.38 1-7 1v-2h-4c1.16-4.36 2.08-6.65 6-9z" fill="#3571FB"/>
<path transform="translate(315,40)" d="m0 0c0.33-0.66 0.66-1.32 1-2-0.186 0.578-0.371 1.16-0.562 1.75-0.478 2.46-0.195 3.89 0.562 6.25-2.08 0.553-3.84 1-6 1-1.06-2.38-1.06-2.38-2-5 0.33-0.66 0.66-1.32 1-2-0.99-0.33-1.98-0.66-3-1 3.78-1.05 5.65-1.11 9 1z" fill="#3571FB"/>
<path transform="translate(1476,321)" d="m0 0h8c0.382 1.66 0.714 3.32 1 5-1 1-1 1-3.29 1.1-1.37-0.0174-1.37-0.0174-2.78-0.0352-0.919-0.00902-1.84-0.018-2.79-0.0273-0.71-0.0116-1.42-0.0232-2.15-0.0352 0.66-0.33 1.32-0.66 2-1v-5z" fill="#3874FB"/>
<path transform="translate(1312,311)" d="m0 0c0.66 0.66 1.32 1.32 2 2 1.32 0.697 2.65 1.37 4 2-3.2 2.83-5.78 3.52-10 4-0.33-0.66-0.66-1.32-1-2-1.32-0.66-2.64-1.32-4-2 2.97-1.32 5.94-2.64 9-4z" fill="#2D61D8"/>
<path transform="translate(111,189)" d="m0 0c0.99 1.32 1.98 2.64 3 4h1c0.33 6.27 0.66 12.5 1 19-3.38-4.5-3.38-4.5-3-9h-1c-0.33-4.62-0.66-9.24-1-14z" fill="#3874FB"/>
<path transform="translate(218 1.94)" d="m0 0c1.63 0.0135 1.63 0.0135 3.29 0.0273 0.831 0.0116 1.66 0.0232 2.52 0.0352-0.33 0.99-0.66 1.98-1 3-5.38 0.917-10.5 1.11-16 1 0.66-0.33 1.32-0.66 2-1v-2c3.29-1.1 5.74-1.1 9.19-1.06z" fill="#3673FA"/>
<path transform="translate(380,201)" d="m0 0c2.45 3.71 1.96 6.4 1.25 10.7-0.271 1.74-0.271 1.74-0.547 3.51-0.232 0.924-0.464 1.85-0.703 2.8-0.66 0.33-1.32 0.66-2 1-0.766-5.86-1.36-11.2 0-17l2-1z" fill="#3D78FB"/>
<path transform="translate(382,186)" d="m0 0c1.2 6.37 1.06 10.2-2 16h-1v-15c2-1 2-1 3-1z" fill="#3A76FB"/>
<path transform="translate(175,211)" d="m0 0c0.33 0.66 0.66 1.32 1 2h2v14c-0.99 0.33-1.98 0.66-3 1v-17z" fill="#346DEF"/>
<path transform="translate(934,202)" d="m0 0h3c0.955 8.35 1.11 16.6 1 25 0.99 0.33 1.98 0.66 3 1v2h-3c-2.64-8.92-2.18-17.8-2-27-0.66-0.33-1.32-0.66-2-1z" fill="#020305"/>
<path transform="translate(79,111)" d="m0 0c2.5 1.06 2.5 1.06 5 3 0.312 3.69 0.312 3.69 0 7-2.31-0.66-4.62-1.32-7-2-0.201-3.72-0.152-4.77 2-8z" fill="#3C77FA"/>
<path transform="translate(302,340)" d="m0 0h2c0.33 0.33 0.66 0.66 1 1 0.99-0.33 1.98-0.66 3-1v2h2c-0.66 1.65-1.32 3.3-2 5-2.97-0.495-2.97-0.495-6-1-0.382-1.66-0.714-3.32-1-5l1-1z" fill="#3773FB"/>
<path transform="translate(291,202)" d="m0 0c2.62-0.188 2.62-0.188 5 0 0.33 1.98 0.66 3.96 1 6-0.99 0.66-1.98 1.32-3 2-1.94-0.812-1.94-0.812-4-2-0.33-0.99-0.66-1.98-1-3 0.66-0.99 1.32-1.98 2-3z" fill="#306FF9"/>
<path transform="translate(593,96)" d="m0 0c2.67 0.428 5.33 0.867 8 1.31 1.12 0.177 1.12 0.177 2.25 0.357 5.22 0.885 9.84 2.34 14.7 4.33-3.98 1.33-6.49 0.657-10.3-1-2.92-1.08-5.42-1.4-8.51-1.62-0.976-0.0748-1.95-0.15-2.96-0.227-0.736-0.049-1.47-0.098-2.23-0.148-0.33-0.99-0.66-1.98-1-3z" fill="#010204"/>
<path transform="translate(348,271)" d="m0 0c1.32 0.66 2.64 1.32 4 2v4c-0.722 0.124-1.44 0.248-2.19 0.375-2.77 0.615-5.21 1.51-7.81 2.62 0.472-4.25 2.97-6.2 6-9z" fill="#3972EF"/>
<path transform="translate(1276,195)" d="m0 0h20v1c-2.31 0.33-4.62 0.66-7 1v1h-12c-0.33-0.99-0.66-1.98-1-3z" fill="#2351B6"/>
<path transform="translate(830,248)" d="m0 0v2c-1.41 0.508-2.83 1.01-4.25 1.5-1.18 0.418-1.18 0.418-2.39 0.844-2.36 0.656-2.36 0.656-6.36 0.656v2h-5v-2c2.25-0.841 4.5-1.67 6.75-2.5 0.634-0.238 1.27-0.477 1.92-0.723 3.36-1.23 5.7-1.78 9.33-1.78z" fill="#010203"/>
<path transform="translate(1290,259)" d="m0 0c0.33 0.99 0.66 1.98 1 3-3.62 1.32-6.1 2-10 2-0.33-0.99-0.66-1.98-1-3 1.29-0.53 2.58-1.05 3.88-1.56 0.719-0.29 1.44-0.58 2.18-0.879 1.95-0.559 1.95-0.559 3.95 0.441z" fill="#2F61D3"/>
<path transform="translate(205,178)" d="m0 0c0.33 0.66 0.66 1.32 1 2h4c0.33 1.32 0.66 2.64 1 4-2.65 1.46-3.89 2-7 2v-3c-0.66-0.33-1.32-0.66-2-1 0.99-1.32 1.98-2.64 3-4z" fill="#3C77FB"/>
<path transform="translate(314,123)" d="m0 0h4v30h-1c-0.0146-0.807-0.0292-1.61-0.0442-2.45-0.0743-3.64-0.171-7.29-0.268-10.9-0.0226-1.27-0.0451-2.54-0.0684-3.85-0.0354-1.21-0.0709-2.42-0.107-3.67-0.0262-1.12-0.0524-2.24-0.0793-3.4-0.143-0.893-0.285-1.79-0.432-2.71-0.99-0.66-1.98-1.32-3-2 0.33-0.33 0.66-0.66 1-1z" fill="#3874FB"/>
<path transform="translate(314,387)" d="m0 0c1.32 0.66 2.64 1.32 4 2-0.579 3.29-1.55 4.94-3.94 7.25-0.525 0.521-1.05 1.04-1.59 1.58-1.47 1.17-1.47 1.17-3.47 1.17 0.33-1.65 0.66-3.3 1-5 0.99 0.33 1.98 0.66 3 1 0.33-2.64 0.66-5.28 1-8z" fill="#3773FB"/>
<path transform="translate(316,221)" d="m0 0c2 2 2 2 2.2 4.16-0.0232 0.812-0.0464 1.62-0.0703 2.46-0.018 0.817-0.0361 1.63-0.0547 2.48-0.0348 0.94-0.0348 0.94-0.0703 1.9-1.65 0.33-3.3 0.66-5 1 0.857-8.57 0.857-8.57 3-12z" fill="#306FF9"/>
<path transform="translate(256,146)" d="m0 0c1.65 1.32 3.3 2.64 5 4-0.33 0.66-0.66 1.32-1 2v2c-2.34-0.256-4.68-0.593-7-1-0.33-0.66-0.66-1.32-1-2h3c0.33-1.65 0.66-3.3 1-5z" fill="#3571FA"/>
<path transform="translate(303,304)" d="m0 0c0.99 0.66 1.98 1.32 3 2v4c-5.75 0.125-5.75 0.125-8-1 1-3 1-3 3.06-4.19 0.639-0.268 1.28-0.536 1.94-0.812z" fill="#3670F3"/>
<path transform="translate(301,7)" d="m0 0c0.33 0.99 0.66 1.98 1 3 0.99 0.33 1.98 0.66 3 1-5.01-0.615-10-1.27-15-2 2.26-4.51 6.84-2.71 11-2z" fill="#3773FA"/>
<path transform="translate(288,415)" d="m0 0h3c-0.472 4.25-2.97 6.2-6 9-0.99-0.33-1.98-0.66-3-1v-2c0.619-0.248 1.24-0.495 1.88-0.75 2.48-1.46 3.08-2.63 4.12-5.25z" fill="#3470FA"/>
<path transform="translate(192,142)" d="m0 0c0.66 0.33 1.32 0.66 2 1-1.61 2.71-3.25 5.37-5 8v-2c-1.98 0.99-1.98 0.99-4 2 1.75-5.75 1.75-5.75 4-8 0.99-0.33 1.98-0.66 3-1z" fill="#3C77FB"/>
<path transform="translate(1324,252)" d="m0 0c0.33 0.99 0.66 1.98 1 3-6.62 3.12-6.62 3.12-10 2 0.66-0.33 1.32-0.66 2-1v-3c3.62-2.12 3.62-2.12 7-1z" fill="#3C77FB"/>
<path transform="translate(1497,316)" d="m0 0h13v1c-0.908 0.124-1.82 0.248-2.75 0.375-3.15 0.453-3.15 0.453-5.38 1.69-1.88 0.938-1.88 0.938-5.88 0.938 0.33-1.32 0.66-2.64 1-4z" fill="#2455BF"/>
<path transform="translate(176,209)" d="m0 0c0.99 0.33 1.98 0.66 3 1 0.66 3.63 1.32 7.26 2 11-0.99 0.66-1.98 1.32-3 2v-10h-2v-4z" fill="#3D78FB"/>
<path transform="translate(1220,230)" d="m0 0h2c1.12 4.75 1.12 4.75 0 7-2.56 0.625-2.56 0.625-5 1 0.547-3.37 1.05-5.08 3-8z" fill="#3C77FB"/>
<path transform="translate(176,320)" d="m0 0c1.95 2.92 2.45 4.63 3 8h-7v-3c0.99-0.33 1.98-0.66 3-1 0.733-2.02 0.733-2.02 1-4z" fill="#3571FB"/>
<path transform="translate(214,174)" d="m0 0c0.99 0.66 1.98 1.32 3 2-0.33 1.65-0.66 3.3-1 5-2.97-0.495-2.97-0.495-6-1 0.33-0.66 0.66-1.32 1-2h2c0.33-1.32 0.66-2.64 1-4z" fill="#3C77FB"/>
<path transform="translate(234,148)" d="m0 0c0.688 1.75 0.688 1.75 1 4-1.44 2.25-1.44 2.25-3 4-1.32-0.33-2.64-0.66-4-1 1.23-3.69 2.94-4.72 6-7z" fill="#3065DF"/>
<path transform="translate(80,108)" d="m0 0h3c0.99 2.97 1.98 5.94 3 9h-3v-3c-0.99-0.66-1.98-1.32-3-2v-4z" fill="#3874FB"/>
<path transform="translate(1472,329)" d="m0 0c1.32 0.66 2.64 1.32 4 2v2c0.99 0.33 1.98 0.66 3 1h-6v2h-2v-3h-2v-2c0.99-0.66 1.98-1.32 3-2z" fill="#3874FB"/>
<path transform="translate(230,322)" d="m0 0h10c0.33 0.66 0.66 1.32 1 2h-6c0.33 0.66 0.66 1.32 1 2h-6v-4z" fill="#3D78FB"/>
<path transform="translate(1397,316)" d="m0 0c2.47 0.99 2.47 0.99 5 2-1.48 2.48-1.48 2.48-3 5-1.65-0.33-3.3-0.66-5-1 0.99-1.98 1.98-3.96 3-6z" fill="#346BE8"/>
<path transform="translate(781 197)" d="m0 0c0.799 0.00902 1.6 0.018 2.42 0.0273 0.603 0.0116 1.21 0.0232 1.83 0.0352-2.89 1.58-5.53 2.46-8.75 3.12-0.799 0.168-1.6 0.335-2.42 0.508-0.603 0.121-1.21 0.242-1.83 0.367v-3c2.99-0.872 5.64-1.11 8.75-1.06z" fill="#020305"/>
<path transform="translate(94,93)" d="m0 0c2 3 2 3 2 6-1.45 0.433-1.45 0.433-2.94 0.875-3.17 0.767-3.17 0.767-4.06 3.12 0.7-3.15 1.65-6.07 3-9l2-1z" fill="#3C77FB"/>
<path transform="translate(1280,220)" d="m0 0h8v1h-8v-1z" fill="#020305"/>
<path transform="translate(256,52)" d="m0 0h5v1h-5v-1z" fill="#020305"/>
<path transform="translate(1509,200)" d="m0 0h2c-0.33 0.99-0.66 1.98-1 3-0.33-0.99-0.66-1.98-1-3z" fill="#010203"/>
<path transform="translate(1285,345)" d="m0 0 2 1z" fill="#020305"/>
<path transform="translate(1282,345)" d="m0 0 2 1z" fill="#020305"/>
<path transform="translate(1408,187)" d="m0 0 2 1z" fill="#000002"/>
<path transform="translate(235,52)" d="m0 0 2 1z" fill="#020305"/>
<path transform="translate(279,1)" d="m0 0 2 1z" fill="#3874FB"/>
<path transform="translate(217,1)" d="m0 0 2 1z" fill="#3874FB"/>
<path transform="translate(213,1)" d="m0 0 2 1z" fill="#3672FB"/>
</svg>
